<svg xmlns="http://www.w3.org/2000/svg" width="16.301" height="17.02" viewBox="0 0 16.301 17.02">
  <g id="Layer_1" data-name="Layer 1" transform="translate(0.464)">
    <path id="Path_913" data-name="Path 913" d="M13.751,3.454A7.472,7.472,0,1,1,7.852.57a7.289,7.289,0,0,1,3.461.865" transform="translate(-0.38 0.928)" fill="none" stroke="#231f20" stroke-miterlimit="10" stroke-width="0.77"/>
    <path id="Path_914" data-name="Path 914" d="M1.416,9.441c.367,1.363.472,1.626.472,1.626a9.989,9.989,0,0,0,.629,1.809l.288.446a.551.551,0,0,0,.288.21h0a2.124,2.124,0,0,0,1.783,0,1.363,1.363,0,0,0,.393-.419h0c1-1.547,2.045-3.12,3.172-4.719,2.019-2.858,4.064-5.506,6.083-7.865h0a.262.262,0,0,0,0-.236.594.594,0,0,0-.5-.288A3.775,3.775,0,0,0,12.769.16a4.457,4.457,0,0,0-1.023.446h0l-.918,1.154c-.6.734-1.023,1.311-2.255,3.068-.839,1.206-1.521,2.15-2.622,3.7-.472.655-.839,1.232-1.1,1.626s0,0-.131,0h0a2.143,2.143,0,0,1-.21-.236c-.026-.052-.367-.891-.787-1.783h0a.891.891,0,0,0-.157-.157.734.734,0,0,0-.6-.1h0a1.835,1.835,0,0,0-.76.341,2.2,2.2,0,0,0-.655.682h0a1.127,1.127,0,0,0,0,.131.446.446,0,0,0-.131.419Z" transform="translate(1.284 0.001)" fill="#00e36b"/>
  </g>
</svg>
