<svg xmlns="http://www.w3.org/2000/svg" xmlns:xlink="http://www.w3.org/1999/xlink" width="88.003" height="88.004" viewBox="0 0 88.003 88.004">
  <defs>
    <linearGradient id="linear-gradient" x1="-0.319" y1="-1.708" x2="0.5" y2="1.125" gradientUnits="objectBoundingBox">
      <stop offset="0" stop-color="#00169e"/>
      <stop offset="1" stop-color="#001284"/>
    </linearGradient>
  </defs>
  <g id="Group_887" data-name="Group 887" transform="translate(-212.998 -862)">
    <g id="loan" transform="translate(212.997 862)">
      <path id="Path_1821" data-name="Path 1821" d="M213.2,338.4A13.2,13.2,0,1,0,200,325.2,13.2,13.2,0,0,0,213.2,338.4Zm0-23.467A10.267,10.267,0,1,1,202.933,325.2,10.267,10.267,0,0,1,213.2,314.937Zm0,0" transform="translate(-163.331 -254.801)" fill="url(#linear-gradient)"/>
      <path id="Path_1822" data-name="Path 1822" d="M242.933,347.738H240a4.4,4.4,0,0,0,4.4,4.4V353.6h2.933v-1.467a4.4,4.4,0,0,0,0-8.8V340.4a1.466,1.466,0,0,1,1.467,1.467h2.933a4.4,4.4,0,0,0-4.4-4.4V336H244.4v1.467a4.4,4.4,0,0,0,0,8.8V349.2A1.467,1.467,0,0,1,242.933,347.738Zm0-5.867A1.467,1.467,0,0,1,244.4,340.4v2.933A1.467,1.467,0,0,1,242.933,341.871Zm4.4,4.4a1.467,1.467,0,1,1,0,2.933Zm0,0" transform="translate(-195.997 -274.401)" fill="url(#linear-gradient)"/>
      <path id="Path_1823" data-name="Path 1823" d="M86.538,44H79.2V32.269l2.2,1.268a1.467,1.467,0,0,0,1.991-.515l4.4-7.334a1.467,1.467,0,0,0-.549-2.04L76.271,17.6V7.334h1.467A1.466,1.466,0,0,0,79.2,5.868v-4.4A1.466,1.466,0,0,0,77.737,0H63.07A1.467,1.467,0,0,0,61.6,1.467v4.4A1.467,1.467,0,0,0,63.07,7.334h1.467v3.787L44.712.183a1.466,1.466,0,0,0-1.417,0L.76,23.65a1.467,1.467,0,0,0-.549,2.04l4.4,7.334a1.466,1.466,0,0,0,1.99.515l3.667-2.115V73.337H7.335A1.467,1.467,0,0,0,5.868,74.8v7.334A1.467,1.467,0,0,0,7.335,83.6h13.2v2.933A1.467,1.467,0,0,0,22,88H77.737A1.466,1.466,0,0,0,79.2,86.537h2.933A1.466,1.466,0,0,0,83.6,85.07V82.137h2.933A1.466,1.466,0,0,0,88,80.67v-35.2A1.466,1.466,0,0,0,86.538,44Zm-22-41.068H76.271V4.4H64.537Zm2.933,4.4h5.867v8.642L67.47,12.739ZM6.385,30.278,3.509,25.485,44,3.144,84.5,25.485l-2.876,4.793L44.736,9a1.466,1.466,0,0,0-1.467,0Zm6.817-.547L44,11.96,76.271,30.577V44H26.4a1.467,1.467,0,0,0-1.467,1.467V48.4H23.469A1.467,1.467,0,0,0,22,49.869V52.8a1.467,1.467,0,0,0-1.467,1.467V73.337H13.2ZM76.271,59.946a5.892,5.892,0,0,1-4.215-4.21h4.215Zm-7.2-4.21a8.811,8.811,0,0,0,7.2,7.2V77.869a8.812,8.812,0,0,0-7.2,7.2h-38.4a8.812,8.812,0,0,0-7.2-7.2V62.937a8.811,8.811,0,0,0,7.2-7.2Zm-45.6,4.192V55.736h4.192A5.867,5.867,0,0,1,23.469,59.928ZM8.8,80.67v-4.4H20.535v4.4Zm14.667.208a5.867,5.867,0,0,1,4.192,4.192H23.469Zm52.8,4.192H72.055a5.889,5.889,0,0,1,4.215-4.214Zm4.4-1.467H79.2V54.269A1.466,1.466,0,0,0,77.737,52.8h-52.8V51.336H80.671Zm4.4-4.4H83.6V49.869A1.466,1.466,0,0,0,82.138,48.4H27.869V46.936h57.2Zm0,0" transform="translate(0)" fill="url(#linear-gradient)"/>
      <path id="Path_1824" data-name="Path 1824" d="M193.467,129.6h14.667a1.466,1.466,0,0,0,1.467-1.467V113.471A1.466,1.466,0,0,0,208.134,112H193.467A1.467,1.467,0,0,0,192,113.471v14.667A1.467,1.467,0,0,0,193.467,129.6Zm1.467-7.334h4.4v4.4h-4.4Zm7.334,4.4v-4.4h4.4v4.4Zm4.4-7.334h-4.4v-4.4h4.4Zm-7.334-4.4v4.4h-4.4v-4.4Zm0,0" transform="translate(-156.797 -91.469)" fill="url(#linear-gradient)"/>
    </g>
  </g>
</svg>
