<svg xmlns="http://www.w3.org/2000/svg" xmlns:xlink="http://www.w3.org/1999/xlink" width="1600" height="1080" viewBox="0 0 1600 1080">
  <defs>
    <linearGradient id="linear-gradient" x1="0.5" x2="0.5" y2="1" gradientUnits="objectBoundingBox">
      <stop offset="0" stop-color="#4b1a7a"/>
      <stop offset="1" stop-color="#270064"/>
    </linearGradient>
    <linearGradient id="linear-gradient-2" x1="0.5" x2="0.5" y2="1" gradientUnits="objectBoundingBox">
      <stop offset="0" stop-color="#d4579d"/>
      <stop offset="1" stop-color="#270064" stop-opacity="0"/>
    </linearGradient>
    <linearGradient id="linear-gradient-4" x1="0.5" x2="0.5" y2="1" gradientUnits="objectBoundingBox">
      <stop offset="0" stop-color="#823fba"/>
      <stop offset="1" stop-color="#55208f"/>
    </linearGradient>
    <filter id="Rectangle_60" x="417" y="606" width="729" height="245" filterUnits="userSpaceOnUse">
      <feOffset dy="20" input="SourceAlpha"/>
      <feGaussianBlur stdDeviation="25" result="blur"/>
      <feFlood flood-color="#6b2fa5" flood-opacity="0.31"/>
      <feComposite operator="in" in2="blur"/>
      <feComposite in="SourceGraphic"/>
    </filter>
    <clipPath id="clip-Forgot_Password">
      <rect width="1600" height="1080"/>
    </clipPath>
  </defs>
  <g id="Forgot_Password" data-name="Forgot Password" clip-path="url(#clip-Forgot_Password)">
    <rect width="1600" height="1080" fill="#fff"/>
    <rect id="Rectangle_56" data-name="Rectangle 56" width="1600" height="1080" fill="url(#linear-gradient)"/>
    <g id="Group_582" data-name="Group 582" transform="translate(0 -11)">
      <path id="wave-4" d="M1600,192l-53.333,35.6c-53.333,35.067-160,107.067-266.667,92.4S1066.667,206.667,960,184.933C853.333,164,746.667,220,640,248.933c-106.667,28.4-213.333,28.4-320-7.2C213.333,206.667,106.667,134.667,53.333,99.6L0,64V405.333H1600Z" transform="translate(0 172)" opacity="0.35" fill="url(#linear-gradient-2)"/>
      <path id="wave-4-2" data-name="wave-4" d="M0,192l53.333,35.6c53.333,35.067,160,107.067,266.667,92.4S533.333,206.667,640,184.933C746.667,164,853.333,220,960,248.933c106.667,28.4,213.333,28.4,320-7.2,106.667-35.067,213.333-107.067,266.667-142.133L1600,64V405.333H0Z" transform="translate(0 554)" opacity="0.32" fill="url(#linear-gradient-2)"/>
    </g>
    <rect id="Rectangle_57" data-name="Rectangle 57" width="724" height="605" rx="20" transform="translate(419 225)" fill="#fff"/>
    <path id="path1482" d="M27.377-160.483c-.323-2.755-2.07-5.09-5.089-5.09s-4.766,2.335-5.089,5.09l-.219,1.868c-.338,2.879,2.669,5.307,5.308,5.307s5.646-2.428,5.308-5.307l-.219-1.868" transform="translate(705.105 913.479)" fill="#f3dab3"/>
    <path id="path14" d="M143.611-393.394l1.056,1.912A12.85,12.85,0,0,0,149.8-386.4l1.931,1.045L149.8-384.3a12.851,12.851,0,0,0-5.134,5.086l-1.056,1.912-1.056-1.912a12.856,12.856,0,0,0-5.136-5.086l-1.931-1.047,1.931-1.045a12.855,12.855,0,0,0,5.136-5.086l1.056-1.912" transform="translate(437.702 1406.76)" fill="#eee" opacity="0.83"/>
    <path id="path14-2" data-name="path14" d="M143.611-393.394l1.056,1.912A12.85,12.85,0,0,0,149.8-386.4l1.931,1.045L149.8-384.3a12.851,12.851,0,0,0-5.134,5.086l-1.056,1.912-1.056-1.912a12.856,12.856,0,0,0-5.136-5.086l-1.931-1.047,1.931-1.045a12.855,12.855,0,0,0,5.136-5.086l1.056-1.912" transform="translate(1143.702 728.76)" fill="#eee" opacity="0.83"/>
    <path id="path14-3" data-name="path14" d="M143.611-393.394l1.056,1.912A12.85,12.85,0,0,0,149.8-386.4l1.931,1.045L149.8-384.3a12.851,12.851,0,0,0-5.134,5.086l-1.056,1.912-1.056-1.912a12.856,12.856,0,0,0-5.136-5.086l-1.931-1.047,1.931-1.045a12.855,12.855,0,0,0,5.136-5.086l1.056-1.912" transform="translate(205.702 585.76)" fill="#eee" opacity="0.83"/>
    <path id="path34" d="M680.154-413.764a14.292,14.292,0,0,1-20.064,2.431A14.288,14.288,0,0,1,657.66-431.4a14.288,14.288,0,0,1,20.064-2.431,14.291,14.291,0,0,1,2.429,20.064" transform="translate(643.813 411.589)" fill="#f8f8f9" opacity="0.09"/>
    <g id="Group_583" data-name="Group 583" transform="translate(441 -22)">
      <g id="Group_427" data-name="Group 427" transform="translate(51 495)">
        <g id="Rectangle_59" data-name="Rectangle 59" transform="translate(0 0)" fill="#fbfbfb" stroke="rgba(227,227,227,0.3)" stroke-width="2">
          <rect width="579" height="95" rx="10" stroke="none"/>
          <rect x="1" y="1" width="577" height="93" rx="9" fill="none"/>
        </g>
        <text id="Johndoe_gmail.com" data-name="Johndoe@gmail.com" transform="translate(30 52)" fill="#b7b7b7" font-size="20" font-family="TTCommons-Italic, TT Commons" font-style="italic" letter-spacing="0.05em"><tspan x="0" y="0">Johndoe@gmail.com</tspan></text>
      </g>
      <text id="Email" transform="translate(51 467)" fill="#848484" font-size="20" font-family="TTCommons-Regular, TT Commons"><tspan x="0" y="0">Email</tspan></text>
      <text id="Make_sure_the_email_address_you_entered_is_active" data-name="Make sure the email address you entered is active" transform="translate(77 642)" fill="#d4579d" font-size="20" font-family="TTCommons-Medium, TT Commons" font-weight="500"><tspan x="0" y="0">Make sure the email address you entered is active</tspan></text>
      <g id="Group_498" data-name="Group 498" transform="translate(87 321.859)">
        <text id="Forgot_your_password" data-name="Forgot your password" fill="#55208f" stroke="#fdbc5a" transform="translate(2 41.141)" stroke-width="1" font-size="53" font-family="TTCommons-Bold, TT Commons" font-weight="700" letter-spacing="0.02em"><tspan x="0" y="0">Forgot your</tspan><tspan y="0" fill="#fff"> </tspan><tspan y="0" fill="none">password</tspan></text>
        <text id="Forgot_your_password-2" data-name="Forgot your password" transform="translate(0 37.141)" fill="#55208f" font-size="53" font-family="TTCommons-Bold, TT Commons" font-weight="700" letter-spacing="0.02em"><tspan x="0" y="0">Forgot your</tspan><tspan y="0" fill="#fff"> </tspan><tspan y="0" fill="#fdbc5a">password</tspan></text>
      </g>
      <line id="Line_88" data-name="Line 88" x2="60" transform="translate(311.5 403)" fill="none" stroke="#fdbc5a" stroke-width="4"/>
      <g id="Group_499" data-name="Group 499" transform="translate(51 683.477)">
        <g transform="matrix(1, 0, 0, 1, -492, -661.48)" filter="url(#Rectangle_60)">
          <rect id="Rectangle_60-2" data-name="Rectangle 60" width="579" height="95" rx="10" transform="translate(492 661)" fill="url(#linear-gradient-4)"/>
        </g>
        <text id="Send" transform="translate(269 51.523)" fill="#fff" font-size="25" font-family="TTCommons-Bold, TT Commons" font-weight="700" letter-spacing="0.05em"><tspan x="-28.375" y="0">Send</tspan></text>
      </g>
      <g id="warning" transform="translate(51 610.952)">
        <path id="Path_905" data-name="Path 905" d="M19.237,28.956,12.3,16.2a2.882,2.882,0,0,0-4.949,0L.4,28.956a2.874,2.874,0,0,0-.023,2.9,2.839,2.839,0,0,0,2.5,1.45H16.763a2.839,2.839,0,0,0,2.5-1.45A2.874,2.874,0,0,0,19.237,28.956Z" transform="translate(0)" fill="#d4579d"/>
        <path id="Path_906" data-name="Path 906" d="M265.439,31.856a2.839,2.839,0,0,1-2.5,1.45H256V14.8a2.873,2.873,0,0,1,2.474,1.4l6.942,12.752A2.874,2.874,0,0,1,265.439,31.856Z" transform="translate(-246.179)" fill="#d4579d"/>
        <path id="Path_907" data-name="Path 907" d="M47.1,58.392,40.156,45.64a1.732,1.732,0,0,0-2.969,0L30.245,58.392A1.734,1.734,0,0,0,31.73,61H45.614A1.734,1.734,0,0,0,47.1,58.392Z" transform="translate(-28.851 -28.849)" fill="#fff"/>
        <g id="Group_537" data-name="Group 537" transform="translate(8.67 19.496)">
          <path id="Path_909" data-name="Path 909" d="M227.151,379.5a1.151,1.151,0,1,1,1.151-1.151A1.152,1.152,0,0,1,227.151,379.5Z" transform="translate(-226 -367.993)" fill="#d4579d"/>
          <path id="Path_910" data-name="Path 910" d="M228.3,144.105a1.151,1.151,0,1,1-2.3,0v-5.754a1.151,1.151,0,1,1,2.3,0Z" transform="translate(-226 -137.2)" fill="#d4579d"/>
        </g>
        <g id="Group_538" data-name="Group 538" transform="translate(9.821 19.496)">
          <path id="Path_911" data-name="Path 911" d="M257.151,378.351A1.152,1.152,0,0,0,256,377.2v2.3A1.152,1.152,0,0,0,257.151,378.351Z" transform="translate(-256 -367.993)" fill="#ae3679"/>
          <path id="Path_912" data-name="Path 912" d="M257.151,144.105v-5.754A1.152,1.152,0,0,0,256,137.2v8.056A1.152,1.152,0,0,0,257.151,144.105Z" transform="translate(-256 -137.2)" fill="#ae3679"/>
        </g>
      </g>
    </g>
  </g>
</svg>
