<svg xmlns="http://www.w3.org/2000/svg" xmlns:xlink="http://www.w3.org/1999/xlink" width="83.998" height="85.005" viewBox="0 0 83.998 85.005">
  <defs>
    <linearGradient id="linear-gradient" x1="0.5" x2="0.5" y2="1" gradientUnits="objectBoundingBox">
      <stop offset="0" stop-color="#0020c9"/>
      <stop offset="1" stop-color="#04146a"/>
    </linearGradient>
  </defs>
  <g id="Group_890" data-name="Group 890" transform="translate(-781 -1092)">
    <path id="Forma_1" data-name="Forma 1" d="M1128.64,1747.07l1.52,2.35a17.085,17.085,0,0,1,18.08,0l1.51-2.35a19.653,19.653,0,0,0-21.11,0Zm-6.24,16.43h-2.8a19.37,19.37,0,0,0,1.51,7.51l2.58-1.07A16.748,16.748,0,0,1,1122.4,1763.5Zm23.26,15.44a16.849,16.849,0,0,1-6.46,1.29v2.78a19.326,19.326,0,0,0,7.54-1.5ZM1156,1763.5a16.664,16.664,0,0,1-1.29,6.431l2.58,1.079a19.37,19.37,0,0,0,1.51-7.51Zm-16.8-13.93a13.935,13.935,0,1,0,14,13.93,13.935,13.935,0,0,0-14-13.93Zm0,25.08a11.145,11.145,0,1,1,11.2-11.15,11.145,11.145,0,0,1-11.2,11.15Zm3.08-11.59-1.68-.56v-3.57a2.085,2.085,0,0,1,1.4,1.79h2.8a5.058,5.058,0,0,0-4.2-4.71v-.87h-2.8v.87a5.048,5.048,0,0,0-4.2,4.71,3.5,3.5,0,0,0,2.52,3.23l1.68.56v3.57a2.085,2.085,0,0,1-1.4-1.79h-2.8a5.057,5.057,0,0,0,4.2,4.71v.86h2.8V1771a5.067,5.067,0,0,0,4.2-4.71,3.518,3.518,0,0,0-2.52-3.23Zm-4.48-1.49-.8-.26a.775.775,0,0,1-.6-.59,2.085,2.085,0,0,1,1.4-1.79Zm2.8,6.51v-2.65l.8.27a.776.776,0,0,1,.6.59,2.085,2.085,0,0,1-1.4,1.79Zm35.99,33.46-4.61-4.59,4.61-4.59a1.4,1.4,0,0,0,0-1.97l-18.2-18.12a1.412,1.412,0,0,0-1.98,0l-17.91,17.83-19.31-19.22a1.412,1.412,0,0,0-1.98,0l-18.2,18.12a1.382,1.382,0,0,0,0,1.97l10.21,10.16H1093v2.79h18.2a1.3,1.3,0,0,0,.55-.12l9.54-4.06H1142v5.57h-15.4a1.394,1.394,0,0,0-.59,2.66l18.2,8.36a1.407,1.407,0,0,0,1.4-.14l24.25-17.42,3.68,3.67-27.86,23.77h-7.63l-26.37-9.67a1.514,1.514,0,0,0-.48-.08H1093v2.78h17.95l26.36,9.67a1.369,1.369,0,0,0,.49.09h8.4a1.389,1.389,0,0,0,.91-.34l29.4-25.08a1.383,1.383,0,0,0,.15-1.96.559.559,0,0,0-.07-.08Zm-55.59-4.59a1.459,1.459,0,0,0-.55.11l-.34.14a6.967,6.967,0,0,1,12.88-.25Zm14.99,0a9.806,9.806,0,0,0-19.12,1.64l-4.37,1.86-10.52-10.47,16.22-16.14,23.22,23.11h-5.43Zm8.65,16.51-11.67-5.36h10.43a1.4,1.4,0,0,0,1.4-1.4v-6.39l7.6,7.57Zm.29-16.96a6.283,6.283,0,1,1,7.32,7.28Zm9.59,9.54a8.714,8.714,0,0,0,1.6-.84l-1.42,1.02Zm14.57-10.16-12.34,8.87a9.077,9.077,0,1,0-14.09-10.51l-2.18-2.17,16.92-16.84,16.22,16.14Z" transform="translate(-312 -651.995)" fill-rule="evenodd" fill="url(#linear-gradient)"/>
  </g>
</svg>
