<svg xmlns="http://www.w3.org/2000/svg" width="802" height="675">
  <defs>
    <clipPath id="a">
      <path data-name="Rectangle 892" transform="translate(-5344 18544)" fill="#fff" stroke="#707070" d="M0 0h802v675H0z"/>
    </clipPath>
    <clipPath id="c">
      <path data-name="Path 1696" d="M743.267 562.706h-84.152l-2.4-76.066 83.087 12z" transform="translate(-656.71 -486.64)" fill="none"/>
    </clipPath>
    <clipPath id="d">
      <ellipse data-name="Ellipse 59" cx="36.446" cy="24.156" rx="36.446" ry="24.156" transform="rotate(-60.46 54.416 31.709)" fill="#fdd053"/>
    </clipPath>
    <linearGradient id="b" x1=".5" x2=".5" y2="1" gradientUnits="objectBoundingBox">
      <stop offset="0" stop-color="#04146a"/>
      <stop offset="1" stop-color="#020a35"/>
    </linearGradient>
  </defs>
  <g data-name="Mask Group 2" transform="translate(5344 -18544)" clip-path="url(#a)">
    <g transform="translate(-2721.777 19370.316)">
      <path data-name="Path 1657" d="M1108.19 652.574q.1-43.525.161-87.05c.08-52.883.16-105.777-1.913-158.614-1.237-31.59-3.436-63.821-15.44-93.063-1.787-4.33-3.837-8.671-7.17-11.958s-7.846-5.372-12.3-7.067c-26.607-10.137-55.723-10.961-84.2-11.672l-176.578-4.364c-36.469-.9-75.894-.928-105.376 20.514-24.237 17.57-37.054 46.366-54.017 70.98-10.515 15.222-29.78 41.04-48.5 45.14-10.045 2.2-20.48 1.145-30.765 1.214a157.251 157.251 0 00-65.892 14.592c-25.187 11.637-48.416 32.472-53 59.835-3.241 19.575 3.436 40.089-1.764 59.274-5.979 21.888-25.989 36.721-45.587 48.106s-40.982 22.037-53.6 40.891c-7.594 11.339-12.233 26.837-14.191 40.283-2.291 15.772 2.188 30.926-4.925 46.24-4.833 10.39-13.483 18.476-22.333 25.745-13.458 11.03-28.051 20.938-39.39 34.144s-19.231 30.742-16.035 47.854c2.485 13.47 11.729 25.2 23.492 32.22 14.317 8.533 33.216 10.606 49 16.036 21.247 7.25 45.449 8.121 67.67 9.026 89.65 3.654 179.369-5.807 268.984-.309 41.738 2.554 82.056 5.475 123.13 13.344 45.38 8.694 90.555 18.475 135.706 28.28 30.181 6.552 60.889 13.4 91.632 10.664s62.195-16.711 78.1-43.181C1106.479 877.4 1107.143 850 1107.36 824q.71-85.7.83-171.426z" transform="translate(-2876.882 -1104.82)" opacity=".79" fill="url(#b)"/>
      <path data-name="Path 1658" d="M-1878.711-567.781c.286-1.707-1.982-5.166-4.456-5.108-.985 0-1.947.275-2.932.229-2.612-.126-3.974-2.165-4.982-3.849s-3.012-3.608-5.566-3.184c-3.677.619-5.521 5.464-9.69 1.821-2.726-2.382-2.932-5.727-6.025-8.018a10.09 10.09 0 00-8.418-1.649c-3.711 1.145-5.1 4.822-9.049 5.464-4.387.71-7.537-2.623-8.934-5.028-1.7-2.921-2.291-6.071-3.78-9.037-1.34-2.749-4.055-6.426-8.9-6.346-4.1.069-5.91 2.657-7.914 4.719-2.623 2.68-8.018 12.3-14.157 11.145-2.382-.447-3.562-2.291-5.727-3.184-3.436-1.363-7.846.5-9.931 2.863s-2.9 5.189-5.246 7.411a5.429 5.429 0 01-2.291 1.374c-3.276.893-6.334-1.867-9.85-2.073a8.189 8.189 0 00-6.07 2.382 30.174 30.174 0 00-3.219 4.582 3.435 3.435 0 01-1.146 1.145c-1.546.825-3.711.126-5.6-.195-4.662-.8-9.965 1.34-11.282 4.582z" fill="#fff"/>
      <path data-name="Path 1659" d="M-2361.37-409.487h.206a14.891 14.891 0 0114.97 6.872c2.829 4.582 2.829 11.213 1.065 16.242-.676 1.936-1.7 3.837-1.661 5.887 0 2.852 2.1 5.3 4.4 6.975s4.971 2.852 7.147 4.685c3.5 2.955 5.4 9.633 2.875 13.745-4.765 7.743-14 11.568-18.166 20.044-2.291 4.708-3.894 10.641-8.785 12.6-4.673 1.81-9.759-1.145-13.676-4.318s-8.19-6.781-13.2-6.4c-3.241.241-6.071 2.153-8.865 3.814-3.562 2.119-7.514 3.94-11.66 3.814s-8.453-2.715-9.358-6.758c-1.088-4.845 2.8-10.217.55-14.65-3.322-6.563-13.882-7.674-7.445-17.341 1.844-2.772 5.395-3.436 6.437-7.1 1.523-5.452-3.975-10.938-2.726-16.459 1.145-5.154 7.434-7.4 10-12.027 2.863-5.143.916-12.771 5.589-16.356 3.127-2.394 7.72-1.512 11.087.516s6.116 4.994 9.541 6.93a18.923 18.923 0 0013.939 1.833c2.628-.784 5.09-2.033 7.736-2.548z" fill="#30ee89"/>
      <path data-name="Line 153" fill="none" stroke="#f5f5fe" stroke-miterlimit="10" stroke-width="3" d="M-2402.054-384.942l23.171 16.402"/>
      <path data-name="Line 154" fill="none" stroke="#f5f5fe" stroke-miterlimit="10" stroke-width="3" d="M-2393.257-387.084l2.039 9.816"/>
      <path data-name="Line 155" fill="none" stroke="#f5f5fe" stroke-miterlimit="10" stroke-width="3" d="M-2400.817-372.159l15.646-.836"/>
      <path data-name="Line 156" fill="none" stroke="#f5f5fe" stroke-miterlimit="10" stroke-width="3" d="M-2410.576-357.979l33.205 13.939"/>
      <path data-name="Line 157" fill="none" stroke="#f5f5fe" stroke-miterlimit="10" stroke-width="3" d="M-2393.968-361.69l3.493 12.153"/>
      <path data-name="Line 158" fill="none" stroke="#f5f5fe" stroke-miterlimit="10" stroke-width="3" d="M-2405.307-346.044l7.789-6.449"/>
      <path data-name="Line 159" fill="none" stroke="#f5f5fe" stroke-miterlimit="10" stroke-width="3" d="M-2378.115-357.819l23.916-17.192"/>
      <path data-name="Line 160" fill="none" stroke="#f5f5fe" stroke-miterlimit="10" stroke-width="3" d="M-2360.705-387.553l-5.452 21.144"/>
      <path data-name="Line 161" fill="none" stroke="#f5f5fe" stroke-miterlimit="10" stroke-width="3" d="M-2369.994-363.66l17.811 2.589"/>
      <path data-name="Line 162" fill="none" stroke="#f5f5fe" stroke-miterlimit="10" stroke-width="3" d="M-2378.115-391.276v122.042"/>
      <path data-name="Path 1660" d="M-2444.296-370.773h.15a10.812 10.812 0 0110.835 4.971c2.05 3.356 2.05 8.121.767 11.763a12.8 12.8 0 00-1.2 4.261 6.781 6.781 0 003.184 5.051c1.672 1.214 3.6 2.062 5.177 3.436 2.543 2.142 3.906 6.976 2.073 9.942-3.436 5.6-10.137 8.373-13.149 14.512-1.672 3.436-2.818 7.708-6.368 9.083s-7.067-.848-9.9-3.127-5.933-4.9-9.553-4.582c-2.291.172-4.4 1.558-6.414 2.76a16.034 16.034 0 01-8.442 2.76c-3-.092-6.116-1.97-6.781-4.891-.779-3.516 2.027-7.388.4-10.606-2.4-4.753-10.045-5.555-5.395-12.6 1.34-2 3.906-2.451 4.662-5.143 1.145-3.94-2.875-7.926-1.97-11.912.848-3.734 5.383-5.36 7.239-8.7 2.073-3.723.664-9.243 4.043-11.843 2.291-1.73 5.59-1.145 8.018.366s4.421 3.62 6.872 5.017a13.745 13.745 0 0010.091 1.317c1.911-.563 3.702-1.457 5.661-1.835z" fill="#30ee89"/>
      <path data-name="Line 163" fill="none" stroke="#f5f5fe" stroke-miterlimit="10" stroke-width="3" d="M-2473.79-353.008l16.769 11.878"/>
      <path data-name="Line 164" fill="none" stroke="#f5f5fe" stroke-miterlimit="10" stroke-width="3" d="M-2467.422-354.554l1.478 7.101"/>
      <path data-name="Line 165" fill="none" stroke="#f5f5fe" stroke-miterlimit="10" stroke-width="3" d="M-2472.896-343.753l11.328-.596"/>
      <path data-name="Line 166" fill="none" stroke="#f5f5fe" stroke-miterlimit="10" stroke-width="3" d="M-2479.964-333.479l24.042 10.091"/>
      <path data-name="Line 167" fill="none" stroke="#f5f5fe" stroke-miterlimit="10" stroke-width="3" d="M-2467.937-336.171l2.531 8.797"/>
      <path data-name="Line 168" fill="none" stroke="#f5f5fe" stroke-miterlimit="10" stroke-width="3" d="M-2476.15-324.843l5.635-4.673"/>
      <path data-name="Line 169" fill="none" stroke="#f5f5fe" stroke-miterlimit="10" stroke-width="3" d="M-2456.46-333.365l17.307-12.45"/>
      <path data-name="Line 170" fill="none" stroke="#f5f5fe" stroke-miterlimit="10" stroke-width="3" d="M-2443.861-354.898l-3.952 15.302"/>
      <path data-name="Line 171" fill="none" stroke="#f5f5fe" stroke-miterlimit="10" stroke-width="3" d="M-2450.584-337.603l12.886 1.878"/>
      <path data-name="Line 172" fill="none" stroke="#f5f5fe" stroke-miterlimit="10" stroke-width="3" d="M-2456.46-357.59v88.356"/>
      <path data-name="Path 1661" d="M-2401.035-279.359a27.84 27.84 0 009.85 2.6c13.321.458 22.885-14.432 36.229-14.329 10.057.069 22.2 12.874 31.418 7.594 4.33-2.474 7.686-11.316 11.454-14.993 4.478-4.364 9.7-8.018 16.035-9.553 24.179-5.91 46.331 20.113 71.129 17.112 12.13-1.466 22.037-9.736 29.574-18.693 4.307-5.108 8.155-10.606 13.252-15.051s11.786-7.789 18.762-7.388c13.424.779 21.35 14.065 32.655 20.835a36.951 36.951 0 0031.521 2.634c6.036-2.291 11.213-6.22 16.894-9.232 13.367-7.09 31.12-8.819 43.766-.664 12.072 7.789 19.85 30.765 36.16 30.8 15.073 0 24.34-19.4 39.379-18.418 13.917.9 20.846 18.75 34.717 20.193 16.127 1.684 30.926-19.918 44.67-12.015 7.514 4.3 9.163 15.7 17.834 17.41s15.257-8.281 24.053-9.45c7.078-.928 13.745 4.364 16.265 10.583 19.38 47.339-81.323 51.944-108.572 51.944s-52.253-3.287-71.347-8.728c-29.6 18.475-88.75 31.074-156.919 31.074-68.46 0-127.837-12.714-157.3-31.326-19.208 5.59-44.5 8.98-72.217 8.98-22.553 0-45.518-1.97-67.3-7.628-12.531-3.253-39.218-8.888-38.714-24.9.286-9.163 8.945-16.677 18.464-19.128a36.045 36.045 0 0115.371-.538c10.171 1.867 21.362 7.892 29.918 2.463 3.322-2.108 5.429-5.647 8.946-7.491 7.72-3.929 15.692 1.695 24.053 5.303z" fill="#30ee89"/>
      <path data-name="Path 1662" d="M-2439.836-689.502c.286-1.73-2-5.212-4.49-5.154-1 0-1.959.275-2.955.229-2.634-.126-4.009-2.188-5.017-3.883s-3.047-3.642-5.612-3.207c-3.7.619-5.567 5.509-9.77 1.844-2.749-2.4-2.967-5.727-6.082-8.086a10.171 10.171 0 00-8.487-1.661c-3.745 1.145-5.143 4.868-9.163 5.509-4.421.71-7.594-2.646-9-5.074-1.707-2.944-2.291-6.116-3.814-9.163-1.352-2.772-4.089-6.483-8.968-6.4-4.135.069-5.956 2.68-8.018 4.765-2.634 2.7-8.121 12.4-14.272 11.236-2.394-.458-3.6-2.36-5.727-3.219-3.436-1.374-7.915.515-10.011 2.886s-2.921 5.234-5.292 7.479a5.474 5.474 0 01-2.291 1.386c-3.31.9-6.391-1.878-9.931-2.085a8.247 8.247 0 00-6.116 2.4 30.432 30.432 0 00-3.242 4.582 3.434 3.434 0 01-1.145 1.145c-1.558.836-3.734.126-5.647-.195-4.708-.813-10.045 1.352-11.374 4.582z" fill="#04146a" opacity=".8"/>
      <path data-name="Path 1663" d="M-2096.678-719.251c.188-1.136-1.316-3.423-2.949-3.385-.654 0-1.286.181-1.941.15-1.73-.083-2.633-1.437-3.3-2.55s-2-2.392-3.686-2.106c-2.43.406-3.656 3.618-6.417 1.211-1.8-1.58-1.948-3.761-3.994-5.311a6.68 6.68 0 00-5.574-1.091c-2.46.752-3.378 3.2-6.018 3.618-2.9.466-4.988-1.738-5.913-3.333-1.121-1.933-1.5-4.017-2.505-6.018-.888-1.82-2.686-4.258-5.89-4.2-2.716.045-3.912 1.76-5.266 3.129-1.73 1.775-5.334 8.147-9.373 7.38-1.572-.3-2.362-1.55-3.761-2.114-2.257-.9-5.2.339-6.575 1.9s-1.918 3.438-3.475 4.912a3.6 3.6 0 01-1.5.91c-2.174.594-4.2-1.234-6.522-1.369a5.416 5.416 0 00-4.017 1.58 19.99 19.99 0 00-2.129 3.009 2.255 2.255 0 01-.752.752c-1.023.549-2.452.083-3.709-.128-3.092-.534-6.6.888-7.47 3.009z" fill="#fff"/>
      <path data-name="Rectangle 864" fill="#fff" d="M-1770.6-160.322h-851.399v-79.582h851.399z"/>
      <path data-name="Path 1664" d="M-2191.474-511.542c0-1.145.332-7.3.641-7.3h-4.765a15.507 15.507 0 00-.218 3.814c0 1.26.206 2.485.206 3.745a38.974 38.974 0 014.123-.137.911.911 0 00.013-.122z" fill="#a58058"/>
      <path data-name="Path 1665" d="M-2180.993-508.816c.218 0-.172-1.878-.206-2.027a3.769 3.769 0 00-2.142-2.749 7.892 7.892 0 00-3.2-.481 55.829 55.829 0 00-8.865 1.145 1.066 1.066 0 00-.962.779 10.376 10.376 0 00-.218 3.367c.004.115 12.478.035 15.593-.034z"/>
      <path data-name="Path 1666" d="M-2188.541-537.096q.1-.962.206-1.913c.172-1.512.344-3.024.447-4.582.138-2.016.138-4.032.149-6.048 0-4.582 0-9.072-.126-13.6-.138-4.055 0-8.545-1.031-12.485-.447-1.752-1.718-4.135-3.562-4.753a5.463 5.463 0 00-1.844-.172l-5.234.092a4.581 4.581 0 00-2.99.767c-1.821 1.6.2 6.723.619 8.693.607 2.818.344 5.876 1.077 8.591.79 2.944 2.165 5.647 2.737 8.671 1.271 6.678 1.031 13.516.894 20.273 0 1.443.47 17.6.47 17.6l6.781-.332s.069-2.107.092-2.863c0-1.352.126-2.7.206-4.055q.388-6.924 1.109-13.884z" fill="#018840"/>
      <path data-name="Path 1667" d="M-2209.857-512.252c0-1.145.332-7.216.641-7.216h-4.719a15.349 15.349 0 00-.217 3.78c0 1.237.206 2.451.206 3.711a38.545 38.545 0 014.089-.138z" fill="#a58058"/>
      <path data-name="Path 1668" d="M-2206.058-536.11c.286-3.78.618-7.571 1.2-11.316a122.479 122.479 0 013.516-14.672 37.545 37.545 0 001.26-5.223 36.337 36.337 0 00.263-3.631l.183-4.856a18.015 18.015 0 00-.435-5.956c-1.042-3.436-3.608-4.582-6.987-4.227-5.922.641-5.9 7.376-6.414 11.82a139.089 139.089 0 00-.9 15.371q0 3.849.137 7.7a48.18 48.18 0 01-.985 9.072 47.43 47.43 0 00-.3 7.113c0 6.38.183 19.128.183 19.128l7.17.137c.309-4.089 1.065-8.132 1.455-12.21.28-2.775.475-5.524.654-8.25z" fill="#02a951"/>
      <path data-name="Path 1669" d="M-2199.423-508.816c.218 0-.172-1.878-.206-2.027a3.769 3.769 0 00-2.142-2.749 7.892 7.892 0 00-3.2-.481 55.827 55.827 0 00-8.865 1.145 1.066 1.066 0 00-.962.779 10.377 10.377 0 00-.218 3.367c.004.115 12.478.035 15.593-.034z"/>
      <path data-name="Path 1670" d="M-2199.893-614.387a.468.468 0 01-.092.218.458.458 0 01-.263.115 17.09 17.09 0 01-6.323-.47q.848-3.642 1.879-7.239a.355.355 0 01.1-.2.344.344 0 01.263 0q1.6.286 3.207.607c.9.183 1.81.286 2.7.492a33.654 33.654 0 00-.79 3.322q-.314 1.575-.681 3.155z" fill="#a58058"/>
      <path data-name="Path 1671" d="M-2189.102-576.787q-6.208.4-12.439.492c-.893 0-11.569 0-11.569-.092 0-3.963.2-7.915.126-11.889-.08-4.284-.309-8.556-.55-12.828a34.98 34.98 0 01.424-9.369 6.7 6.7 0 012.417-4.135c1.546-1.065 3.608-.985 5.4-1.065a25.91 25.91 0 016.964.47c4.249.985 6.345 5.2 7.411 9.06a64.134 64.134 0 011.73 15.406v7.136q.074 3.427.086 6.814z" fill="#00599a"/>
      <path data-name="Path 1672" d="M-2183.776-580.609l-16.242.619 2.508-29.253h19.036z" fill="#fff"/>
      <path data-name="Path 1673" d="M-2180.168-590.311a13.969 13.969 0 01-.114 2.291 2.222 2.222 0 01-1.306 1.787 4.34 4.34 0 01-1.145.241 2.715 2.715 0 01-1.546-.137 2.886 2.886 0 01-1.535-3.219 2.383 2.383 0 01.481-1.375 4.341 4.341 0 013.436-1.054h.115l.252-1.145a3.138 3.138 0 011.036.93 3.436 3.436 0 01.252 1.443.389.389 0 01.074.238z" fill="#a58058"/>
      <path data-name="Path 1674" d="M-2209.49-606.174c-.756 2.9-1.649 5.727-2.463 8.625-.08.263-.607 2.886-.687 2.9l.825-.137a34.665 34.665 0 003.608-.779c1.626-.458 3.242-.962 4.9-1.294a2.738 2.738 0 011.386 0 1.432 1.432 0 01.962 1.306 1.89 1.89 0 01-.779 1.432 5.588 5.588 0 01-1.512.756l-8.533 3.23a19.217 19.217 0 01-4.822 1.363c-2.749.275-2.2-3.894-2-5.578a69.65 69.65 0 013.435-15.681 9.425 9.425 0 011.97-3.287c.848-.871 2.4-1.615 3.562-.871 1.512.962 1.306 3.184 1 4.7-.245 1.092-.52 2.169-.852 3.315z" fill="#a58058"/>
      <path data-name="Path 1675" d="M-2195.585-598.363a4.58 4.58 0 00.951-.3 5.266 5.266 0 011.237-.492 1.031 1.031 0 011.145.5 1.416 1.416 0 01.08.458 7.853 7.853 0 01-.08 2.142 2.647 2.647 0 01-1.145 1.741 3.175 3.175 0 01-.687.275 8.361 8.361 0 01-2.84.332 18.894 18.894 0 01-2.749-.573 10.094 10.094 0 00-2.291.355 17.169 17.169 0 00-.481-2.291l-.332-.7a5.231 5.231 0 001.145-.676 13.122 13.122 0 011.535-1.466 7.684 7.684 0 011.821-.813 8.59 8.59 0 00-.057 1.226 4.582 4.582 0 002.748.282z" fill="#a58058"/>
      <path data-name="Path 1676" d="M-2194.603-616.197a5.383 5.383 0 01-2.68.653 5.955 5.955 0 01-3.894-1.844 14.418 14.418 0 01-3.173-5.968c-.756-2.554-.825-5.532.79-7.777a8.75 8.75 0 015.4-3.264 11.133 11.133 0 015.727.309l.47.172a7.01 7.01 0 013.528 2.829c.951 1.661.538 3.917.1 5.727a17.175 17.175 0 01-2.531 5.372 10.619 10.619 0 01-3.732 3.791z" fill="#a58058"/>
      <path data-name="Path 1677" d="M-2200.946-638.051a13.37 13.37 0 012.062-.6 10.8 10.8 0 015.234.286 12.209 12.209 0 016.54 4.3 7.193 7.193 0 01.848 5.853 1.9 1.9 0 01-.825 1.237c-.241.16-1.02.424-1.145.733a4.147 4.147 0 00-.286-2.726 21.586 21.586 0 00-1.294-2 2.841 2.841 0 01-.47-1.8 3.963 3.963 0 01-2.394 2.612 16.189 16.189 0 01-3.047.206 9.988 9.988 0 00-5.406 2.5.6.6 0 01-.355.172.436.436 0 01-.367-.309 2.489 2.489 0 01-.08-.5 1.145 1.145 0 00-.412-.756c-.894-.641-1.386.607-1.5 1.248a5.727 5.727 0 00.092 2.944 10.314 10.314 0 01.481 1.672c0 .321.183 1.145-.057 1.432s-.561.1-.825 0a5.3 5.3 0 01-2.291-2.863 11.214 11.214 0 01.939-9.06 9.45 9.45 0 014.558-4.581z" fill="#cb7c29"/>
      <path data-name="Path 1678" d="M-2205.917-634.282c3.253 2.142 9.61-1.019 9.163-5.051-.367-3.161-4.582-4.856-7.308-4.146a5.212 5.212 0 00-2.291 8.8 3.648 3.648 0 00.435.4z" fill="#cb7c29"/>
      <path data-name="Path 1679" d="M-2038.965-369.719h151.032a6.872 6.872 0 016.872 6.872v87.508a6.872 6.872 0 01-6.872 6.872h-157.904v-94.382a6.872 6.872 0 016.872-6.87z" fill="#00a3d5"/>
      <path data-name="Path 1680" d="M-1887.949-366.101h-151.553a2.486 2.486 0 100 4.96h143.289v92.674h10.744v-95.148a2.486 2.486 0 00-2.474-2.485z" fill="#303672" opacity=".2"/>
      <path data-name="Path 1681" d="M-2045.837-361.14h149.634a6.872 6.872 0 016.872 6.872v87.508a6.872 6.872 0 01-6.872 6.872h-149.634z" fill="#6dc9f0"/>
      <path data-name="Path 1682" d="M-1925.158-325.152h48v29.276h-48a6.872 6.872 0 01-6.872-6.872v-15.532a6.872 6.872 0 016.872-6.872z" fill="#00a3d5"/>
      <circle data-name="Ellipse 55" cx="8.579" cy="8.579" r="8.579" transform="translate(-1926.005 -319.093)" fill="#381f7a"/>
      <path data-name="Rectangle 865" fill="#009747" d="M-2307.307-285.579h201.383v24.97h-201.383z"/>
      <path data-name="Path 1683" d="M-2242.855-494.304l-59.263 102.64h118.525z" fill="#e6af3a"/>
      <path data-name="Rectangle 866" fill="#e6af3a" d="M-2302.118-392.902h118.525v107.381h-118.525z"/>
      <path data-name="Rectangle 867" fill="#009747" d="M-2188.404-285.579h201.383v24.97h-201.383z"/>
      <path data-name="Rectangle 868" fill="#ffc73c" d="M-2183.593-391.665h191.762v106.144h-191.762z"/>
      <path data-name="Rectangle 869" fill="#381f7a" d="M-2105.935-363.122h36.424v80.647h-36.424z"/>
      <path data-name="Rectangle 870" fill="#6dc9f0" stroke="#fff" stroke-miterlimit="10" stroke-width="5" d="M-2162.976-363.122h36.424v49.023h-36.424z"/>
      <path data-name="Rectangle 871" fill="#303672" opacity=".2" d="M-2167.099-312.484h44.67v9.621h-44.67z"/>
      <path data-name="Line 173" fill="none" stroke="#fff" stroke-miterlimit="10" stroke-width="5" d="M-2144.764-363.122v49.034"/>
      <path data-name="Path 1684" d="M-2162.976-350.523l12.6-12.6h19.472l-31.728 31.727z" fill="#fff" opacity=".2"/>
      <path data-name="Rectangle 872" fill="#6dc9f0" stroke="#fff" stroke-miterlimit="10" stroke-width="5" d="M-2261.067-363.122h36.424v49.023h-36.424z"/>
      <path data-name="Rectangle 873" fill="#303672" opacity=".2" d="M-2265.191-312.484h44.67v9.621h-44.67z"/>
      <path data-name="Line 174" fill="none" stroke="#fff" stroke-miterlimit="10" stroke-width="5" d="M-2242.856-363.122v49.034"/>
      <path data-name="Path 1685" d="M-2261.068-350.523l12.6-12.6h19.47l-31.727 31.727z" fill="#fff" opacity=".2"/>
      <path data-name="Rectangle 874" fill="#6dc9f0" stroke="#fff" stroke-miterlimit="10" stroke-width="5" d="M-2048.654-363.122h36.424v49.023h-36.424z"/>
      <path data-name="Rectangle 875" fill="#303672" opacity=".2" d="M-2052.777-312.484h44.67v9.621h-44.67z"/>
      <path data-name="Line 175" fill="none" stroke="#fff" stroke-miterlimit="10" stroke-width="5" d="M-2030.442-363.122v49.034"/>
      <path data-name="Path 1686" d="M-2048.654-350.523l12.6-12.6h19.472l-31.728 31.727z" fill="#fff" opacity=".2"/>
      <path data-name="Rectangle 876" fill="#9b87ff" d="M-2099.292-352.378h23.137v23.137h-23.137z"/>
      <path data-name="Rectangle 877" fill="#9b87ff" d="M-2099.292-321.086h23.137v23.137h-23.137z"/>
      <path data-name="Rectangle 878" fill="#0e6738" d="M-2111.433-285.579h47.419v12.531h-47.419z"/>
      <path data-name="Rectangle 879" fill="#0e6738" d="M-2116.931-273.14h58.415v12.531h-58.415z"/>
      <path data-name="Rectangle 880" opacity=".2" d="M-2183.593-391.665h191.762v7.021h-191.762z"/>
      <path data-name="Path 1687" d="M-2242.856-435.602h0a18.212 18.212 0 0118.212 18.212v18.212h-36.424v-18.212a18.212 18.212 0 0118.212-18.212z" fill="#6dc9f0" stroke="#fff" stroke-miterlimit="10" stroke-width="5"/>
      <path data-name="Rectangle 881" fill="#303672" opacity=".2" d="M-2265.191-397.713h44.67v9.621h-44.67z"/>
      <path data-name="Line 176" fill="none" stroke="#fff" stroke-miterlimit="10" stroke-width="5" d="M-2242.856-435.602v36.424"/>
      <path data-name="Path 1688" d="M-2259.737-424.4a18.1 18.1 0 00-1.329 5.429l.275 15.1 28.394-28.383a18.119 18.119 0 00-10.515-3.345 18.155 18.155 0 00-7.01 1.4z" fill="#fff" opacity=".2"/>
      <path data-name="Path 1689" d="M-2051.346-508.759h-191.51l59.263 117.094h199.848z" fill="#9b87ff"/>
      <path data-name="Path 1690" d="M-2302.118-391.665l59.263-102.639v-14.455l-67.613 117.094z" fill="#fff"/>
      <path data-name="Path 1691" d="M-2183.593-391.665l-59.263-102.639v-14.455l67.6 117.094z" fill="#fff"/>
      <path data-name="Line 177" fill="none" stroke="#381f7a" stroke-miterlimit="10" d="M-2232.41-508.759l67.601 117.094"/>
      <path data-name="Line 178" fill="none" stroke="#381f7a" stroke-miterlimit="10" d="M-2216.947-508.759l67.613 117.094"/>
      <path data-name="Line 179" fill="none" stroke="#381f7a" stroke-miterlimit="10" d="M-2201.484-508.759l67.613 117.094"/>
      <path data-name="Line 180" fill="none" stroke="#381f7a" stroke-miterlimit="10" d="M-2186.01-508.759l67.601 117.094"/>
      <path data-name="Line 181" fill="none" stroke="#381f7a" stroke-miterlimit="10" d="M-2170.547-508.759l67.601 117.094"/>
      <path data-name="Line 182" fill="none" stroke="#381f7a" stroke-miterlimit="10" d="M-2155.084-508.759l67.613 117.094"/>
      <path data-name="Line 183" fill="none" stroke="#381f7a" stroke-miterlimit="10" d="M-2139.621-508.759l67.613 117.094"/>
      <path data-name="Line 184" fill="none" stroke="#381f7a" stroke-miterlimit="10" d="M-2124.147-508.759l67.601 117.094"/>
      <path data-name="Line 185" fill="none" stroke="#381f7a" stroke-miterlimit="10" d="M-2108.684-508.759l67.613 117.094"/>
      <path data-name="Line 186" fill="none" stroke="#381f7a" stroke-miterlimit="10" d="M-2093.221-508.759l67.613 117.094"/>
      <path data-name="Line 187" fill="none" stroke="#381f7a" stroke-miterlimit="10" d="M-2077.747-508.759l67.601 117.094"/>
      <path data-name="Line 188" fill="none" stroke="#381f7a" stroke-miterlimit="10" d="M-2062.284-508.759l67.613 117.094"/>
      <path data-name="Path 1692" d="M-2071.929-471.774h-88.94l-6.116-10.7h88.94z" fill="#8b018d"/>
      <path data-name="Path 1693" d="M-2075.158-473.252h-84.152l-4.433-7.754h84.152z"/>
      <g data-name="Group 812" transform="translate(-2161.716 -549.317)" clip-path="url(#c)">
        <circle data-name="Ellipse 56" cx="36.446" cy="36.446" r="36.446" transform="rotate(-69.98 51.8377 41.8575)" fill="#e5a535"/>
        <circle data-name="Ellipse 57" cx="32.804" cy="32.804" r="32.804" transform="rotate(-69.98 52.6178 37.4342)" fill="#fdd053"/>
        <path data-name="Path 1694" d="M30.753 50.535a32.8 32.8 0 0131.43-21.568 32.8 32.8 0 10-21.224 58.255 32.8 32.8 0 01-10.206-36.687z" fill="#f4c34b"/>
        <path data-name="Path 1695" d="M32.323 74.036l1.775-4.879a15 15 0 01-6.62-4.822l2.291-2.806a13.744 13.744 0 006.2 4.582c3.436 1.248 6.472.115 7.468-2.646s-.321-4.982-3.367-7.731c-4.215-3.734-6.46-7.067-4.925-11.259 1.466-4.009 5.418-6.013 10.125-5.12l1.775-4.879 3 1.145-1.6 4.662a13.744 13.744 0 015.658 3.974l-2.371 2.749a12.425 12.425 0 00-5.486-3.86c-3.722-1.352-5.933.355-6.632 2.291-.916 2.508.412 4.421 3.986 7.686 4.238 3.837 5.83 7.262 4.261 11.568-1.386 3.814-5.349 6.426-10.629 5.429L35.4 75.148z" fill="#e5a535"/>
      </g>
      <ellipse data-name="Ellipse 58" cx="36.446" cy="24.156" rx="36.446" ry="24.156" transform="rotate(-60.46 -1592.1544 1542.414)" fill="#fdd053"/>
      <g data-name="Group 813" transform="translate(-2149.091 -666.655)" clip-path="url(#d)" fill="#e5a535">
        <path data-name="Rectangle 882" d="M50.335 31.844l24.9795 14.3482-7.1141 12.3852-24.9795-14.3482z"/>
        <path data-name="Rectangle 883" d="M37.128 54.892l24.9795 14.3482-4.7806 8.3227-24.9795-14.3482z"/>
      </g>
      <path data-name="Rectangle 884" fill="#fdd053" d="M-2099.226-656.369l8.4602 4.8595-36.4198 63.4054-8.4601-4.8595z"/>
      <ellipse data-name="Ellipse 60" cx="36.446" cy="24.156" rx="36.446" ry="24.156" transform="rotate(-60.46 -1600.1995 1547.0442)" fill="#e5a535"/>
      <ellipse data-name="Ellipse 61" cx="32.804" cy="21.74" rx="32.804" ry="21.74" transform="rotate(-60.46 -1599.947 1542.711)" fill="#fdd053"/>
      <path data-name="Path 1697" d="M-2134.788-636.562c8.934-15.761 24.637-23.733 35.083-17.822l.447.275a14.725 14.725 0 00-3-2.291c-10.435-5.9-26.149 2.119-35.072 17.857-8.8 15.532-7.731 32.816 2.291 38.943-7.583-7.33-7.732-22.862.251-36.962z" fill="#f4c34b"/>
      <path data-name="Path 1698" d="M-2129.931-609.611l2.554-4.513a7.742 7.742 0 01-3.436-4.582l2.405-2.589a7.146 7.146 0 003.184 4.341c2.108 1.145 4.582.16 6.013-2.382s1.145-4.581-.332-7.216c-2-3.5-2.715-6.62-.5-10.515 2.108-3.711 5.452-5.544 8.556-4.662l2.566-4.524 1.844 1.042-2.463 4.341a6.986 6.986 0 012.967 3.745l-2.417 2.531a6.391 6.391 0 00-2.875-3.642c-2.291-1.294-4.307.275-5.326 2.073-1.317 2.291-.882 4.112.79 7.182a9.93 9.93 0 010 10.79c-2 3.528-5.509 5.922-8.991 4.948l-2.634 4.65z" fill="#e5a535"/>
      <path data-name="Rectangle 885" fill="#fdd053" d="M-2155.064-585.636l63.9692 34.5159-6.603 12.2373-63.969-34.516z"/>
      <path data-name="Rectangle 886" fill="#e5a535" d="M-2146.48-581.005l16.2592 8.773-6.603 12.2373-16.259-8.773z"/>
      <path data-name="Rectangle 887" fill="#e5a535" d="M-2104.299-558.246l8.8508 4.7756-6.6029 12.2373-8.8508-4.7756z"/>
      <path data-name="Rectangle 888" fill="#da9f2b" d="M-2160.88-574.859l63.9692 34.5159-.783 1.4512-63.9692-34.5159z"/>
      <path data-name="Path 1699" d="M-2140.11-512.252c0-8.338-2.9-11.236-11.236-11.236 8.339 0 11.236-2.9 11.236-11.236 0 8.339 2.9 11.236 11.236 11.236-8.342-.035-11.236 2.863-11.236 11.236z" fill="#fff"/>
      <path data-name="Path 1700" d="M-2155.107-574.392c0-8.339-2.9-11.236-11.236-11.236 8.339 0 11.236-2.9 11.236-11.236 0 8.338 2.9 11.236 11.236 11.236-8.349.014-11.236 2.912-11.236 11.236z" fill="#fff"/>
      <path data-name="Path 1701" d="M-2086.349-630.926c-5.9-5.9-9.988-5.9-15.887 0 5.9-5.9 5.9-9.988 0-15.887 5.9 5.9 9.988 5.9 15.887 0-5.899 5.899-5.899 9.999 0 15.887z" fill="#fff"/>
      <path data-name="Path 1702" d="M-2366.673-221.792c0-1.271.355-7.777.687-7.777h-5.086a16.541 16.541 0 00-.229 4.066c.057 1.34.218 2.646.229 4a41.562 41.562 0 014.4-.138s-.001-.082-.001-.151z" fill="#a58058"/>
      <path data-name="Path 1703" d="M-2354.394-247.529c1.271-2.623 2.486-5.269 3.551-8.018v-.137c3.745-9.679 6.093-19.815 8.224-29.952.607-2.9 1.145-5.143.241-8.018a9.7 9.7 0 00-3.94-5.326 14.375 14.375 0 00-10.308-2.05c-6.288 1.248-5.635 8.464-5.727 13.286a149.8 149.8 0 00.481 16.585q.344 4.135.87 8.258a7.879 7.879 0 010 3.436 12.757 12.757 0 01-1.478 3.1 75.913 75.913 0 00-6.437 13.745 72.218 72.218 0 00-4 14.512c0 .2-.229 2.394-.2 2.394l8.018-.092a.515.515 0 00.6-.389c2.291-5.028 4.582-9.977 7.044-14.89.942-2.149 2.019-4.29 3.061-6.444z" fill="#e6af3a"/>
      <path data-name="Path 1704" d="M-2355.494-218.848c.241 0-.183-2-.218-2.165a4.019 4.019 0 00-2.291-2.932 8.421 8.421 0 00-3.436-.516 59.6 59.6 0 00-9.461 1.146 1.146 1.146 0 00-1.031.825 11.077 11.077 0 00-.229 3.585c.024.183 13.345.092 16.666.057z"/>
      <path data-name="Path 1705" d="M-2327.89-222.605c-.218-1.248-1.2-7.7-.882-7.766l-4.982 1.02a16.548 16.548 0 00.584 4.032c.321 1.294.745 2.554 1.019 3.871a41.521 41.521 0 014.287-1.023z" fill="#a58058"/>
      <path data-name="Path 1706" d="M-2329.207-248.914a187.154 187.154 0 00-2.772-19.14 64.132 64.132 0 00-2.978-9.484c-1.455-4.078-2.944-8.155-4.582-12.187-1.833-4.49-3.619-9.621-8.8-11.019a14.375 14.375 0 00-10.492 1.145c-4.5 2.451-3.86 8.018-2.222 12.1a42.219 42.219 0 009.312 13.515c2.359 2.394 5.154 4.582 7.674 6.747 2.291 2.016 1.821 4.581 1.856 7.285.08 5.212 1.489 10.308 2.692 15.371l2.291 9.472 1.143 4.741c.3 1.237 1.02 4.123 1.02 4.123l8.7-1.329s-.767-4.02-.8-4.3q-.4-2.829-.767-5.727c-.481-3.7-.9-7.5-1.214-11.168z" fill="#ffc73c"/>
      <path data-name="Rectangle 889" fill="#00a3d5" d="M-2345.758-335.976h36.023v28.944h-36.023z"/>
      <path data-name="Rectangle 890" fill="#00599a" d="M-2345.758-335.976h29.7v28.944h-29.7z"/>
      <path data-name="Path 1707" d="M-2317.513-219.031c.24 0-.16-2-.183-2.176a4.02 4.02 0 00-2.291-2.967 8.421 8.421 0 00-3.436-.561 59.573 59.573 0 00-9.472 1.054 1.145 1.145 0 00-1.042.813 11.078 11.078 0 00-.286 3.585c.079.16 13.389.252 16.71.252z"/>
      <path data-name="Path 1708" d="M-2353.719-338.244c0 1.649.286 2.738-1.455 3.436a10.193 10.193 0 01-4.971.641 13.527 13.527 0 01-9.083-4.582c-3.116-3.94-1.466-9.621 2.153-12.6a10.525 10.525 0 011.352-.951c3.436-2 8.659-3.047 10.194 1.707a36.655 36.655 0 011.81 12.347z" fill="#a58058"/>
      <path data-name="Path 1709" d="M-2357.486-330.868a.5.5 0 010 .252.482.482 0 01-.252.183 18.231 18.231 0 01-6.678 1.019q0-3.986.229-8.018a.378.378 0 01.069-.229.367.367 0 01.263-.092q1.741-.08 3.436-.126c.985 0 1.947-.138 2.932-.138a35.938 35.938 0 000 3.642z" fill="#a58058"/>
      <path data-name="Path 1710" d="M-2340.341-292.795c-3.826 1.145-22.255 1.672-22.278 1.558-.607-2.818-.435-2.829-1.031-5.727-1.031-4.822-2.291-9.575-3.436-14.375-1.042-4.318-2.612-9.163-1.34-13.562a8.567 8.567 0 015.292-5.967 10.585 10.585 0 018.716.813 20.616 20.616 0 014.124 3.574c3.276 3.436 4.582 7.5 5.922 11.958s2.291 9.163 3.31 13.745a38.6 38.6 0 01.722 7.984z" fill="#6dc9f0"/>
      <path data-name="Path 1711" d="M-2327.832-303.916l-3.688.332a50.138 50.138 0 01-8.132.3c-1.764-.137-2.978 0-4.582-1.031s-2.76-2.291-4.169-3.356a74.314 74.314 0 01-12.416-11.786 4.742 4.742 0 01-1.214-2.119 4.238 4.238 0 01.893-3.012 2.5 2.5 0 011.042-.848 2.21 2.21 0 012 .516 59.138 59.138 0 018.942 7.774q1.718 1.821 3.436 3.654l1.707 1.867a9.055 9.055 0 002.99 1.878 3.666 3.666 0 001.271.206l18.624.733c.39 0-.653 2.646-.779 2.852a3.116 3.116 0 01-1.993 1.6c-1.275.165-2.592.31-3.932.44z" fill="#a58058"/>
      <path data-name="Path 1712" d="M-2370.361-356.478a9.759 9.759 0 011.145.286 2.04 2.04 0 113.986-.87 2.291 2.291 0 012.291-1.432 1.878 1.878 0 011.626 2c0-.286.939-.6 1.145-.676a3.206 3.206 0 011.466-.092 1.569 1.569 0 011.374 1.924 2.875 2.875 0 012.417 1.145 2.291 2.291 0 01-.286 2.5 5.315 5.315 0 01-4 1.775 2.291 2.291 0 00-1.065.2 1.409 1.409 0 00-.607 1.26 4.9 4.9 0 00.344 1.432 15.807 15.807 0 01.836 4.8 1.729 1.729 0 01-.149.847.641.641 0 01-.722.344 3.1 3.1 0 00-3.2-2.7c-2.291.172-1.569 2.726-.447 3.86a3.517 3.517 0 011.294 2.073 1.971 1.971 0 000 .733c.092.206.183.218.332.4a2.017 2.017 0 01.389 1.145 1 1 0 01-.344.859 1.145 1.145 0 01-.71.138 3.037 3.037 0 01-1.145-.252 1.467 1.467 0 01-.79-.882 1.993 1.993 0 01-3.436-.825 2.349 2.349 0 01-1.913.756 2 2 0 01-1.638-1.145 3.631 3.631 0 01-.069-1.856 2.346 2.346 0 01-2.726-2.955 4.332 4.332 0 01.745-1.34 4.489 4.489 0 01-2.589-1.97 2.291 2.291 0 010-1.833 2.85 2.85 0 011.26-1.363 1.432 1.432 0 01-.951-.825 2.518 2.518 0 01-.149-.962 3.93 3.93 0 01.126-1.145 2.428 2.428 0 012.291-1.7 3.2 3.2 0 011.523-3.161 3.253 3.253 0 012.337-.492z"/>
      <path data-name="Path 1713" d="M-2349.849-319.253l-6.082 6.689a73.177 73.177 0 01-5.922-5.223 12.758 12.758 0 01-3.127-4.776 4.5 4.5 0 011.145-4.4 5.086 5.086 0 014.586-1.545c2.68.527 4.307 3.276 5.9 5.234.249.31 3.548 3.975 3.5 4.021z" fill="#00a3d5"/>
      <path data-name="Path 1714" d="M-2314.615-307.478l2.291.5s-.813 1.283-.9 1.4a10.131 10.131 0 01-1.145 1.294 6.219 6.219 0 01-2.909 1.741 7.25 7.25 0 01-3.814-.641c-1.2-.492-2.291-1.146-3.539-1.649a25.583 25.583 0 011.867-3.253 8.21 8.21 0 012.027-2.291c.825-.733 1.5-1.626 2.359-2.291a1.9 1.9 0 011.443-.55.55.55 0 01.4.229.6.6 0 01.069.275 4.192 4.192 0 01-.79 2.039 11.788 11.788 0 01-1.558 1.878s1.844.79 2.039.836z" fill="#a58058"/>
      <path data-name="Path 1715" d="M-2319.276-341.451h-29.712l3.23 5.464h29.712z" fill="#00a3d5"/>
      <path data-name="Path 1716" d="M-2312.827-341.451h6.323l-3.23 5.464h-6.312z" fill="#00a3d5"/>
      <path data-name="Path 1717" d="M-2302.336-218.596a223 223 0 01-90.234 0 223 223 0 0190.234 0z" fill="#303672" opacity=".2"/>
      <path data-name="Path 1718" d="M-1911.872-400.783h-10.915v-39.2l5.693-5.681-5.693-5.689v-6.357l5.693-5.693-5.67-5.67 5.67-5.67-5.693-5.693v-3.791l5.693-5.693-5.693-5.693 10.915-10.423z" fill="#e6af3a"/>
      <circle data-name="Ellipse 62" cx="30.823" cy="30.823" r="30.823" transform="translate(-1942.705 -431.124)" fill="#ffc73c"/>
      <path data-name="Path 1719" d="M-1911.871-506.033v105.25h10.9v-94.827z" fill="#ffc73c"/>
      <circle data-name="Ellipse 63" cx="8.533" cy="8.533" r="8.533" transform="translate(-1920.416 -394.62)" fill="#e6af3a"/>
      <path data-name="Path 1720" d="M-2048.826-218.527a219.981 219.981 0 0089.02 0 219.983 219.983 0 00-89.02 0z" fill="#0e5280" opacity=".2"/>
      <path data-name="Path 1721" d="M-1993.286-221.322c-.378-1.145-2.417-7.3-2.737-7.2l4.833-1.363a16.316 16.316 0 011.306 3.8c.3 1.283.493 2.577.859 3.86a40.878 40.878 0 00-4.215 1.042z" fill="#a58058"/>
      <path data-name="Path 1722" d="M-2002.014-218.688h-.722a5.374 5.374 0 010-2.921 3.608 3.608 0 011.833-2.2 6.755 6.755 0 012.715-.412 8.438 8.438 0 002.531-.493c1.936-.63 4.021-.939 6.013-1.386a1.145 1.145 0 011.248.367 10.927 10.927 0 011.558 3.2c0 .1-3.3 1.42-3.505 1.512l-3.436 1.386a7.944 7.944 0 01-3.035.962z"/>
      <path data-name="Path 1723" d="M-2014.19-252.168a22.909 22.909 0 01-4.444-5.9c-4.788-10.057-6.231-22.828-6.414-33.881 0-2.566.664-3.7 2.852-5.063a13.585 13.585 0 0110.011-1.867c4.937 1.077 4.891 5.864 5.727 9.9 1.558 7.3-.206 15.165-1.363 22.37-.561 3.436.619 5.475 2.634 8.178a120.781 120.781 0 019.576 15.257c.607 1.145 7.056 13.745 6.38 14.065l-7.388 3.15a.275.275 0 01-.435-.126c-.813-1.443-1.775-2.795-2.577-4.25s-1.81-3.184-2.76-4.753q-2.864-4.7-6.116-9.163c-1.524-2.085-2.36-4.387-4.1-6.254z" fill="#00a3d5"/>
      <path data-name="Path 1724" d="M-2037.464-328.749a6.572 6.572 0 01-3.207-2.348c-3.86-4.444-8.327-8.3-12.255-12.6-1.2-1.317-2.806-.584-2.474 1.145.493 2.6 2.405 4.673 3.894 6.769 2.359 3.31 4.581 6.735 6.781 10.125a9.862 9.862 0 001.581 1.993c2.291 2.05 6.54 1.26 9.369 1.375 4.215.183 8.419.137 12.6.16 1.661 0 3.608.206 5.074-.733a2.978 2.978 0 00.241-4.994c-2.383-1.477-6.174-1.317-8.865-1.2-3.608.149-7.2.309-10.812.469a6.282 6.282 0 01-1.927-.161z" fill="#a58058"/>
      <path data-name="Path 1725" d="M-2019.114-340.844c-.355 1.581-.951 2.554.527 3.677a10.057 10.057 0 004.582 1.833 13.344 13.344 0 009.793-2.085c3.94-2.99 3.78-8.831 1.065-12.6a10.418 10.418 0 00-1.054-1.237c-2.738-2.749-7.525-5.04-10.16-.893a36.185 36.185 0 00-4.753 11.305z" fill="#a58058"/>
      <path data-name="Path 1726" d="M-2059.02-347.316q-.2.231-.378.481a1.527 1.527 0 00-.229.424 1.72 1.72 0 000 .87 4.935 4.935 0 001.615 2.852c.825.676 2.073.516 2.829 1.329a.389.389 0 00.2.149.355.355 0 00.206 0q1.145-.5 2.291-1.031a.493.493 0 00.321-.768 33.656 33.656 0 01-1.271-3.768 2.131 2.131 0 00-.676-1.145 1.891 1.891 0 00-.6-.218 4.862 4.862 0 01-.8-.493l-3.326-2.083a1.628 1.628 0 00-.745-.309.561.561 0 00-.607.435c0 .309.275.538.55.7a12.6 12.6 0 011.81 1.34.193.193 0 01.08.126.19.19 0 01-.114.149 6.1 6.1 0 00-1.156.96z" fill="#a58058"/>
      <path data-name="Path 1727" d="M-2009.894-221.666c0-1.248-.355-7.674-.676-7.674h4.96a16.321 16.321 0 01.229 4.02c-.057 1.317-.218 2.612-.218 3.952a40.937 40.937 0 00-4.341-.138.553.553 0 00.046-.16z" fill="#a58058"/>
      <path data-name="Path 1728" d="M-2013.548-246.933c-.447-3.333-.9-6.666-1.535-9.976a61.349 61.349 0 00-2.76-10.091 133.049 133.049 0 01-5.246-16.425 67.377 67.377 0 01-1.455-8.327c-.275-2.554.344-3.757 2.44-5.349a14.181 14.181 0 0110-2.909c6.288.687 6.265 7.834 6.872 12.6a147.738 147.738 0 01.962 16.333q0 4.089-.149 8.19c-.138 3.333.607 6.288 1.065 9.576a50.417 50.417 0 01.309 7.56c-.057 6.781-.195 20.331-.195 20.331l-7.628.149c-.4-5.36-1.145-10.7-1.89-16.036-.308-1.892-.549-3.759-.79-5.626z" fill="#6dc9f0"/>
      <path data-name="Path 1729" d="M-2020.924-218.768c-.229 0 .183-1.981.218-2.142a3.964 3.964 0 012.291-2.9 8.319 8.319 0 013.367-.5 58.718 58.718 0 019.335 1.145 1.146 1.146 0 011.02.813 10.935 10.935 0 01.229 3.539c.001.171-13.185.08-16.46.045z"/>
      <path data-name="Path 1730" d="M-2016.102-330.341a.492.492 0 000 .252.482.482 0 00.252.172 18 18 0 006.6 1.008q0-3.94-.229-7.869a.367.367 0 00-.069-.229.355.355 0 00-.263-.092q-1.718-.08-3.436-.126c-.962 0-1.924-.126-2.886-.137a35.465 35.465 0 010 3.6q.032 1.71.031 3.421z" fill="#a58058"/>
      <path data-name="Path 1731" d="M-2025.265-290.149q5.555.412 11.122.527c.79 0 10.308 0 10.308-.092 0-2.84-.149-5.67-.149-8.533 0-4.868.275-9.724.4-14.581.115-4.387.607-9.335-1.409-13.355a10.171 10.171 0 00-11.1-4.982c-3.917 1.031-6.242 5.051-7.2 8.957-1.947 7.823-1.947 16.9-1.959 24.924q-.002 3.562-.013 7.135z" fill="#26c972"/>
      <path data-name="Rectangle 891" fill="#fff" d="M-2047.194-293.737l14.5732-12.8268 18.9038 21.4777-14.5732 12.8268z"/>
      <path data-name="Path 1732" d="M-2023.089-291.311h-.492a4.1 4.1 0 00-1.2.183 1.225 1.225 0 00-.71.893c-.1.447-.138 1.077.263 1.363a5.727 5.727 0 004.673.939 8.132 8.132 0 00.8-.241c.5-.172.974-.412 1.477-.584a3.942 3.942 0 001-.653 5.084 5.084 0 001.833-1.913 3.057 3.057 0 00.1-1.386 5.489 5.489 0 00-.172-1.145.827.827 0 00-.149-.309.791.791 0 00-.447-.229 13.6 13.6 0 00-4.284.126 7.463 7.463 0 00-1.145.183c.275.3.55.6.8.9a1.258 1.258 0 01.332.6c.08.527-.618.745-.985.939a3.975 3.975 0 01-1.694.334z" fill="#a58058"/>
      <path data-name="Path 1733" d="M-2001.223-309.884c1.214 2.886 3 6.449 1.145 9.243a20 20 0 01-4.7 4.3 33.217 33.217 0 01-7.651 4.387c-1.065.435-6.483 2.291-5.727-.733a2.29 2.29 0 01.756-1.054q5.5-5.12 11.454-9.759a45.367 45.367 0 00-2.405-4.868c-1.936-4.055-5-8.018-4.582-12.783.149-1.5 1.02-3.94 2.955-3.539 1.615.332 2.5 2.039 3.322 3.287a54.663 54.663 0 015.12 10.583 4.5 4.5 0 00.313.936z" fill="#a58058"/>
      <path data-name="Path 1734" d="M-1999.104-351.439a13.344 13.344 0 00-7.33-5.223 8.981 8.981 0 00-4.822-.321 4.845 4.845 0 00-3.5 3.1 1.476 1.476 0 00.469 1.775 4.436 4.436 0 00.974.2 1.982 1.982 0 011.352 1.6c.217 1.145-.367 2.085-.092 3.15a5.018 5.018 0 00.813 1.81c.4.515.882.641 1.352 1.031a1.283 1.283 0 011.615-.561 1.924 1.924 0 011.077 1.466c.458 2.508-2.142 2.806-3.516 4.227a3.757 3.757 0 00-.607 4.375 5.6 5.6 0 001.615 8.8 4.914 4.914 0 00-.538 5.406 7.6 7.6 0 004.375 3.551 12.073 12.073 0 008.407-.355 7.867 7.867 0 003.5-2.531 6.231 6.231 0 00-.183-7.1 1.032 1.032 0 01-.252-.516 1.007 1.007 0 01.092-.412 9.863 9.863 0 00-3.024-10.95 15.451 15.451 0 00-1.782-12.517z"/>
      <path data-name="Path 1735" d="M-1975.705-459.564c.848-2.039 1.466-4.169 2.291-6.208 1.145-2.611 2.13-5.4 4.3-7.353 1.145-1.008 3.436-1.729 4.581-.332a3.654 3.654 0 01.447 2.783 27.911 27.911 0 01-.779 3.642 54.975 54.975 0 01-4.467 10.939c-.149.286-.3.6-.447.916-1.054 2.234-2.05 5.567-4.742 6.2a2.7 2.7 0 01-2.176-.344c-2.97-2.133-.061-7.654.992-10.243z" fill="#a58058"/>
      <path data-name="Path 1736" d="M-1965.235-371.816c0-1.145-.332-7.3-.641-7.3h4.765a15.516 15.516 0 01.217 3.814c0 1.26-.206 2.486-.206 3.746a38.877 38.877 0 00-4.123-.137.855.855 0 00-.012-.123z" fill="#a58058"/>
      <path data-name="Path 1737" d="M-1975.704-369.078c-.217 0 .172-1.878.206-2.027a3.769 3.769 0 012.142-2.749 7.894 7.894 0 013.2-.481 55.8 55.8 0 018.865 1.145 1.065 1.065 0 01.962.779 10.378 10.378 0 01.218 3.367c-.011.103-12.489.023-15.593-.034z"/>
      <path data-name="Path 1738" d="M-1966.587-501.314a6.059 6.059 0 00-2.852 5.475 10.447 10.447 0 001.317 5.36 9.868 9.868 0 001.936 1.947 1.534 1.534 0 00.962.458 1.306 1.306 0 00.9-.573 9.232 9.232 0 001.375-3.5 6.15 6.15 0 012.211-3.516 5.555 5.555 0 002.291-3.631 3.173 3.173 0 00-1.042-2.5 4.376 4.376 0 00-4.284-.779 11.845 11.845 0 00-2.814 1.259z" fill="#303672"/>
      <path data-name="Path 1739" d="M-1967.091-459.37l-8.235-3.551a72.531 72.531 0 012.989-7.239 12.657 12.657 0 013.436-4.467 4.466 4.466 0 014.478-.378 5.04 5.04 0 012.944 3.837c.355 2.6-1.145 5.36-2.508 7.457a44.324 44.324 0 01-3.104 4.341z" fill="#00599a"/>
      <path data-name="Path 1740" d="M-1968.158-397.358q-.1-.962-.206-1.913c-.172-1.512-.344-3.024-.447-4.582-.138-2.016-.138-4.032-.149-6.048 0-4.582 0-9.071.126-13.6.137-4.055 0-8.545 1.031-12.485.447-1.752 1.718-4.135 3.562-4.753a5.463 5.463 0 011.844-.172l5.234.092a4.581 4.581 0 012.99.767c1.821 1.6-.2 6.724-.619 8.694-.607 2.818-.344 5.876-1.077 8.59-.79 2.944-2.165 5.647-2.737 8.671-1.271 6.678-1.031 13.516-.893 20.273 0 1.443-.47 17.6-.47 17.6l-6.781-.332s-.069-2.107-.092-2.863c0-1.352-.126-2.7-.206-4.055q-.387-6.931-1.11-13.884z" fill="#0dc764"/>
      <path data-name="Path 1741" d="M-1946.84-372.514c0-1.146-.332-7.216-.641-7.216h4.719a15.351 15.351 0 01.218 3.78c0 1.237-.206 2.451-.206 3.711a38.528 38.528 0 00-4.089-.138z" fill="#a58058"/>
      <path data-name="Path 1742" d="M-1950.631-396.384c-.286-3.78-.618-7.571-1.2-11.317a122.418 122.418 0 00-3.516-14.672 37.544 37.544 0 01-1.26-5.223 36.317 36.317 0 01-.263-3.631l-.187-4.857a18.01 18.01 0 01.435-5.956c1.042-3.436 3.608-4.582 6.987-4.227 5.922.641 5.9 7.376 6.414 11.821a139.09 139.09 0 01.9 15.371q0 3.849-.138 7.7a48.194 48.194 0 00.985 9.083 47.4 47.4 0 01.3 7.113c0 6.38-.183 19.128-.183 19.128l-7.17.137c-.309-4.089-1.065-8.132-1.455-12.21-.283-2.785-.475-5.523-.649-8.26z" fill="#0dc764"/>
      <path data-name="Path 1743" d="M-1957.275-369.078c-.218 0 .172-1.878.206-2.027a3.768 3.768 0 012.142-2.749 7.892 7.892 0 013.2-.481 55.806 55.806 0 018.865 1.145 1.065 1.065 0 01.962.779 10.372 10.372 0 01.218 3.367c-.001.103-12.477.023-15.593-.034z"/>
      <path data-name="Path 1744" d="M-1965.854-437.447c1.592 0 3.184-.206 4.776-.252q3.436-.1 6.8-.309c.825 0 10.732-.825 10.721-.939-.218-2.852-.607-5.67-.836-8.545-.344-4.33-.458-8.671-.664-13.012-.2-4.158-.069-8.636-1.523-12.6a9.277 9.277 0 00-6.781-6.242 19.231 19.231 0 00-11.042 1.145 10.561 10.561 0 00-5.223 6.872c-.8 3.07-.3 6.712-.218 9.862.1 3.791.332 7.571.63 11.351.344 4.032.836 8.018 1.214 12.061a.687.687 0 00.2.5.734.734 0 00.435.1c.515.036 1.007.02 1.511.008z" fill="#00599a"/>
      <path data-name="Path 1745" d="M-1950.173-476.413a3.655 3.655 0 012.589 1.145 27.88 27.88 0 012.669 2.6 38.929 38.929 0 016.013 8.3c1.317 2.554 3.757 4.673 4.169 7.628.309 2.176-.813 4.582-1.627 6.586a63.483 63.483 0 01-3.344 6.678c-.848 1.523-1.753 3.024-2.52 4.581-.607 1.237-.928 2.795-2.165 3.6a1.81 1.81 0 01-2.6-.378 2.1 2.1 0 01-.275-1.672 11.627 11.627 0 01.71-1.855 73.52 73.52 0 004.078-13.012 19.332 19.332 0 00.584-2.5 3.435 3.435 0 00-.916-2.394c-.561-.767-1.077-1.569-1.627-2.36-1.271-1.81-2.738-3.436-4-5.292-1.615-2.291-3.436-4.685-3.917-7.56-.261-1.506.415-3.9 2.179-4.095z" fill="#a58058"/>
      <path data-name="Path 1746" d="M-1963.483-478.692a2.943 2.943 0 00.939 1.752 3.435 3.435 0 002.165.458 7.813 7.813 0 001.684-.16c2.394-.573 2.291-2.371 1.947-4.376-.3-1.581-.424-3.184-.664-4.776a.265.265 0 00-.355-.275q-1.73.08-3.436.206c-.974.069-1.936 0-2.909.149a35.632 35.632 0 01.366 3.6 23.705 23.705 0 00.263 3.425z" fill="#a58058"/>
      <path data-name="Path 1747" d="M-1969.106-483.365a5.727 5.727 0 001.89 2.222 6.3 6.3 0 004.49.836 15.259 15.259 0 006.414-3.138c2.291-1.718 4.146-4.238 4.158-7.159a9.266 9.266 0 00-2.6-6.151 11.771 11.771 0 00-5.1-3.287l-.5-.149a7.412 7.412 0 00-4.788.229c-1.844.836-2.886 3.024-3.608 4.8a18.12 18.12 0 00-1.145 6.174 11.236 11.236 0 00.789 5.623z" fill="#a58058"/>
      <path data-name="Path 1748" d="M-1972.806-454.089c-.848-3.219-2.657-6.185-4.066-9.163-1.283-2.714-2.589-5.429-3.723-8.212-.664-1.615-2.359-1.455-2.634.275-.412 2.554.641 5.1 1.306 7.5.79 2.864 1.466 5.727 2.142 8.636.458 1.97 2.291 5.968 4.582 6.288 2.718.369 2.805-3.617 2.393-5.324z" fill="#a58058"/>
      <path data-name="Path 1749" d="M-1948.341-488.566a9.228 9.228 0 00.779-3.952 10.307 10.307 0 00-2.291-6.036c-3.539-4.307-9.163-5.658-14.512-5.945a15.113 15.113 0 00-2.359 0c-1.661.172-3.436 1-3.745 2.772a2.543 2.543 0 00.412 1.9 4.913 4.913 0 003.345 1.512c1.432.241 2.852.5 4.284.756a6.519 6.519 0 013.436 1.466c1.856 1.753 1.294 4.879.515 7.021a5.727 5.727 0 01-3.1 3.6 5.291 5.291 0 01-2.291.195 15.369 15.369 0 01-3.436-.767 14.626 14.626 0 01-1.627-.687 6.632 6.632 0 01-1.145-.584 11.029 11.029 0 00-.264 4.937 5.727 5.727 0 003.15 4.158 5.028 5.028 0 004.581-.653 10.7 10.7 0 003.15-3.677 24.7 24.7 0 002.027-4.513 7.353 7.353 0 011-2.291 1.775 1.775 0 011.065-.722 1.477 1.477 0 011.374.618 2.359 2.359 0 01.4 1.5 3.528 3.528 0 01-1.707 2.806 6.875 6.875 0 01-1.283.55 1.658 1.658 0 00-.515.252 1.7 1.7 0 00-.458.836 24 24 0 01-.894 2.291 15.131 15.131 0 011.592.057 7.416 7.416 0 001.638-.172c2.153-.5 3.974-2.577 5.166-4.33a16.282 16.282 0 001.718-2.9z"/>
      <path data-name="Path 1750" d="M-1984.638-476.367a3.829 3.829 0 00-.607.6 2.932 2.932 0 00-.47 3.436c.584.974 1.844 1.489 2.291 2.543a.391.391 0 00.126.206.355.355 0 00.206 0l2.531-.08a.493.493 0 00.584-.6c0-1.237.286-2.463.2-3.7s-.79-2.027-.985-3.138c-.332-1.81.057-3.723-.527-5.463a.39.39 0 00-.31-.367.425.425 0 00-.24 0 1.673 1.673 0 00-.859 1.145 4.95 4.95 0 000 1.5l.24 2.989a3.94 3.94 0 00-2.176.928z" fill="#a58058"/>
      <path data-name="Path 1751" d="M-1948.759-435.116a4.432 4.432 0 004.581 1.981.218.218 0 00.126 0 .241.241 0 000-.183c-.172-1.569.6-3.07.676-4.582a1.008 1.008 0 00-.87-1.145c-.412-.115-.939-.309-1.352-.412-.974-.218-1 .8-1.306 1.42a4.421 4.421 0 01-2.211 1.752.263.263 0 00-.138.1.252.252 0 000 .183 4.4 4.4 0 00.493.882z" fill="#a58058"/>
      <path data-name="Path 1752" d="M-1946.702-461.969l7.354-5.131a72.6 72.6 0 00-4.387-6.483 12.658 12.658 0 00-4.3-3.677 4.467 4.467 0 00-4.467.527 5.039 5.039 0 00-2.108 4.353c.172 2.623 2.2 5.017 3.963 6.8a44.284 44.284 0 003.945 3.611z" fill="#00599a"/>
    </g>
  </g>
</svg>
