<svg xmlns="http://www.w3.org/2000/svg" width="512" height="360" viewBox="0 0 512 360">
  <g id="Group_903" data-name="Group 903" transform="translate(-4072 -9313)">
    <g id="open-menu" transform="translate(4072 9237)">
      <g id="Group_898" data-name="Group 898">
        <g id="Group_897" data-name="Group 897">
          <path id="Path_1798" data-name="Path 1798" d="M492,236H20a20,20,0,0,0,0,40H492a20,20,0,0,0,0-40Z" fill="#010e5e"/>
        </g>
      </g>
      <g id="Group_900" data-name="Group 900">
        <g id="Group_899" data-name="Group 899">
          <path id="Path_1799" data-name="Path 1799" d="M492,76H20a20,20,0,0,0,0,40H492a20,20,0,0,0,0-40Z" fill="#010e5e"/>
        </g>
      </g>
      <g id="Group_902" data-name="Group 902">
        <g id="Group_901" data-name="Group 901">
          <path id="Path_1800" data-name="Path 1800" d="M492,396H20a20,20,0,0,0,0,40H492a20,20,0,0,0,0-40Z" fill="#010e5e"/>
        </g>
      </g>
    </g>
  </g>
</svg>
