<svg xmlns="http://www.w3.org/2000/svg" width="575.615" height="256.632" viewBox="0 0 575.615 256.632">
  <g id="Group_894" data-name="Group 894" transform="translate(-394.904 -583.281)">
    <g id="illus" transform="translate(394.897 583.294)">
      <path id="Path_1825" data-name="Path 1825" d="M175.143,558.615a79.986,79.986,0,0,1-4.651-11.832,66.968,66.968,0,0,1-2.518-12.521,63.436,63.436,0,0,1,.015-12.834,66.876,66.876,0,0,1,2.555-12.622,83.894,83.894,0,0,1,4.683-12,113.141,113.141,0,0,1,6.232-11.259c2.273-3.636,4.729-7.144,7.289-10.568l.962-1.282.98-1.267c.656-.844,1.312-1.689,1.969-2.518s1.33-1.669,2.012-2.489,1.372-1.656,1.995-2.452a77.759,77.759,0,0,0,6.939-10.191,100.825,100.825,0,0,0,5.436-11.143c1.606-3.83,3.052-7.746,4.419-11.71s2.656-7.984,3.979-12.016,2.669-8.083,4.178-12.105,3.15-8.026,5.031-11.95l.35-.737.367-.731.739-1.461c.241-.49.51-.965.768-1.446l.781-1.442c.547-.949,1.094-1.9,1.656-2.844l.875-1.4c.293-.464.58-.936.875-1.38q3.559-5.44,7.656-10.52a140.076,140.076,0,0,1,39.374-33.687,138.511,138.511,0,0,1,23.7-10.852q6.173-2.144,12.536-3.7a127.889,127.889,0,0,1,12.869-2.474,120.661,120.661,0,0,1,13.094-1.076,125.413,125.413,0,0,1,13.125.337,155.887,155.887,0,0,1,25.7,4.329c8.38,2.085,16.572,4.688,24.644,7.424,4.036,1.372,8.041,2.789,12.031,4.2l2.992,1.063,1.494.532c.49.171.956.317,1.435.477,1.894.656,3.826,1.192,5.764,1.7a85.857,85.857,0,0,0,23.988,2.422,191.694,191.694,0,0,0,24.655-2.7c8.29-1.339,16.684-2.87,25.263-3.883,4.287-.507,8.619-.886,12.983-1.054l3.281-.083h3.281c1.094.015,2.187.07,3.281.1.551.013,1.094.048,1.638.085l1.632.1a141.273,141.273,0,0,1,92.311,43.38c.374.4.757.772,1.122,1.181L624,382.935c.363.407.744.8,1.094,1.218l1.063,1.236c.718.82,1.4,1.658,2.08,2.5s1.352,1.684,2.015,2.533c2.649,3.395,5.156,6.849,7.656,10.268,4.972,6.838,9.909,13.562,15.616,19.455a99.879,99.879,0,0,0,9.133,8.312c3.218,2.6,6.6,5.031,10.062,7.381s7.013,4.594,10.589,6.847l5.379,3.373,2.693,1.7c.9.575,1.789,1.131,2.688,1.739a114.853,114.853,0,0,1,19.836,16.443A108.88,108.88,0,0,1,729.4,486.413,102.746,102.746,0,0,1,739.477,509.9a98.086,98.086,0,0,1,3.8,25.127,101.529,101.529,0,0,0-5.049-24.734,103.341,103.341,0,0,0-10.883-22.621A110.442,110.442,0,0,0,691.792,453.1c-7.17-4.355-14.6-8.468-21.826-13.059-3.616-2.295-7.173-4.729-10.609-7.359a105.444,105.444,0,0,1-9.861-8.514,120.864,120.864,0,0,1-8.73-9.625c-2.732-3.325-5.324-6.72-7.892-10.086-5.13-6.74-10.185-13.344-15.969-19.156a136.064,136.064,0,0,0-63.642-36.183,132.823,132.823,0,0,0-24.314-3.741l-1.531-.081c-.512-.028-1.026-.057-1.531-.063-1.017-.02-2.034-.061-3.062-.066l-3.062.017-3.062.1c-4.093.188-8.2.575-12.309,1.094-8.229,1.03-16.491,2.572-24.9,3.97a193.028,193.028,0,0,1-25.775,2.894,104.836,104.836,0,0,1-13.228-.394c-1.094-.125-2.207-.236-3.31-.376l-3.3-.5-3.281-.63c-1.094-.232-2.17-.505-3.253-.759-2.155-.562-4.3-1.166-6.407-1.892-.525-.175-1.068-.35-1.575-.527l-1.5-.534-2.988-1.065q-5.97-2.126-11.928-4.185c-7.945-2.726-15.905-5.265-23.935-7.3a150.357,150.357,0,0,0-24.281-4.239,116.19,116.19,0,0,0-24.454.486,119.763,119.763,0,0,0-12.073,2.188c-4,.925-7.947,2.056-11.839,3.364a135.028,135.028,0,0,0-60.4,41.33q-3.962,4.756-7.472,9.866c-.3.422-.573.849-.855,1.273l-.84,1.275c-.542.862-1.07,1.735-1.6,2.607l-.757,1.332c-.252.437-.514.875-.75,1.341l-.724,1.356-.361.68-.352.689a199.237,199.237,0,0,0-9.463,23.124c-2.837,7.947-5.6,16.043-9.187,23.894a105.611,105.611,0,0,1-6.033,11.489,80.231,80.231,0,0,1-7.656,10.555c-.713.847-1.4,1.61-2.093,2.406s-1.376,1.584-2.058,2.38-1.356,1.6-2.026,2.406l-1,1.212-.984,1.225c-2.625,3.268-5.127,6.621-7.477,10.076a95.429,95.429,0,0,0-11.456,22.155,63.985,63.985,0,0,0-3.557,24.618,67,67,0,0,0,1.879,12.44,83.289,83.289,0,0,0,3.994,12.011Z" transform="translate(-167.65 -309.51)" fill="#e2e2e2"/>
      <path id="Path_1826" data-name="Path 1826" d="M888.89,269.264c1.223-.361,2.446-.733,3.682-1.061l1.859-.477.93-.238c.311-.079.623-.142.936-.219,1.251-.273,2.5-.564,3.765-.788l1.894-.352,1.9-.3c2.54-.411,5.1-.656,7.671-.895.643-.05,1.286-.087,1.929-.127s1.288-.09,1.934-.1c1.288-.037,2.581-.1,3.872-.1a137.671,137.671,0,0,1,30.76,3.5c1.258.282,2.518.562,3.769.875l1.879.455,1.872.477c2.5.639,4.97,1.341,7.437,2.05,4.937,1.422,9.815,2.995,14.671,4.594,2.43.792,4.845,1.617,7.258,2.439l1.809.617c.6.2,1.218.424,1.789.6l1.75.553.875.278c.291.094.588.162.875.245a81.96,81.96,0,0,0,14.372,2.743l.912.1c.3.033.61.048.917.072l1.833.138c.61.057,1.225.063,1.84.094l1.842.074,1.848.015c.617,0,1.232.024,1.848,0,1.236-.033,2.468-.033,3.708-.105,4.95-.186,9.92-.689,14.91-1.312s10-1.4,15.045-2.122c2.522-.365,5.055-.731,7.595-1.07s5.095-.637,7.656-.9l1.923-.195c.641-.061,1.286-.109,1.929-.162s1.286-.109,1.932-.149l1.936-.118c1.288-.092,2.586-.12,3.878-.179.656-.033,1.3-.035,1.943-.042l1.943-.022c1.3.015,2.594.028,3.889.063l1.945.085c.656.028,1.3.053,1.942.114,2.592.188,5.16.448,7.717.8a118.539,118.539,0,0,1,29.653,8.05c-1.24-.306-2.476-.615-3.719-.906-.617-.151-1.242-.282-1.862-.42s-1.242-.271-1.866-.394q-3.73-.781-7.481-1.374c-2.5-.385-5.007-.724-7.516-.982s-5.02-.475-7.534-.593c-1.256-.059-2.511-.122-3.767-.147l-.941-.024h-2.809c-.623,0-1.251.017-1.875.031l-1.875.046c-1.249.052-2.5.125-3.747.2-1.249.105-2.5.188-3.743.306s-2.494.219-3.738.392l-1.868.219c-.621.074-1.245.171-1.866.254l-1.866.258-1.866.28c-2.487.372-4.976.8-7.466,1.238l-3.74.656-3.756.7c-5,.93-10.043,1.822-15.137,2.6-1.278.186-2.553.376-3.837.538l-1.927.236-.965.118-.969.1-1.938.2c-.656.068-1.3.112-1.947.168s-1.3.114-1.949.155l-1.958.116c-.656.042-1.313.072-1.969.085l-1.969.052c-.656.026-1.312,0-1.969,0h-1.969l-1.969-.07c-.656-.028-1.312-.035-1.969-.09l-1.969-.138c-.328-.024-.656-.042-.989-.074l-.987-.107a87.072,87.072,0,0,1-15.575-3.073c-.317-.094-.639-.175-.954-.282l-.943-.315-1.886-.632c-.641-.219-1.218-.437-1.822-.641l-1.8-.645-7.173-2.57q-7.164-2.57-14.345-4.97l-3.6-1.168c-1.2-.372-2.406-.759-3.607-1.122l-1.807-.551-1.811-.532c-1.205-.359-2.417-.689-3.629-1.024a156.084,156.084,0,0,0-29.579-5.381A130.436,130.436,0,0,0,888.89,269.264Z" transform="translate(-731.116 -264.62)" fill="#e2e2e2"/>
      <path id="Path_1827" data-name="Path 1827" d="M756.889,475.607a155.053,155.053,0,0,1-54.12-52.259,118.618,118.618,0,0,0-133.293-51.7,116.9,116.9,0,0,1-82.638-7.516,119.123,119.123,0,0,0-72.046-9.868,117.261,117.261,0,0,0-95.5,93.825l-.16.864a98.46,98.46,0,0,1-25.543,49.995,62,62,0,0,0,6.328,90.955H792.7a88.736,88.736,0,0,0-35.811-114.293Z" transform="translate(-252.814 -333.281)" fill="#e2e2e2"/>
      <path id="Path_1828" data-name="Path 1828" d="M2179.362,979.68l-15.942,42.325H2195.3Z" transform="translate(-1690.173 -765.389)" fill="#00eb6e"/>
      <path id="Path_1829" data-name="Path 1829" d="M2220.1,1066.944l3.522,3.52.659-.661-4.181-4.178v-7.965h-.932v2.557l-4.2,4.2.658.658,3.542-3.542v9.452l-4.2,4.2.658.661,3.542-3.541v10.62h.932v-6.234l3.522,3.52.659-.658-4.181-4.18Z" transform="translate(-1730.447 -826.311)" fill="#ec6786"/>
      <path id="Path_1830" data-name="Path 1830" d="M2027.453,914.36l-21.323,56.614h42.649Z" transform="translate(-1567.29 -714.357)" fill="#00eb6e"/>
      <rect id="Rectangle_900" data-name="Rectangle 900" width="1.247" height="33.799" transform="translate(459.542 222.818)" fill="#2e2b60"/>
      <rect id="Rectangle_901" data-name="Rectangle 901" width="1.247" height="8.113" transform="translate(454.803 232.737) rotate(-135)" fill="#2e2b60"/>
      <rect id="Rectangle_902" data-name="Rectangle 902" width="1.247" height="8.113" transform="translate(454.81 247.143) rotate(-135)" fill="#2e2b60"/>
      <rect id="Rectangle_903" data-name="Rectangle 903" width="1.247" height="8.113" transform="translate(466.377 239.069) rotate(135)" fill="#2e2b60"/>
      <rect id="Rectangle_904" data-name="Rectangle 904" width="1.247" height="8.113" transform="translate(466.375 252.111) rotate(135)" fill="#2e2b60"/>
      <rect id="Rectangle_905" data-name="Rectangle 905" width="83.692" height="221.969" transform="translate(369.714 34.648)" fill="#8693f7"/>
      <rect id="Rectangle_906" data-name="Rectangle 906" width="1.608" height="221.969" transform="translate(399.061 34.648)" fill="#2e2b60"/>
      <rect id="Rectangle_907" data-name="Rectangle 907" width="1.608" height="221.969" transform="translate(389.701 34.648)" fill="#2e2b60"/>
      <rect id="Rectangle_908" data-name="Rectangle 908" width="10.406" height="10.406" transform="translate(412.774 67.523)" fill="#f7e7f2"/>
      <rect id="Rectangle_909" data-name="Rectangle 909" width="10.406" height="10.406" transform="translate(412.774 108.976)" fill="#2e2b60"/>
      <rect id="Rectangle_910" data-name="Rectangle 910" width="10.406" height="10.406" transform="translate(412.774 150.428)" fill="#2e2b60"/>
      <rect id="Rectangle_911" data-name="Rectangle 911" width="10.406" height="10.406" transform="translate(412.774 191.883)" fill="#2e2b60"/>
      <rect id="Rectangle_912" data-name="Rectangle 912" width="10.406" height="10.406" transform="translate(431.816 46.797)" fill="#2e2b60"/>
      <rect id="Rectangle_913" data-name="Rectangle 913" width="10.406" height="10.406" transform="translate(431.816 88.249)" fill="#2e2b60"/>
      <rect id="Rectangle_914" data-name="Rectangle 914" width="10.406" height="10.406" transform="translate(431.816 129.702)" fill="#f7e7f2"/>
      <rect id="Rectangle_915" data-name="Rectangle 915" width="10.406" height="10.406" transform="translate(431.816 171.154)" fill="#f7e7f2"/>
      <rect id="Rectangle_916" data-name="Rectangle 916" width="10.773" height="16.59" transform="translate(411.56 21.477)" fill="#8693f7"/>
      <rect id="Rectangle_917" data-name="Rectangle 917" width="10.773" height="16.59" transform="translate(442.219 30.688) rotate(90)" fill="#8693f7"/>
      <rect id="Rectangle_918" data-name="Rectangle 918" width="5.388" height="19.952" transform="translate(169.657 30.293)" fill="#2e2b60"/>
      <rect id="Rectangle_919" data-name="Rectangle 919" width="5.388" height="19.952" transform="translate(177.77 30.293)" fill="#2e2b60"/>
      <rect id="Rectangle_920" data-name="Rectangle 920" width="13.188" height="19.952" transform="translate(226.804 43.129) rotate(90)" fill="#2e2b60"/>
      <rect id="Rectangle_921" data-name="Rectangle 921" width="117.57" height="206.895" transform="translate(140.216 49.724)" fill="#2e2b60"/>
      <rect id="Rectangle_922" data-name="Rectangle 922" width="7.794" height="7.794" transform="translate(238.378 71.585) rotate(-90)" fill="#2e2b60"/>
      <rect id="Rectangle_923" data-name="Rectangle 923" width="7.794" height="7.794" transform="translate(223.871 71.585) rotate(-90)" fill="#f7e7f2"/>
      <rect id="Rectangle_924" data-name="Rectangle 924" width="7.794" height="7.794" transform="translate(209.364 71.588) rotate(-90)" fill="#2e2b60"/>
      <rect id="Rectangle_925" data-name="Rectangle 925" width="7.794" height="7.794" transform="translate(194.859 71.585) rotate(-90)" fill="#2e2b60"/>
      <rect id="Rectangle_926" data-name="Rectangle 926" width="7.794" height="7.794" transform="translate(180.351 71.585) rotate(-90)" fill="#2e2b60"/>
      <rect id="Rectangle_927" data-name="Rectangle 927" width="7.794" height="7.794" transform="translate(165.844 71.588) rotate(-90)" fill="#f7e7f2"/>
      <rect id="Rectangle_928" data-name="Rectangle 928" width="7.794" height="7.794" transform="translate(151.339 71.585) rotate(-90)" fill="#2e2b60"/>
      <rect id="Rectangle_929" data-name="Rectangle 929" width="7.794" height="7.794" transform="translate(238.376 86.854) rotate(-90)" fill="#2e2b60"/>
      <rect id="Rectangle_930" data-name="Rectangle 930" width="7.794" height="7.794" transform="translate(223.869 86.854) rotate(-90)" fill="#f7e7f2"/>
      <rect id="Rectangle_931" data-name="Rectangle 931" width="7.794" height="7.794" transform="translate(209.362 86.854) rotate(-90)" fill="#2e2b60"/>
      <rect id="Rectangle_932" data-name="Rectangle 932" width="7.794" height="7.794" transform="translate(194.856 86.854) rotate(-90)" fill="#2e2b60"/>
      <rect id="Rectangle_933" data-name="Rectangle 933" width="7.794" height="7.794" transform="translate(180.349 86.854) rotate(-90)" fill="#f7e7f2"/>
      <rect id="Rectangle_934" data-name="Rectangle 934" width="7.794" height="7.794" transform="translate(165.844 86.854) rotate(-90)" fill="#2e2b60"/>
      <rect id="Rectangle_935" data-name="Rectangle 935" width="7.794" height="7.794" transform="translate(151.337 86.854) rotate(-90)" fill="#2e2b60"/>
      <rect id="Rectangle_936" data-name="Rectangle 936" width="7.794" height="7.794" transform="translate(238.376 102.122) rotate(-90)" fill="#2e2b60"/>
      <rect id="Rectangle_937" data-name="Rectangle 937" width="7.794" height="7.794" transform="translate(223.869 102.122) rotate(-90)" fill="#2e2b60"/>
      <rect id="Rectangle_938" data-name="Rectangle 938" width="7.794" height="7.794" transform="translate(209.364 102.122) rotate(-90)" fill="#2e2b60"/>
      <rect id="Rectangle_939" data-name="Rectangle 939" width="7.794" height="7.794" transform="translate(194.856 102.122) rotate(-90)" fill="#2e2b60"/>
      <rect id="Rectangle_940" data-name="Rectangle 940" width="7.794" height="7.794" transform="translate(180.349 102.122) rotate(-90)" fill="#f7e7f2"/>
      <rect id="Rectangle_941" data-name="Rectangle 941" width="7.794" height="7.794" transform="translate(165.844 102.122) rotate(-90)" fill="#2e2b60"/>
      <rect id="Rectangle_942" data-name="Rectangle 942" width="7.794" height="7.794" transform="translate(151.337 102.122) rotate(-90)" fill="#2e2b60"/>
      <rect id="Rectangle_943" data-name="Rectangle 943" width="7.794" height="7.794" transform="translate(238.376 117.391) rotate(-90)" fill="#2e2b60"/>
      <rect id="Rectangle_944" data-name="Rectangle 944" width="7.794" height="7.794" transform="translate(223.869 117.391) rotate(-90)" fill="#2e2b60"/>
      <rect id="Rectangle_945" data-name="Rectangle 945" width="7.794" height="7.794" transform="translate(209.364 117.391) rotate(-90)" fill="#2e2b60"/>
      <rect id="Rectangle_946" data-name="Rectangle 946" width="7.794" height="7.794" transform="translate(194.856 117.391) rotate(-90)" fill="#f7e7f2"/>
      <rect id="Rectangle_947" data-name="Rectangle 947" width="7.794" height="7.794" transform="translate(180.349 117.391) rotate(-90)" fill="#2e2b60"/>
      <rect id="Rectangle_948" data-name="Rectangle 948" width="7.794" height="7.794" transform="translate(165.844 117.391) rotate(-90)" fill="#2e2b60"/>
      <rect id="Rectangle_949" data-name="Rectangle 949" width="7.794" height="7.794" transform="translate(151.337 117.391) rotate(-90)" fill="#2e2b60"/>
      <rect id="Rectangle_950" data-name="Rectangle 950" width="7.794" height="7.794" transform="translate(238.376 132.657) rotate(-90)" fill="#2e2b60"/>
      <rect id="Rectangle_951" data-name="Rectangle 951" width="7.794" height="7.794" transform="translate(223.869 132.659) rotate(-90)" fill="#f7e7f2"/>
      <rect id="Rectangle_952" data-name="Rectangle 952" width="7.794" height="7.794" transform="translate(209.364 132.659) rotate(-90)" fill="#2e2b60"/>
      <rect id="Rectangle_953" data-name="Rectangle 953" width="7.794" height="7.794" transform="translate(194.856 132.657) rotate(-90)" fill="#2e2b60"/>
      <rect id="Rectangle_954" data-name="Rectangle 954" width="7.794" height="7.794" transform="translate(180.349 132.659) rotate(-90)" fill="#2e2b60"/>
      <rect id="Rectangle_955" data-name="Rectangle 955" width="7.794" height="7.794" transform="translate(165.844 132.659) rotate(-90)" fill="#2e2b60"/>
      <rect id="Rectangle_956" data-name="Rectangle 956" width="7.794" height="7.794" transform="translate(151.337 132.659) rotate(-90)" fill="#2e2b60"/>
      <rect id="Rectangle_957" data-name="Rectangle 957" width="7.794" height="7.794" transform="translate(238.376 147.926) rotate(-90)" fill="#2e2b60"/>
      <rect id="Rectangle_958" data-name="Rectangle 958" width="7.794" height="7.794" transform="translate(223.871 147.928) rotate(-90)" fill="#f7e7f2"/>
      <rect id="Rectangle_959" data-name="Rectangle 959" width="7.794" height="7.794" transform="translate(209.364 147.928) rotate(-90)" fill="#2e2b60"/>
      <rect id="Rectangle_960" data-name="Rectangle 960" width="7.794" height="7.794" transform="translate(194.856 147.926) rotate(-90)" fill="#f7e7f2"/>
      <rect id="Rectangle_961" data-name="Rectangle 961" width="7.794" height="7.794" transform="translate(180.351 147.928) rotate(-90)" fill="#2e2b60"/>
      <rect id="Rectangle_962" data-name="Rectangle 962" width="7.794" height="7.794" transform="translate(165.844 147.928) rotate(-90)" fill="#2e2b60"/>
      <rect id="Rectangle_963" data-name="Rectangle 963" width="7.794" height="7.794" transform="translate(151.337 147.926) rotate(-90)" fill="#f7e7f2"/>
      <rect id="Rectangle_964" data-name="Rectangle 964" width="7.794" height="7.794" transform="translate(238.376 163.194) rotate(-90)" fill="#2e2b60"/>
      <rect id="Rectangle_965" data-name="Rectangle 965" width="7.794" height="7.794" transform="translate(223.871 163.196) rotate(-90)" fill="#f7e7f2"/>
      <rect id="Rectangle_966" data-name="Rectangle 966" width="7.794" height="7.794" transform="translate(209.364 163.196) rotate(-90)" fill="#2e2b60"/>
      <rect id="Rectangle_967" data-name="Rectangle 967" width="7.794" height="7.794" transform="translate(194.856 163.194) rotate(-90)" fill="#2e2b60"/>
      <rect id="Rectangle_968" data-name="Rectangle 968" width="7.794" height="7.794" transform="translate(180.351 163.196) rotate(-90)" fill="#2e2b60"/>
      <rect id="Rectangle_969" data-name="Rectangle 969" width="7.794" height="7.794" transform="translate(165.844 163.196) rotate(-90)" fill="#2e2b60"/>
      <rect id="Rectangle_970" data-name="Rectangle 970" width="7.794" height="7.794" transform="translate(151.337 163.194) rotate(-90)" fill="#2e2b60"/>
      <rect id="Rectangle_971" data-name="Rectangle 971" width="7.794" height="7.794" transform="translate(238.376 178.463) rotate(-90)" fill="#2e2b60"/>
      <rect id="Rectangle_972" data-name="Rectangle 972" width="7.794" height="7.794" transform="translate(223.871 178.463) rotate(-90)" fill="#2e2b60"/>
      <rect id="Rectangle_973" data-name="Rectangle 973" width="7.794" height="7.794" transform="translate(209.364 178.465) rotate(-90)" fill="#2e2b60"/>
      <rect id="Rectangle_974" data-name="Rectangle 974" width="7.794" height="7.794" transform="translate(194.856 178.463) rotate(-90)" fill="#2e2b60"/>
      <rect id="Rectangle_975" data-name="Rectangle 975" width="7.794" height="7.794" transform="translate(180.351 178.465) rotate(-90)" fill="#f7e7f2"/>
      <rect id="Rectangle_976" data-name="Rectangle 976" width="7.794" height="7.794" transform="translate(165.844 178.465) rotate(-90)" fill="#2e2b60"/>
      <rect id="Rectangle_977" data-name="Rectangle 977" width="7.794" height="7.794" transform="translate(151.337 178.463) rotate(-90)" fill="#2e2b60"/>
      <rect id="Rectangle_978" data-name="Rectangle 978" width="7.794" height="7.794" transform="translate(238.376 193.731) rotate(-90)" fill="#2e2b60"/>
      <rect id="Rectangle_979" data-name="Rectangle 979" width="7.794" height="7.794" transform="translate(223.871 193.731) rotate(-90)" fill="#2e2b60"/>
      <rect id="Rectangle_980" data-name="Rectangle 980" width="7.794" height="7.794" transform="translate(209.364 193.733) rotate(-90)" fill="#2e2b60"/>
      <rect id="Rectangle_981" data-name="Rectangle 981" width="7.794" height="7.794" transform="translate(194.859 193.731) rotate(-90)" fill="#2e2b60"/>
      <rect id="Rectangle_982" data-name="Rectangle 982" width="7.794" height="7.794" transform="translate(180.351 193.731) rotate(-90)" fill="#f7e7f2"/>
      <rect id="Rectangle_983" data-name="Rectangle 983" width="7.794" height="7.794" transform="translate(165.844 193.733) rotate(-90)" fill="#2e2b60"/>
      <rect id="Rectangle_984" data-name="Rectangle 984" width="7.794" height="7.794" transform="translate(151.339 193.731) rotate(-90)" fill="#2e2b60"/>
      <rect id="Rectangle_985" data-name="Rectangle 985" width="7.794" height="7.794" transform="translate(238.378 209) rotate(-90)" fill="#2e2b60"/>
      <rect id="Rectangle_986" data-name="Rectangle 986" width="7.794" height="7.794" transform="translate(223.871 209) rotate(-90)" fill="#2e2b60"/>
      <rect id="Rectangle_987" data-name="Rectangle 987" width="7.794" height="7.794" transform="translate(209.364 209.002) rotate(-90)" fill="#f7e7f2"/>
      <rect id="Rectangle_988" data-name="Rectangle 988" width="7.794" height="7.794" transform="translate(194.859 209) rotate(-90)" fill="#2e2b60"/>
      <rect id="Rectangle_989" data-name="Rectangle 989" width="7.794" height="7.794" transform="translate(180.351 209) rotate(-90)" fill="#2e2b60"/>
      <rect id="Rectangle_990" data-name="Rectangle 990" width="7.794" height="7.794" transform="translate(165.844 209.002) rotate(-90)" fill="#2e2b60"/>
      <rect id="Rectangle_991" data-name="Rectangle 991" width="7.794" height="7.794" transform="translate(151.339 209) rotate(-90)" fill="#2e2b60"/>
      <rect id="Rectangle_992" data-name="Rectangle 992" width="56.141" height="182.982" transform="translate(238.376 73.635)" fill="#ec6786"/>
      <rect id="Rectangle_993" data-name="Rectangle 993" width="47.965" height="2.032" transform="translate(242.464 77.161)" fill="#ab547a"/>
      <rect id="Rectangle_994" data-name="Rectangle 994" width="5.416" height="16.378" transform="translate(244.794 84.686)" fill="#2e2b60"/>
      <rect id="Rectangle_995" data-name="Rectangle 995" width="5.416" height="16.378" transform="translate(254.266 84.686)" fill="#ab547a"/>
      <rect id="Rectangle_996" data-name="Rectangle 996" width="5.416" height="16.378" transform="translate(263.74 84.686)" fill="#2e2b60"/>
      <rect id="Rectangle_997" data-name="Rectangle 997" width="5.416" height="16.378" transform="translate(273.214 84.686)" fill="#f7e7f2"/>
      <rect id="Rectangle_998" data-name="Rectangle 998" width="5.416" height="16.378" transform="translate(282.685 84.686)" fill="#2e2b60"/>
      <rect id="Rectangle_999" data-name="Rectangle 999" width="5.416" height="16.378" transform="translate(244.794 105.62)" fill="#2e2b60"/>
      <rect id="Rectangle_1000" data-name="Rectangle 1000" width="5.416" height="16.378" transform="translate(254.266 105.62)" fill="#2e2b60"/>
      <rect id="Rectangle_1001" data-name="Rectangle 1001" width="5.416" height="16.378" transform="translate(263.74 105.62)" fill="#2e2b60"/>
      <rect id="Rectangle_1002" data-name="Rectangle 1002" width="5.416" height="16.378" transform="translate(273.214 105.62)" fill="#2e2b60"/>
      <rect id="Rectangle_1003" data-name="Rectangle 1003" width="5.416" height="16.378" transform="translate(282.685 105.62)" fill="#f7e7f2"/>
      <rect id="Rectangle_1004" data-name="Rectangle 1004" width="5.416" height="16.378" transform="translate(244.794 126.554)" fill="#2e2b60"/>
      <rect id="Rectangle_1005" data-name="Rectangle 1005" width="5.416" height="16.378" transform="translate(254.266 126.554)" fill="#f7e7f2"/>
      <rect id="Rectangle_1006" data-name="Rectangle 1006" width="5.416" height="16.378" transform="translate(263.74 126.554)" fill="#ab547a"/>
      <rect id="Rectangle_1007" data-name="Rectangle 1007" width="5.416" height="16.378" transform="translate(273.214 126.554)" fill="#ab547a"/>
      <rect id="Rectangle_1008" data-name="Rectangle 1008" width="5.416" height="16.378" transform="translate(282.685 126.554)" fill="#2e2b60"/>
      <rect id="Rectangle_1009" data-name="Rectangle 1009" width="5.416" height="16.378" transform="translate(244.794 147.49)" fill="#ab547a"/>
      <rect id="Rectangle_1010" data-name="Rectangle 1010" width="5.416" height="16.378" transform="translate(254.266 147.49)" fill="#2e2b60"/>
      <rect id="Rectangle_1011" data-name="Rectangle 1011" width="5.416" height="16.378" transform="translate(263.74 147.49)" fill="#2e2b60"/>
      <rect id="Rectangle_1012" data-name="Rectangle 1012" width="5.416" height="16.378" transform="translate(273.214 147.49)" fill="#2e2b60"/>
      <rect id="Rectangle_1013" data-name="Rectangle 1013" width="5.416" height="16.378" transform="translate(282.685 147.49)" fill="#f7e7f2"/>
      <rect id="Rectangle_1014" data-name="Rectangle 1014" width="5.416" height="16.378" transform="translate(244.794 168.424)" fill="#f7e7f2"/>
      <rect id="Rectangle_1015" data-name="Rectangle 1015" width="5.416" height="16.378" transform="translate(254.266 168.424)" fill="#2e2b60"/>
      <rect id="Rectangle_1016" data-name="Rectangle 1016" width="5.416" height="16.378" transform="translate(263.74 168.424)" fill="#2e2b60"/>
      <rect id="Rectangle_1017" data-name="Rectangle 1017" width="5.416" height="16.378" transform="translate(273.214 168.424)" fill="#ab547a"/>
      <rect id="Rectangle_1018" data-name="Rectangle 1018" width="5.416" height="16.378" transform="translate(282.685 168.424)" fill="#2e2b60"/>
      <rect id="Rectangle_1019" data-name="Rectangle 1019" width="5.416" height="16.378" transform="translate(244.794 189.359)" fill="#f7e7f2"/>
      <rect id="Rectangle_1020" data-name="Rectangle 1020" width="5.416" height="16.378" transform="translate(254.266 189.359)" fill="#ab547a"/>
      <rect id="Rectangle_1021" data-name="Rectangle 1021" width="5.416" height="16.378" transform="translate(263.74 189.359)" fill="#2e2b60"/>
      <rect id="Rectangle_1022" data-name="Rectangle 1022" width="5.416" height="16.378" transform="translate(273.214 189.359)" fill="#2e2b60"/>
      <rect id="Rectangle_1023" data-name="Rectangle 1023" width="5.416" height="16.378" transform="translate(282.685 189.359)" fill="#ab547a"/>
      <rect id="Rectangle_1024" data-name="Rectangle 1024" width="5.416" height="16.378" transform="translate(244.794 210.295)" fill="#2e2b60"/>
      <rect id="Rectangle_1025" data-name="Rectangle 1025" width="5.416" height="16.378" transform="translate(254.266 210.295)" fill="#f7e7f2"/>
      <rect id="Rectangle_1026" data-name="Rectangle 1026" width="5.416" height="16.378" transform="translate(263.74 210.295)" fill="#ab547a"/>
      <rect id="Rectangle_1027" data-name="Rectangle 1027" width="5.416" height="16.378" transform="translate(273.214 210.295)" fill="#ab547a"/>
      <rect id="Rectangle_1028" data-name="Rectangle 1028" width="5.416" height="16.378" transform="translate(282.685 210.295)" fill="#2e2b60"/>
      <rect id="Rectangle_1029" data-name="Rectangle 1029" width="8.783" height="21.315" transform="translate(325.544 87.959) rotate(90)" fill="#fff"/>
      <rect id="Rectangle_1030" data-name="Rectangle 1030" width="92.692" height="163.743" transform="translate(294.52 92.874)" fill="#fff"/>
      <rect id="Rectangle_1031" data-name="Rectangle 1031" width="1.608" height="152.972" transform="translate(377.799 98.259)" fill="#b3b3cd"/>
      <rect id="Rectangle_1032" data-name="Rectangle 1032" width="66.88" height="7.361" transform="translate(302.834 104.686)" fill="#ec6786"/>
      <rect id="Rectangle_1033" data-name="Rectangle 1033" width="66.88" height="7.361" transform="translate(302.834 118.1)" fill="#ab547a"/>
      <rect id="Rectangle_1034" data-name="Rectangle 1034" width="66.88" height="7.361" transform="translate(302.834 131.511)" fill="#e8a845"/>
      <rect id="Rectangle_1035" data-name="Rectangle 1035" width="66.88" height="7.361" transform="translate(302.834 144.922)" fill="#a78486"/>
      <rect id="Rectangle_1036" data-name="Rectangle 1036" width="66.88" height="7.361" transform="translate(302.834 158.336)" fill="#2e2b60"/>
      <rect id="Rectangle_1037" data-name="Rectangle 1037" width="66.88" height="7.361" transform="translate(302.834 171.747)" fill="#ec6786"/>
      <rect id="Rectangle_1038" data-name="Rectangle 1038" width="66.88" height="7.361" transform="translate(302.834 185.161)" fill="#ab547a"/>
      <rect id="Rectangle_1039" data-name="Rectangle 1039" width="13.188" height="32.011" transform="translate(160.504 122.936) rotate(90)" fill="#e8a845"/>
      <rect id="Rectangle_1040" data-name="Rectangle 1040" width="8.783" height="21.315" transform="translate(155.156 119.014) rotate(90)" fill="#e8a845"/>
      <rect id="Rectangle_1041" data-name="Rectangle 1041" width="42.691" height="130.062" transform="translate(123.153 126.554)" fill="#e8a845"/>
      <rect id="Rectangle_1042" data-name="Rectangle 1042" width="42.691" height="2.336" transform="translate(123.153 132.408)" fill="#e8a845"/>
      <rect id="Rectangle_1043" data-name="Rectangle 1043" width="1.608" height="42.691" transform="translate(123.151 135.547) rotate(-90)" fill="#a78486"/>
      <rect id="Rectangle_1044" data-name="Rectangle 1044" width="1.608" height="42.691" transform="translate(123.153 138.771) rotate(-90)" fill="#a78486"/>
      <path id="Path_1831" data-name="Path 1831" d="M875.132,944.536H866.89v-8.555a4.121,4.121,0,0,1,4.121-4.121h0a4.121,4.121,0,0,1,4.121,4.121Z" transform="translate(-713.928 -785.914)" fill="#a78486"/>
      <path id="Path_1832" data-name="Path 1832" d="M643.451,667.24h0a4.121,4.121,0,0,1,4.119,4.121v8.555h-8.24v-8.555A4.121,4.121,0,0,1,643.451,667.24Z" transform="translate(-499.473 -521.294)" fill="#2e2b60"/>
      <path id="Path_1833" data-name="Path 1833" d="M875.132,1027.276H866.89v-8.555a4.121,4.121,0,0,1,4.121-4.121h0a4.121,4.121,0,0,1,4.121,4.121Z" transform="translate(-713.928 -850.555)" fill="#2e2b60"/>
      <path id="Path_1834" data-name="Path 1834" d="M643.451,750h0a4.121,4.121,0,0,1,4.119,4.117v8.555h-8.24v-8.555A4.121,4.121,0,0,1,643.451,750Z" transform="translate(-499.473 -585.951)" fill="#f7e7f2"/>
      <path id="Path_1835" data-name="Path 1835" d="M875.132,1110.006H866.89v-8.555a4.121,4.121,0,0,1,4.121-4.121h0a4.121,4.121,0,0,1,4.121,4.121Z" transform="translate(-713.928 -915.188)" fill="#2e2b60"/>
      <path id="Path_1836" data-name="Path 1836" d="M643.451,832.72h0a4.121,4.121,0,0,1,4.119,4.119v8.555h-8.24v-8.555A4.121,4.121,0,0,1,643.451,832.72Z" transform="translate(-499.473 -650.576)" fill="#a78486"/>
      <path id="Path_1837" data-name="Path 1837" d="M875.132,1192.726H866.89v-8.555a4.121,4.121,0,0,1,4.121-4.121h0a4.121,4.121,0,0,1,4.121,4.121Z" transform="translate(-713.928 -979.813)" fill="#f7e7f2"/>
      <path id="Path_1838" data-name="Path 1838" d="M643.451,915.45h0a4.121,4.121,0,0,1,4.119,4.121v8.555h-8.24v-8.555A4.121,4.121,0,0,1,643.451,915.45Z" transform="translate(-499.473 -715.209)" fill="#2e2b60"/>
      <path id="Path_1839" data-name="Path 1839" d="M875.132,1275.486H866.89v-8.555a4.121,4.121,0,0,1,4.121-4.121h0a4.121,4.121,0,0,1,4.121,4.121Z" transform="translate(-713.928 -1044.47)" fill="#2e2b60"/>
      <path id="Path_1840" data-name="Path 1840" d="M643.451,998.19h0a4.121,4.121,0,0,1,4.119,4.115v8.555h-8.24V1002.3A4.121,4.121,0,0,1,643.451,998.19Z" transform="translate(-499.473 -779.85)" fill="#f7e7f2"/>
      <circle id="Ellipse_56" data-name="Ellipse 56" cx="24.366" cy="24.366" r="24.366" transform="translate(64.252 194.392)" fill="#00eb6e"/>
      <rect id="Rectangle_1045" data-name="Rectangle 1045" width="1.247" height="33.799" transform="translate(89.226 256.617) rotate(180)" fill="#2e2b60"/>
      <rect id="Rectangle_1046" data-name="Rectangle 1046" width="1.247" height="8.113" transform="translate(93.963 232.291) rotate(45)" fill="#2e2b60"/>
      <rect id="Rectangle_1047" data-name="Rectangle 1047" width="1.247" height="8.113" transform="translate(82.392 240.375) rotate(-45)" fill="#2e2b60"/>
      <rect id="Rectangle_1048" data-name="Rectangle 1048" width="1.247" height="8.113" transform="translate(82.392 227.332) rotate(-45)" fill="#2e2b60"/>
      <path id="Path_1841" data-name="Path 1841" d="M1894.028,1379.907a9.2,9.2,0,0,0-4.65,1.256,13.615,13.615,0,0,0-24.637,7.993h38.539A9.249,9.249,0,0,0,1894.028,1379.907Z" transform="translate(-1493.502 -1132.539)" fill="#00eb6e"/>
      <path id="Path_1842" data-name="Path 1842" d="M2206.429,1389.346a7.115,7.115,0,0,0-3.281.8,11.556,11.556,0,0,0-18.777-.761,7.243,7.243,0,0,0-.744-.039,7.146,7.146,0,0,0-7.146,7.146h37.1A7.146,7.146,0,0,0,2206.429,1389.346Z" transform="translate(-1737.05 -1139.876)" fill="#00eb6e"/>
      <path id="Path_1843" data-name="Path 1843" d="M965.053,914.36,943.73,970.974h42.649Z" transform="translate(-737.287 -714.357)" fill="#00eb6e"/>
      <rect id="Rectangle_1049" data-name="Rectangle 1049" width="1.247" height="33.799" transform="translate(227.143 222.818)" fill="#2e2b60"/>
      <rect id="Rectangle_1050" data-name="Rectangle 1050" width="1.247" height="8.113" transform="translate(222.403 232.738) rotate(-135)" fill="#2e2b60"/>
      <rect id="Rectangle_1051" data-name="Rectangle 1051" width="1.247" height="8.113" transform="translate(222.408 247.144) rotate(-135)" fill="#2e2b60"/>
      <rect id="Rectangle_1052" data-name="Rectangle 1052" width="1.247" height="8.113" transform="translate(233.979 239.062) rotate(135)" fill="#2e2b60"/>
      <rect id="Rectangle_1053" data-name="Rectangle 1053" width="1.247" height="8.113" transform="translate(233.977 252.104) rotate(135)" fill="#2e2b60"/>
      <circle id="Ellipse_57" data-name="Ellipse 57" cx="19.097" cy="19.097" r="19.097" transform="translate(287.533 207.849)" fill="#00eb6e"/>
      <rect id="Rectangle_1054" data-name="Rectangle 1054" width="0.978" height="26.488" transform="translate(307.106 256.617) rotate(180)" fill="#2e2b60"/>
      <rect id="Rectangle_1055" data-name="Rectangle 1055" width="0.978" height="6.359" transform="translate(310.819 237.553) rotate(45)" fill="#2e2b60"/>
      <rect id="Rectangle_1056" data-name="Rectangle 1056" width="0.978" height="6.359" transform="translate(301.749 243.887) rotate(-45)" fill="#2e2b60"/>
      <rect id="Rectangle_1057" data-name="Rectangle 1057" width="0.978" height="6.359" transform="translate(301.749 233.658) rotate(-45)" fill="#2e2b60"/>
      <circle id="Ellipse_58" data-name="Ellipse 58" cx="19.097" cy="19.097" r="19.097" transform="translate(313.019 207.849)" fill="#00eb6e"/>
      <rect id="Rectangle_1058" data-name="Rectangle 1058" width="0.978" height="26.488" transform="translate(332.595 256.617) rotate(180)" fill="#2e2b60"/>
      <rect id="Rectangle_1059" data-name="Rectangle 1059" width="0.978" height="6.359" transform="translate(336.307 237.552) rotate(45)" fill="#2e2b60"/>
      <rect id="Rectangle_1060" data-name="Rectangle 1060" width="0.978" height="6.359" transform="translate(327.238 243.887) rotate(-45)" fill="#2e2b60"/>
      <rect id="Rectangle_1061" data-name="Rectangle 1061" width="0.978" height="6.359" transform="translate(327.237 233.657) rotate(-45)" fill="#2e2b60"/>
      <path id="Path_1844" data-name="Path 1844" d="M1026.679,1388.545a13.615,13.615,0,0,0-24.637-7.993,9.249,9.249,0,0,0-13.9,7.993Z" transform="translate(-808.655 -1132.062)" fill="#00eb6e"/>
      <path id="Path_1845" data-name="Path 1845" d="M1456.216,1389.351a7.115,7.115,0,0,0-3.281.8,11.556,11.556,0,0,0-18.775-.761,7.245,7.245,0,0,0-.744-.039,7.147,7.147,0,0,0-7.146,7.146h37.1A7.147,7.147,0,0,0,1456.216,1389.351Z" transform="translate(-1150.946 -1139.881)" fill="#00eb6e"/>
      <path id="Path_1846" data-name="Path 1846" d="M453.726,914.36,432.4,970.974h42.651Z" transform="translate(-337.808 -714.357)" fill="#00eb6e"/>
      <rect id="Rectangle_1062" data-name="Rectangle 1062" width="1.247" height="33.799" transform="translate(115.294 222.818)" fill="#ab547a"/>
      <rect id="Rectangle_1063" data-name="Rectangle 1063" width="1.247" height="8.113" transform="translate(110.558 232.737) rotate(-135)" fill="#ab547a"/>
      <rect id="Rectangle_1064" data-name="Rectangle 1064" width="1.247" height="8.113" transform="translate(110.56 247.146) rotate(-135)" fill="#ab547a"/>
      <rect id="Rectangle_1065" data-name="Rectangle 1065" width="1.247" height="8.113" transform="translate(122.129 239.065) rotate(135)" fill="#ab547a"/>
      <rect id="Rectangle_1066" data-name="Rectangle 1066" width="1.247" height="8.113" transform="translate(122.129 252.107) rotate(135)" fill="#ab547a"/>
    </g>
  </g>
</svg>
