<svg xmlns="http://www.w3.org/2000/svg" xmlns:xlink="http://www.w3.org/1999/xlink" width="409.319" height="308.237" viewBox="0 0 409.319 308.237">
  <defs>
    <linearGradient id="linear-gradient" x1="1" y1="0.5" x2="0" y2="0.5" gradientUnits="objectBoundingBox">
      <stop offset="0" stop-color="#003faa"/>
      <stop offset="1" stop-color="#1d246a"/>
    </linearGradient>
    <linearGradient id="linear-gradient-2" x1="1" y1="0.5" x2="0" y2="0.5" gradientUnits="objectBoundingBox">
      <stop offset="0" stop-color="#04a"/>
      <stop offset="1" stop-color="#14009c"/>
    </linearGradient>
    <linearGradient id="linear-gradient-3" y1="0.5" x2="1" y2="0.5" gradientUnits="objectBoundingBox">
      <stop offset="0" stop-color="#ffc06c"/>
      <stop offset="1" stop-color="#f2a040"/>
    </linearGradient>
    <linearGradient id="linear-gradient-4" x1="0" y1="0.5" y2="0.5" xlink:href="#linear-gradient-3"/>
    <linearGradient id="linear-gradient-5" x1="0" y1="0.5" y2="0.5" xlink:href="#linear-gradient-3"/>
    <linearGradient id="linear-gradient-6" x1="0.128" y1="0.5" x2="0.875" y2="0.5" xlink:href="#linear-gradient-3"/>
    <linearGradient id="linear-gradient-7" x1="0.062" y1="0.433" x2="0.722" y2="0.534" xlink:href="#linear-gradient-3"/>
  </defs>
  <g id="Group_896" data-name="Group 896" transform="translate(-470 -393)">
    <g id="Group_895" data-name="Group 895">
      <g id="Layer_2" data-name="Layer 2" transform="translate(470 393.001)">
        <g id="Layer_2-2" data-name="Layer 2" transform="translate(0 -0.001)">
          <path id="Path_1914" data-name="Path 1914" d="M131.962,446.8s-26.753-.785-37.563-21.764c-8.5-16.521-3.749-40.773,31.939-47.208,22.188-4.009-16.876-48.047,31.037-58.683s47.449-58.093,94.68-67.446,47.311,57.134,89.594,64.164,72.137,25.544,61.773,60.092,13.442,35.891,16.99,51.329-6.489,19.519-6.489,19.519Z" transform="translate(-64.769 -178.977)" fill="#eff1fe"/>
          <path id="Path_1915" data-name="Path 1915" d="M353.736,488.121a32.194,32.194,0,0,0-4.522-7.291c-3.253,10.856-10.009,30.412-14.585,22.99-3.11-5.04.727-13.6,5.347-20.9a8.13,8.13,0,0,0-3.313-11.681l-.117-.057a2.466,2.466,0,0,0-3.471,1.664c-2.6,11.254-7.984,31.014-12.6,24.714-3.565-4.868.381-15.59,4.519-24.055a4.94,4.94,0,0,0-3.568-7.033l-.089-.017a1.962,1.962,0,0,0-2.262,1.526c-1.95,9.221-5.851,23.064-11.168,19.327-3.531-2.483-1.95-9.1.839-15.613a4.82,4.82,0,0,0-4.416-6.69h-.095a2.062,2.062,0,0,0-2.059,1.879c-.573,6.2-1.964,14.785-5.358,13.6-1.667-.573-1.964-3.016-1.6-6.062a7.529,7.529,0,0,0-8.356-8.388c-6.5.779-10.719,1.718-10.719,1.718s-.218,4.911.252,12.2a5.123,5.123,0,0,0,6.449,4.6c3.081-.81,6.208-.7,8.23,1.79,3.614,4.456-5.341,5.4-11.26,5.556a1.881,1.881,0,0,0-1.81,2.185l.02.112a7.185,7.185,0,0,0,9.015,5.7c3.081-.859,6.16-.687,7.938,2.088,3.09,4.828-6.226,5.951-12.408,6.177a.954.954,0,0,0-.859,1.254l.043.129a8.621,8.621,0,0,0,12.887,4.482c4.837-3.116,10.258-5.178,14.258-2.672,6.269,3.929-7.28,9.857-16.429,13.2a2.374,2.374,0,0,0-1.054,3.7l.358.441a7.749,7.749,0,0,0,10.464,1.406c3.943-2.8,8.648-4.8,12.887-3.027,5.493,2.291-.387,6.26-6.46,9.241a1.821,1.821,0,0,0,.4,3.428C334.046,544.9,367.09,517.792,353.736,488.121Z" transform="translate(-197.029 -331.838)" fill="#00eb6e"/>
          <path id="Path_1916" data-name="Path 1916" d="M365.972,515.448a.258.258,0,0,0-.452-.241c-.086.163-8.783,16.323-18.5,22.019-1.962-2.383-4.035-4.808-6.166-7.231a.24.24,0,0,0-.02-.043.252.252,0,0,0-.083-.072q-1.97-2.239-3.989-4.465c6.641-3.651,10.424-11.057,12.428-16.667a57.3,57.3,0,0,0,2.826-11.572.258.258,0,1,0-.51-.057c-.023.212-2.48,21.077-15.109,27.9-2.595-2.864-5.218-5.664-7.772-8.356a.241.241,0,0,0-.017-.037.252.252,0,0,0-.086-.072q-2.242-2.358-4.393-4.582c7.867-3.961,11.741-18.184,11.9-18.8a.258.258,0,0,0-.5-.132c-.04.149-4.023,14.788-11.781,18.542-1.922-1.976-3.763-3.846-5.478-5.573a.249.249,0,0,0-.083-.083c-1.048-1.054-2.05-2.053-3-2.993,4.662-3.946,5.959-16.9,5.959-17.025a.255.255,0,0,0-.249-.255.263.263,0,0,0-.263.246c0,.126-1.346,12.95-5.81,16.667-4.877-4.843-8.153-7.938-8.267-8.05a.258.258,0,0,0-.352.372c.137.132,4.825,4.582,11.415,11.2-7.8,4.041-18.918,3.4-19.029,3.391a.258.258,0,1,0-.031.513c.029,0,.719.043,1.864.043,3.574,0,11.566-.392,17.577-3.565,3.036,3.053,6.455,6.549,10.009,10.284-8.938,6.5-22.623,8.591-22.761,8.625a.258.258,0,0,0,.037.51h.037c.14-.02,14-2.148,23.041-8.757,3.915,4.121,7.981,8.522,11.864,12.932-14.258,10.089-26.549,11.409-26.673,11.42a.258.258,0,0,0,.026.513h.026c.123,0,12.566-1.343,26.962-11.544,3.342,3.806,6.544,7.615,9.387,11.249-10.069,7.973-14.926,7.391-14.986,7.383a.258.258,0,0,0-.077.507,2.919,2.919,0,0,0,.418.023c1.392,0,6.229-.593,14.96-7.509a97.361,97.361,0,0,1,8.225,12.028.258.258,0,1,0,.45-.249,100.066,100.066,0,0,0-8.4-12.251.12.12,0,0,0-.057-.074q-1.509-1.933-3.15-3.926C357.163,531.811,365.886,515.611,365.972,515.448Z" transform="translate(-212.882 -346.581)" fill="#efefef"/>
          <path id="Path_1917" data-name="Path 1917" d="M824.051,405.8a32.192,32.192,0,0,0,6.609-5.47c-11.2-1.747-31.5-5.788-24.757-11.329,4.582-3.766,13.574-1.125,21.438,2.46a8.13,8.13,0,0,0,11.123-4.868l.04-.123a2.466,2.466,0,0,0-2.122-3.213c-11.5-1.045-31.81-3.7-26.2-9.124,4.339-4.192,15.5-1.741,24.442,1.214a4.94,4.94,0,0,0,6.483-4.49v-.092a1.962,1.962,0,0,0-1.818-2.036c-9.4-.679-23.643-2.666-20.662-8.439,1.979-3.834,8.754-3.167,15.581-1.289a4.82,4.82,0,0,0,6.037-5.289v-.095a2.062,2.062,0,0,0-2.142-1.787c-6.22.286-14.917.06-14.2-3.462.349-1.718,2.721-2.357,5.788-2.406a7.529,7.529,0,0,0,7.159-9.419c-1.655-6.34-3.15-10.387-3.15-10.387s-4.894.45-12.05,1.9a5.123,5.123,0,0,0-3.683,7.013c1.22,2.941,1.538,6.057-.656,8.4-3.923,4.187-6.074-4.559-7.033-10.4a1.881,1.881,0,0,0-2.411-1.495l-.109.034a7.185,7.185,0,0,0-4.424,9.705c1.26,2.938,1.518,6.014-.991,8.147-4.361,3.723-6.738-5.361-7.8-11.455a.954.954,0,0,0-1.36-.69l-.123.06a8.621,8.621,0,0,0-2.692,13.376c3.743,4.367,6.523,9.45,4.582,13.763-3.041,6.744-10.756-5.873-15.309-14.487a2.374,2.374,0,0,0-3.812-.541l-.381.418a7.749,7.749,0,0,0,.026,10.558c3.31,3.528,5.928,7.918,4.748,12.354-1.532,5.756-6.254.467-10.023-5.155a1.821,1.821,0,0,0-3.333.859C765.133,394,796.468,423.062,824.051,405.8Z" transform="translate(-547.206 -232.757)" fill="#00eb6e"/>
          <path id="Path_1918" data-name="Path 1918" d="M823.247,428.859a.258.258,0,0,0,.177-.481c-.175-.063-17.354-6.486-24.324-15.335,2.093-2.268,4.215-4.651,6.326-7.091a.249.249,0,0,0,.04-.026.254.254,0,0,0,.06-.092c1.3-1.5,2.6-3.03,3.883-4.559,4.513,6.083,12.365,8.829,18.2,10.063a57.291,57.291,0,0,0,11.85,1.229.258.258,0,1,0,0-.513c-.212,0-21.217.4-29.694-11.168,2.477-2.958,4.906-5.939,7.222-8.834a.241.241,0,0,0,.034-.023.253.253,0,0,0,.06-.094c1.355-1.692,2.669-3.356,3.935-4.974,4.991,7.257,19.611,9.164,20.238,9.238a.258.258,0,0,0,.063-.51c-.152-.02-15.2-1.979-19.969-9.164,1.7-2.171,3.3-4.25,4.777-6.186a.249.249,0,0,0,.072-.094c.9-1.183,1.758-2.311,2.56-3.373,4.542,4.084,17.555,3.608,17.675,3.591a.255.255,0,0,0,.218-.286.263.263,0,0,0-.286-.226c-.126,0-13.013.424-17.3-3.5,4.144-5.5,6.773-9.164,6.873-9.29a.258.258,0,0,0-.418-.286c-.112.155-3.883,5.4-9.545,12.829-5.06-7.176-5.937-18.282-5.942-18.394a.258.258,0,0,0-.513.037c0,.029.057.719.212,1.853.484,3.542,1.959,11.406,5.919,16.93-2.629,3.408-5.627,7.28-8.837,11.289-7.658-7.973-11.6-21.243-11.635-21.378a.258.258,0,0,0-.5.106.281.281,0,0,0,0,.037c.04.135,4.026,13.58,11.8,21.638-3.551,4.439-7.36,9.064-11.2,13.511-11.93-12.758-14.908-24.754-14.937-24.874a.258.258,0,0,0-.5.094v.026c.029.123,3.036,12.268,15.1,25.146-3.319,3.829-6.655,7.517-9.871,10.828-9.267-8.892-9.35-13.783-9.347-13.846a.258.258,0,0,0-.513,0,2.942,2.942,0,0,0,.034.418c.189,1.377,1.432,6.091,9.47,13.8a97.991,97.991,0,0,1-10.79,9.78.258.258,0,0,0,.306.412,98.857,98.857,0,0,0,11-9.986.12.12,0,0,0,.066-.069q1.718-1.758,3.462-3.648C805.842,422.35,823.073,428.793,823.247,428.859Z" transform="translate(-559.36 -257.687)" fill="#efefef"/>
          <path id="Path_1919" data-name="Path 1919" d="M405.394,934.947H.352A.352.352,0,0,1,0,934.592H0a.352.352,0,0,1,.352-.352H405.394a.352.352,0,0,1,.352.352h0a.352.352,0,0,1-.352.355Z" transform="translate(0 -666.701)" fill="#44465f"/>
          <path id="Path_1920" data-name="Path 1920" d="M86.293,748.908s-10.355,3.906-10.309-2.944,3.245-8.551-1.392-11.125-7.514-3.5-6.69-8.5-9.994-9.221-8.912-14.782,9.479-4.482,12.827-.722,11.383.825,12.887,9.376,1.959,7.417,7.314,11.589S95.465,746.548,86.293,748.908Z" transform="translate(-42.043 -505.035)" fill="#00eb6e"/>
          <path id="Path_1921" data-name="Path 1921" d="M110.135,775.405H110.1a.822.822,0,0,1-.785-.859,46.852,46.852,0,0,0-1.976-13.336,53.173,53.173,0,0,0-16.667-25.819.823.823,0,0,1,1.068-1.251,54.814,54.814,0,0,1,17.2,26.684,47.4,47.4,0,0,1,2.022,13.8A.822.822,0,0,1,110.135,775.405Z" transform="translate(-64.5 -523.763)" fill="#44465f"/>
          <path id="Path_1922" data-name="Path 1922" d="M152.476,764.753s9.061,3.419,9.015-2.577-2.841-7.483,1.217-9.737,6.587-3.064,5.859-7.446,8.743-8.067,7.8-12.935-8.3-3.92-11.223-.63-9.96.722-11.269,8.2-1.718,6.489-6.4,10.14S144.452,762.685,152.476,764.753Z" transform="translate(-103.392 -520.009)" fill="#00eb6e"/>
          <path id="Path_1923" data-name="Path 1923" d="M165.107,787.8a.822.822,0,0,1-.822-.782,41.8,41.8,0,0,1,1.773-12.1,48.061,48.061,0,0,1,15.08-23.405.823.823,0,0,1,1.068,1.251A46.423,46.423,0,0,0,167.659,775.3a40.506,40.506,0,0,0-1.718,11.644.822.822,0,0,1-.788.859Z" transform="translate(-117.235 -536.159)" fill="#44465f"/>
          <path id="Path_1924" data-name="Path 1924" d="M143.071,892.939h-16.08a1.538,1.538,0,0,1-1.512-1.263l-2.54-14.006a1.538,1.538,0,0,1,1.512-1.81H145.6a1.538,1.538,0,0,1,1.512,1.81l-2.534,14a1.538,1.538,0,0,1-1.506,1.266Z" transform="translate(-87.716 -625.04)" fill="#44465f"/>
          <path id="Path_1925" data-name="Path 1925" d="M1312.074,748.908s10.355,3.906,10.309-2.944-3.245-8.551,1.392-11.125,7.52-3.5,6.7-8.5,9.994-9.221,8.912-14.782-9.479-4.482-12.827-.722-11.383.825-12.886,9.376-1.959,7.417-7.314,11.589S1302.9,746.548,1312.074,748.908Z" transform="translate(-930.14 -505.035)" fill="#00eb6e"/>
          <path id="Path_1926" data-name="Path 1926" d="M1326.791,775.4h.037a.822.822,0,0,0,.785-.859,46.849,46.849,0,0,1,1.976-13.336,53.173,53.173,0,0,1,16.667-25.822.823.823,0,1,0-1.068-1.251,54.815,54.815,0,0,0-17.2,26.684,47.407,47.407,0,0,0-2.022,13.8A.822.822,0,0,0,1326.791,775.4Z" transform="translate(-946.242 -523.756)" fill="#44465f"/>
          <path id="Path_1927" data-name="Path 1927" d="M1257.134,764.753s-9.061,3.419-9.015-2.577,2.841-7.483-1.217-9.737-6.587-3.064-5.859-7.446-8.743-8.067-7.8-12.935,8.3-3.92,11.223-.63,9.96.722,11.269,8.2,1.718,6.489,6.4,10.14S1265.158,762.685,1257.134,764.753Z" transform="translate(-880.033 -520.009)" fill="#00eb6e"/>
          <path id="Path_1928" data-name="Path 1928" d="M1277.73,787.808a.822.822,0,0,0,.822-.788,41.806,41.806,0,0,0-1.773-12.1,48.061,48.061,0,0,0-15.08-23.4.823.823,0,0,0-1.068,1.251,46.423,46.423,0,0,1,14.548,22.534,40.5,40.5,0,0,1,1.718,11.644.822.822,0,0,0,.788.859Z" transform="translate(-899.418 -536.166)" fill="#44465f"/>
          <path id="Path_1929" data-name="Path 1929" d="M1284.786,892.946h16.08a1.538,1.538,0,0,0,1.512-1.263l2.534-14a1.538,1.538,0,0,0-1.512-1.81h-21.148a1.538,1.538,0,0,0-1.512,1.81l2.534,14A1.538,1.538,0,0,0,1284.786,892.946Z" transform="translate(-913.957 -625.047)" fill="#44465f"/>
          <rect id="Rectangle_1085" data-name="Rectangle 1085" width="254.082" height="11.569" rx="5.785" transform="translate(90.338 296.668)" fill="#eff1fe"/>
          <rect id="Rectangle_1086" data-name="Rectangle 1086" width="26.438" height="11.569" rx="5.785" transform="translate(55.269 296.668)" fill="#eff1fe"/>
          <path id="Path_1930" data-name="Path 1930" d="M971.176,966.729H956.3a5.8,5.8,0,0,1-5.785-5.785h0a5.8,5.8,0,0,1,5.785-5.785h14.871a5.8,5.8,0,0,1,5.785,5.785h0A5.8,5.8,0,0,1,971.176,966.729Z" transform="translate(-678.32 -681.63)" fill="#eff1fe"/>
          <path id="Path_1931" data-name="Path 1931" d="M307.35,966.729H260.245a5.8,5.8,0,0,1-5.785-5.785h0a5.8,5.8,0,0,1,5.785-5.785H307.35a5.8,5.8,0,0,1,5.785,5.785h0A5.8,5.8,0,0,1,307.35,966.729Z" transform="translate(-181.59 -681.63)" fill="#eff1fe"/>
          <path id="Path_1932" data-name="Path 1932" d="M1083,966.729h-5.358a5.8,5.8,0,0,1-5.785-5.785h0a5.8,5.8,0,0,1,5.785-5.785H1083a5.8,5.8,0,0,1,5.785,5.785h0A5.8,5.8,0,0,1,1083,966.729Z" transform="translate(-764.912 -681.63)" fill="#eff1fe"/>
          <path id="Path_1933" data-name="Path 1933" d="M610.5,966.729H501.315a5.8,5.8,0,0,1-5.785-5.785h0a5.8,5.8,0,0,1,5.785-5.785H610.5a5.8,5.8,0,0,1,5.785,5.785h0A5.8,5.8,0,0,1,610.5,966.729Z" transform="translate(-353.625 -681.63)" fill="#eff1fe"/>
          <path id="Path_1934" data-name="Path 1934" d="M642.2,1001.345h0a5.8,5.8,0,0,1,5.785-5.785H556.4a5.8,5.8,0,0,1,5.785,5.785h0a5.8,5.8,0,0,1-5.785,5.785h91.587a5.8,5.8,0,0,1-5.79-5.785Z" transform="translate(-397.064 -710.461)" fill="#eff1fe"/>
          <path id="Path_1935" data-name="Path 1935" d="M135.182,74.97h61.873a9.928,9.928,0,0,0-7.059-9.5,11.14,11.14,0,0,0-10.73-8.7,16.982,16.982,0,0,0-31.841,4.906h-.241A12.073,12.073,0,0,0,135.11,73.741a12.213,12.213,0,0,0,.06,1.226Z" transform="translate(-96.419 -33.935)" fill="#eff1fe"/>
          <path id="Path_1936" data-name="Path 1936" d="M1083.765,137.482h71.9a11.534,11.534,0,0,0-8.2-11.042,12.947,12.947,0,0,0-12.473-10.121,19.731,19.731,0,0,0-37,5.727h-.286a14.032,14.032,0,0,0-14.032,14.032,14.2,14.2,0,0,0,.072,1.432Z" transform="translate(-773.34 -75.368)" fill="#eff1fe"/>
          <path id="Path_1937" data-name="Path 1937" d="M811.527,98.278l6.223-.132a9.361,9.361,0,0,0,9.138-9.53h0c0-.553-4.493-9.244-9.53-9.138l-6.223.132A9.364,9.364,0,0,0,802,89.14h0A9.364,9.364,0,0,0,811.527,98.278Z" transform="translate(-572.328 -56.717)" fill="#7c87ed"/>
          <path id="Path_1938" data-name="Path 1938" d="M608.625,143.891l23.1,47.3a4.8,4.8,0,0,0,6.415,2.205l12.93-6.3a4.8,4.8,0,0,0,2.205-6.415l-23.1-47.314a4.8,4.8,0,0,0-6.415-2.205l-12.93,6.3a4.8,4.8,0,0,0-2.2,6.426Z" transform="translate(-433.983 -93.255)" fill="url(#linear-gradient)"/>
          <path id="Path_1939" data-name="Path 1939" d="M545.631,19.521l3.511-.074a7,7,0,0,1,5.67,2.721A182.161,182.161,0,0,0,621.1,1.036,2.464,2.464,0,0,1,622.856,0c4.081-.086,7.709,15.08,8.1,33.872s-2.592,34.1-6.672,34.184a2.5,2.5,0,0,1-1.8-.959,182.2,182.2,0,0,0-66.873-18.308,7.007,7.007,0,0,1-5.8,3.33l-3.5.074a7.022,7.022,0,0,1-7.159-6.853l-.392-18.666A7.022,7.022,0,0,1,545.631,19.521Z" transform="translate(-384.479 0.001)" fill="url(#linear-gradient-2)"/>
          <rect id="Rectangle_1087" data-name="Rectangle 1087" width="103.062" height="194.769" rx="30.03" transform="translate(139.665 72.924)" fill="#44465f"/>
          <rect id="Rectangle_1088" data-name="Rectangle 1088" width="93.737" height="150.802" transform="translate(144.328 95.522)" fill="#fff"/>
          <path id="Path_1940" data-name="Path 1940" d="M645.473,889.326H630.4a4.407,4.407,0,0,1-4.4-4.393h0a4.407,4.407,0,0,1,4.393-4.393h15.08a4.407,4.407,0,0,1,4.393,4.393h0A4.407,4.407,0,0,1,645.473,889.326Z" transform="translate(-446.732 -628.38)" fill="#7c87ed"/>
          <path id="Path_1941" data-name="Path 1941" d="M567.53,285.2h0a3.611,3.611,0,0,1-3.6-3.6h0a3.611,3.611,0,0,1,3.6-3.6h0a3.611,3.611,0,0,1,3.6,3.6h0a3.611,3.611,0,0,1-3.6,3.6Z" transform="translate(-402.437 -198.389)" fill="#7c87ed"/>
          <path id="Path_1942" data-name="Path 1942" d="M723.491,287.212h0a2.257,2.257,0,0,1-2.251-2.251h0a2.257,2.257,0,0,1,2.251-2.251h0a2.257,2.257,0,0,1,2.251,2.251h0A2.257,2.257,0,0,1,723.491,287.212Z" transform="translate(-514.699 -201.75)" fill="#7c87ed"/>
          <rect id="Rectangle_1089" data-name="Rectangle 1089" width="18.677" height="3.376" rx="1.688" transform="translate(181.856 81.524)" fill="#7c87ed"/>
          <rect id="Rectangle_1090" data-name="Rectangle 1090" width="31.695" height="31.695" rx="6.98" transform="translate(154.119 115.344)" fill="#dcdffe"/>
          <path id="Path_1943" data-name="Path 1943" d="M570.756,466h-7.964c-6.7,3.92-6.982,13.594-6.982,13.594h21.936S577.482,469.909,570.756,466Z" transform="translate(-396.643 -332.551)" fill="#7c87ed"/>
          <circle id="Ellipse_62" data-name="Ellipse 62" cx="7.973" cy="7.973" r="7.973" transform="translate(161.994 120.118)" fill="#7c87ed"/>
          <rect id="Rectangle_1091" data-name="Rectangle 1091" width="31.695" height="31.695" rx="6.98" transform="translate(196.579 152.272)" fill="#dcdffe"/>
          <path id="Path_1944" data-name="Path 1944" d="M719.066,594.91H711.1c-6.7,3.92-6.982,13.594-6.982,13.594h21.936S725.781,598.828,719.066,594.91Z" transform="translate(-502.481 -424.545)" fill="#7c87ed"/>
          <circle id="Ellipse_63" data-name="Ellipse 63" cx="7.973" cy="7.973" r="7.973" transform="translate(204.454 157.043)" fill="#7c87ed"/>
          <rect id="Rectangle_1092" data-name="Rectangle 1092" width="64.353" height="9.436" rx="4.1" transform="translate(306.774 267.599) rotate(180)" fill="url(#linear-gradient-3)"/>
          <path id="Path_1945" data-name="Path 1945" d="M1.177,0h62a1.174,1.174,0,0,1,1.174,1.174V8.259a1.174,1.174,0,0,1-1.174,1.174h-62A1.177,1.177,0,0,1,0,8.256V1.174A1.174,1.174,0,0,1,1.177,0Z" transform="translate(303.644 258.286) rotate(180)" fill="url(#linear-gradient-4)"/>
          <rect id="Rectangle_1093" data-name="Rectangle 1093" width="64.353" height="9.436" rx="4.1" transform="translate(295.955 248.853) rotate(180)" fill="url(#linear-gradient-5)"/>
          <path id="Path_1946" data-name="Path 1946" d="M1.174,0h62A1.174,1.174,0,0,1,64.35,1.174V8.259a1.177,1.177,0,0,1-1.177,1.177h-62A1.174,1.174,0,0,1,0,8.262V1.177A1.174,1.174,0,0,1,1.174,0Z" transform="translate(309.194 239.42) rotate(180)" fill="url(#linear-gradient-6)"/>
          <rect id="Rectangle_1094" data-name="Rectangle 1094" width="64.353" height="9.436" rx="4.1" transform="translate(234.471 220.571)" fill="url(#linear-gradient-7)"/>
          <path id="Path_1947" data-name="Path 1947" d="M1.177,0h62a1.174,1.174,0,0,1,1.174,1.174V8.259a1.174,1.174,0,0,1-1.174,1.174h-62A1.177,1.177,0,0,1,0,8.256V1.174A1.174,1.174,0,0,1,1.177,0Z" transform="translate(287.931 220.571) rotate(180)" fill="url(#linear-gradient-4)"/>
          <rect id="Rectangle_1095" data-name="Rectangle 1095" width="64.353" height="9.436" rx="4.1" transform="translate(305.511 211.138) rotate(180)" fill="url(#linear-gradient-3)"/>
          <circle id="Ellipse_64" data-name="Ellipse 64" cx="32.254" cy="32.254" r="32.254" transform="translate(238.108 137.421)" fill="url(#linear-gradient-4)"/>
          <path id="Path_1948" data-name="Path 1948" d="M883.227,507.2a24.427,24.427,0,1,0,24.427,24.427A24.427,24.427,0,0,0,883.227,507.2Z" transform="translate(-612.866 -361.953)" fill="url(#linear-gradient-4)"/>
          <path id="Path_1949" data-name="Path 1949" d="M876.255,551.88a27.225,27.225,0,1,1,27.225-27.225,27.225,27.225,0,0,1-27.225,27.225Zm0-51.653a24.427,24.427,0,1,0,24.427,24.427A24.427,24.427,0,0,0,876.255,500.228Z" transform="translate(-605.893 -354.981)" fill="#fff"/>
          <path id="Path_1950" data-name="Path 1950" d="M1217.4,398.471l7.918.636a1.177,1.177,0,0,1,1.074,1.3l-1.833,16.512a1.174,1.174,0,0,1-1.3,1.037l-7.864-.876a1.177,1.177,0,0,1-1.037-1.3l1.784-16.269A1.174,1.174,0,0,1,1217.4,398.471Z" transform="translate(-866.601 -284.358)" fill="#44465f"/>
          <path id="Path_1951" data-name="Path 1951" d="M1226.218,447.619a42.626,42.626,0,0,0,5-10.962,10.416,10.416,0,0,0-2.194-9.656l-.358,2.9s-5.286-4.152-7.872-2.039-2.193,6.114,1.882,9.954l-1.647,3.136Z" transform="translate(-870.034 -304.72)" fill="#ff9dca"/>
          <path id="Path_1952" data-name="Path 1952" d="M1154.76,400s3.54,7.474,14.424,24.966l6.277-4.436,6.426,7.907-11.211,9.737a5.8,5.8,0,0,1-8.119-.5l-3.084-3.436Z" transform="translate(-824.071 -285.452)" fill="#3855e5"/>
          <path id="Path_1953" data-name="Path 1953" d="M1082.533,859.7l-5.63,6.609a.765.765,0,0,0-.135,1.105l10.954,13.073a.573.573,0,0,0,1.022-.286c.149-1.168-.146-3.391-2.6-7.159l4.024-6.171Z" transform="translate(-768.288 -613.508)" fill="#4a63fe"/>
          <path id="Path_1954" data-name="Path 1954" d="M1113.25,592.18l12.927,30.59a10.9,10.9,0,0,1-1.131,10.518l-32.03,45.464-12.915-7.374,29.276-46.105L1094.2,603.42Z" transform="translate(-770.792 -422.597)" fill="#333649"/>
          <path id="Path_1955" data-name="Path 1955" d="M1148.68,895.24l2.411,9.923a.765.765,0,0,0,.773.8l17.056-.206a.573.573,0,0,0,.415-.982c-.811-.859-2.718-2.033-7.179-2.511l-2.165-7.6Z" transform="translate(-819.733 -638.463)" fill="#4a63fe"/>
          <path id="Path_1956" data-name="Path 1956" d="M1101.916,681.671l-14.714-71.63,14.456-17.861h-37.62a43.4,43.4,0,0,0,1.412,15.644,47.075,47.075,0,0,0,5.962,13.1l16.137,62.91Z" transform="translate(-759.198 -422.597)" fill="#44465f"/>
          <path id="Path_1957" data-name="Path 1957" d="M1047.716,382.7l15.115.822a7.446,7.446,0,0,1,6.675,5.12c2.357,7.222,6.438,20.9,6.658,29.782.312,12.54,5.979,24.253,5.979,24.253s-13.459,3.15-23.482,3.053a155.232,155.232,0,0,1-17.554-1.125s-2.237-19.6-2.709-24.611-3.677-27.549-3.677-27.549S1036.822,383.327,1047.716,382.7Z" transform="translate(-738.407 -273.106)" fill="#4a63fe"/>
          <path id="Path_1958" data-name="Path 1958" d="M1109.93,379.42" transform="translate(-792.079 -270.765)" fill="#fff"/>
          <path id="Path_1959" data-name="Path 1959" d="M1150.128,460.823s3.92-2.377,6.271-2.217,6-2.391,4.115-7.637c0,0,4.762-1.839,5.232-2.6s.286-1.718-1.881-1.586-16.635,5.641-16.635,5.641Z" transform="translate(-818.698 -318.826)" fill="#ff9dca"/>
          <path id="Path_1960" data-name="Path 1960" d="M1016.2,416.77l-7.142,26.1a7.6,7.6,0,0,0,9.986,9.124l32.964-12.3-3.287-9.273-25.083,6.506,3.136-10.951Z" transform="translate(-719.898 -297.419)" fill="#4a63fe"/>
          <path id="Path_1961" data-name="Path 1961" d="M1089.727,353.1l-2.783-.378a4.038,4.038,0,0,1-3.456-4.545l2-14.823,10.753,1.7-1.982,14.585A4.038,4.038,0,0,1,1089.727,353.1Z" transform="translate(-773.183 -237.888)" fill="#ff9dca"/>
          <path id="Path_1962" data-name="Path 1962" d="M1086.186,289.43l-.825,6.068c-1.191-.266-3.9-.621-4.582,1.452a26.538,26.538,0,0,0-.939,6.506l3.15,9.582,9.258,1.257a4.21,4.21,0,0,0,4.74-3.605l2.64-19.436Z" transform="translate(-770.606 -206.546)" fill="#ff9dca"/>
          <path id="Path_1963" data-name="Path 1963" d="M1072.8,290.84a25.458,25.458,0,0,1-1.607,7.242s-4.3-8.772-5.639-13.411,3.21-6.091,3.21-6.091-.349-3.528,3.3-6.733,9.1-2.05,12.245.659,9.379,6.455,11.34,6.515c0,0-5.942,4.064-10.086,3.293s-6.91.513-10.094,4.121c0,0-2.577-2.646-4.464-.71C1068.877,287.924,1072.8,290.84,1072.8,290.84Z" transform="translate(-760.233 -192.615)" fill="#44465f"/>
          <path id="Path_1964" data-name="Path 1964" d="M1062.9,452.76q-.636,2.483-1.309,4.957l-.673,2.474-.676,2.471-.206-.212c2.082-.573,4.172-1.12,6.26-1.67s4.175-1.108,6.266-1.644l6.277-1.6c2.091-.541,4.19-1.048,6.286-1.569l.132-.031.043.126.647,1.924.647,1.927c.427,1.286.859,2.577,1.277,3.86-.49-1.266-.962-2.534-1.432-3.8l-.713-1.9-.7-1.907.175.092c-2.085.573-4.167,1.145-6.254,1.684l-6.263,1.649c-2.088.55-4.184,1.074-6.274,1.609s-4.184,1.074-6.28,1.584l-.286.072.086-.286.733-2.454.739-2.454C1061.89,456.025,1062.383,454.387,1062.9,452.76Z" transform="translate(-756.334 -323.103)" fill="#44465f"/>
          <path id="Path_1965" data-name="Path 1965" d="M1013.658,440.43c-.747,2.915-1.523,5.819-2.291,8.731l-2.334,8.717c-.192.725-.4,1.455-.573,2.176a7.531,7.531,0,0,0-.232,2.176,7.3,7.3,0,0,0,1.458,4.066,7.594,7.594,0,0,0,3.477,2.577,7.245,7.245,0,0,0,4.3.163c.7-.186,1.4-.484,2.1-.742l2.113-.79,4.227-1.581c2.818-1.048,5.633-2.116,8.456-3.15l8.468-3.119c2.829-1.022,5.653-2.062,8.485-3.073-2.795,1.111-5.6,2.191-8.4,3.288l-8.408,3.236c-2.806,1.085-5.621,2.139-8.434,3.21l-4.218,1.6-2.111.8c-.707.258-1.392.556-2.148.765a7.706,7.706,0,0,1-4.582-.195,8.018,8.018,0,0,1-3.668-2.735,7.686,7.686,0,0,1-1.263-6.586c.2-.73.407-1.449.61-2.174l2.46-8.683C1011.988,446.209,1012.807,443.317,1013.658,440.43Z" transform="translate(-719.206 -314.304)" fill="#44465f"/>
          <path id="Path_1966" data-name="Path 1966" d="M395.71,602.519s-4.333,0-5.633,6.5,3.757,10.544,3.757,10.544-4.791,8.835-1.048,14.591,41.853,11.168,41.853,11.168,6.286-10.8-5.7-20.905c0,0,2.311-13.073-9.164-18.634A38.947,38.947,0,0,0,395.71,602.519Z" transform="translate(-278.219 -429.514)" fill="#44465f"/>
          <path id="Path_1967" data-name="Path 1967" d="M376.065,696H372.4a7.586,7.586,0,0,0-6.7,4.029l-9.969,18.777,11.048,6.117,10.221-4.7Z" transform="translate(-253.86 -496.686)" fill="#fe4e1c"/>
          <path id="Path_1968" data-name="Path 1968" d="M427.356,692.2l-23.769,1.1L394.3,718.454v20.69l16.524,7.981,19.679-1.881,3.29-3.88a29.687,29.687,0,0,1-4.233-12.695c-.581-7.2.352-20.573.352-20.573Z" transform="translate(-281.384 -493.974)" fill="#fe4e1c"/>
          <path id="Path_1969" data-name="Path 1969" d="M401.8,740.63c-.192.8-.427,1.586-.679,2.365s-.521,1.552-.8,2.323-.573,1.529-.9,2.291-.647,1.506-1.022,2.239c.192-.8.427-1.587.679-2.365s.521-1.552.8-2.32.573-1.529.9-2.291S401.436,741.363,401.8,740.63Z" transform="translate(-284.31 -528.536)" fill="#1e1c1b"/>
          <path id="Path_1970" data-name="Path 1970" d="M489.467,692.2l2.918-.266a9.078,9.078,0,0,1,8.27,5.335l9.7,21.441a7.869,7.869,0,0,1-3.233,10.057l-16.4,9.482-3.646-10.934,11.4-8.465-5.876-9.233" transform="translate(-347.588 -493.782)" fill="#fe4e1c"/>
          <path id="Path_1971" data-name="Path 1971" d="M497.792,758.84c.45.621.879,1.257,1.32,1.884s.859,1.266,1.292,1.9q1.277,1.913,2.52,3.846l.115.178-.172.129q-1.206.908-2.426,1.8c-.808.6-1.629,1.186-2.443,1.776s-1.641,1.168-2.469,1.744-1.658,1.146-2.5,1.7c.773-.647,1.564-1.271,2.351-1.9s1.586-1.243,2.383-1.859,1.6-1.226,2.408-1.824,1.612-1.206,2.426-1.8l-.057.306q-1.228-1.945-2.417-3.912c-.4-.656-.79-1.314-1.177-1.976S498.176,759.513,497.792,758.84Z" transform="translate(-351.841 -541.531)" fill="#1e1c1b"/>
          <path id="Path_1972" data-name="Path 1972" d="M519.111,753.56c.733,1.452,1.432,2.918,2.159,4.376l2.113,4.4a8.033,8.033,0,0,1,.819,4.845,8.2,8.2,0,0,1-2.148,4.444,8.921,8.921,0,0,1-1.987,1.509l-2.128,1.194c-1.432.793-2.829,1.6-4.258,2.377l-4.276,2.348c-1.432.767-2.864,1.549-4.3,2.305,1.389-.859,2.792-1.67,4.187-2.506l4.21-2.463c1.4-.828,2.818-1.624,4.227-2.434l2.116-1.211a8.522,8.522,0,0,0,1.87-1.432,7.749,7.749,0,0,0,2.062-4.184,7.962,7.962,0,0,0,0-2.363,8.746,8.746,0,0,0-.713-2.268l-2-4.45C520.4,756.55,519.735,755.058,519.111,753.56Z" transform="translate(-360.462 -537.763)" fill="#1e1c1b"/>
          <path id="Path_1973" data-name="Path 1973" d="M328.537,908.568,332,908.09l.573,4.4,1,4.327-3.414.768a16.761,16.761,0,0,1-8.388,2c-4.757-.163-7.849-1.506-8.978-3.388a.286.286,0,0,1-.049-.286c.4-2.159,2.821-4.5,7.222-6.32A16.761,16.761,0,0,1,328.537,908.568Z" transform="translate(-223.17 -648.04)" fill="#fe4e1c"/>
          <path id="Path_1974" data-name="Path 1974" d="M538.214,908.568l-3.465-.478-.573,4.4-1,4.327,3.414.768a16.761,16.761,0,0,0,8.388,2c4.757-.163,7.849-1.506,8.978-3.388a.286.286,0,0,0,.049-.286c-.4-2.159-2.821-4.5-7.222-6.32A16.761,16.761,0,0,0,538.214,908.568Z" transform="translate(-380.493 -648.04)" fill="#fe4e1c"/>
          <rect id="Rectangle_1096" data-name="Rectangle 1096" width="46.094" height="3.565" transform="translate(105.381 244.466)" fill="#44465f"/>
          <path id="Path_1975" data-name="Path 1975" d="M370.657,877.639l-3.187-14.6L423.387,848.4a9.43,9.43,0,0,1,11.483,6.627h0a9.43,9.43,0,0,1-7.325,11.761Z" transform="translate(-262.238 -605.221)" fill="#333649"/>
          <path id="Path_1976" data-name="Path 1976" d="M338.076,763.22H378.62a1.412,1.412,0,0,1,1.377,1.1l5.59,24.8H341.349L336.7,764.9a1.412,1.412,0,0,1,1.377-1.675Z" transform="translate(-240.26 -544.656)" fill="#7c87ed"/>
          <path id="Path_1977" data-name="Path 1977" d="M379.264,877.624l3.187-14.6-55.908-14.642A9.43,9.43,0,0,0,315.06,855h0a9.43,9.43,0,0,0,7.325,11.761Z" transform="translate(-224.596 -605.206)" fill="#44465f"/>
          <path id="Path_1978" data-name="Path 1978" d="M446.828,655.08l1.807,10.859a2.145,2.145,0,0,1-1.8,2.471l-6.4.942A2.145,2.145,0,0,1,438,667.546l-1-6.687Z" transform="translate(-311.856 -467.484)" fill="#ff9dca"/>
          <path id="Path_1979" data-name="Path 1979" d="M428.84,627.035l-9.616,1.8a5.61,5.61,0,0,1-6.229-4.642L410.28,607.98l17.695-1.28,2.864,11.541s-.547,2.812-3.073,2.305Z" transform="translate(-292.788 -432.959)" fill="#ff9dca"/>
          <path id="Path_1980" data-name="Path 1980" d="M409.033,588.113s2.136-.742,5.243,1.859,7.758,4.645,14.891,1.89,3.668-12-2.686-15.75-15.6,2.6-17.912,7.222A3.711,3.711,0,0,0,409.033,588.113Z" transform="translate(-291.077 -410.319)" fill="#44465f"/>
          <path id="Path_1981" data-name="Path 1981" d="M438.705,683l8.216-4.023-8.591,1.483Z" transform="translate(-312.805 -484.54)" fill="#ef8fc5"/>
          <text id="_" data-name="₦" transform="translate(251.742 182.913)" fill="#fff" font-size="40" font-family="Montserrat-Bold, Montserrat" font-weight="700"><tspan x="0" y="0">₦</tspan></text>
        </g>
      </g>
    </g>
  </g>
</svg>
