<svg xmlns="http://www.w3.org/2000/svg" xmlns:xlink="http://www.w3.org/1999/xlink" width="87.999" height="88" viewBox="0 0 87.999 88">
  <defs>
    <linearGradient id="linear-gradient" x1="0.5" y1="1.353" x2="0.5" y2="-0.635" gradientUnits="objectBoundingBox">
      <stop offset="0" stop-color="#010e5e"/>
      <stop offset="1" stop-color="#031ec5"/>
    </linearGradient>
  </defs>
  <g id="Group_888" data-name="Group 888" transform="translate(-778.997 -866)">
    <g id="contract" transform="translate(778.998 866)">
      <path id="Path_1793" data-name="Path 1793" d="M198.259,167.333h-2.4l-8.391-6.993a1.469,1.469,0,0,0-.94-.34H163.059a1.467,1.467,0,0,0-1.467,1.467v1.467H145.459a1.467,1.467,0,0,0-1.467,1.467v13.2a1.467,1.467,0,0,0,1.467,1.467h2.326L150.718,182l-1.9,1.9a1.467,1.467,0,0,0,0,2.074l17.6,17.6a1.467,1.467,0,0,0,2.074,0l3.363-3.363.43.43a1.467,1.467,0,0,0,2.074,0l15.7-15.7h8.193a1.467,1.467,0,0,0,1.467-1.467V168.8a1.467,1.467,0,0,0-1.467-1.467Zm-44.43,15.7.43-.43,2.326,2.326-2.326,2.326-2.326-2.326Zm4.83,3.97,2.326,2.326-2.326,2.326-2.326-2.326Zm4.4,4.4,2.326,2.326-2.326,2.326-2.326-2.326Zm4.4,9.052-2.326-2.326,2.326-2.326,2.326,2.326Zm16.133-13.2-6.3-6.3a1.467,1.467,0,0,0-2.074,2.074l6.3,6.3-2.326,2.326-6.3-6.3a1.467,1.467,0,0,0-2.074,2.074l6.3,6.3-3.793,3.793L155.3,179.5a1.467,1.467,0,0,0-2.074,0l-.43.43-3.363-3.363a1.467,1.467,0,0,0-1.037-.43h-1.467V165.867h14.667v1.467a1.467,1.467,0,0,0,1.467,1.467h9.659l14.667,14.667Zm13.2-5.259h-6.726l-15.7-15.7a1.467,1.467,0,0,0-1.037-.43h-8.8v-2.933h21.469l8.39,6.993a1.469,1.469,0,0,0,.94.34h1.467Zm0,0" transform="translate(-117.594 -130.667)" fill="url(#linear-gradient)"/>
      <path id="Path_1794" data-name="Path 1794" d="M209.458,36.533a1.467,1.467,0,0,0,0,2.933h26.4a1.467,1.467,0,0,0,0-2.933h-2.933v-8.8h2.933a1.467,1.467,0,0,0,.814-2.687l-13.2-8.8a1.468,1.468,0,0,0-1.629,0l-13.2,8.8a1.467,1.467,0,0,0,.814,2.687h2.933v8.8Zm11.733,0V33.6h2.933v2.933Zm1.467-17.306,8.36,5.573H214.3Zm-7.333,8.506h14.667v8.8h-2.933v-4.4a1.467,1.467,0,0,0-1.467-1.467h-5.867a1.467,1.467,0,0,0-1.467,1.467v4.4h-2.933Zm0,0" transform="translate(-169.86 -13.066)" fill="url(#linear-gradient)"/>
      <path id="Path_1795" data-name="Path 1795" d="M368.125,384H353.459a1.467,1.467,0,1,0,0,2.933h14.667a1.467,1.467,0,0,0,0-2.933Zm0,0" transform="translate(-287.461 -313.6)" fill="url(#linear-gradient)"/>
      <path id="Path_1796" data-name="Path 1796" d="M368.125,416H353.459a1.467,1.467,0,1,0,0,2.933h14.667a1.467,1.467,0,0,0,0-2.933Zm0,0" transform="translate(-287.461 -339.733)" fill="url(#linear-gradient)"/>
      <path id="Path_1797" data-name="Path 1797" d="M87.9,12.73a1.35,1.35,0,0,0-.049-.137,1.457,1.457,0,0,0-.293-.43L75.829.43A1.43,1.43,0,0,0,75.4.136a1.257,1.257,0,0,0-.147-.051,1.468,1.468,0,0,0-.372-.074C74.861.016,74.832,0,74.8,0H22a1.467,1.467,0,0,0-1.467,1.467V4.761L1.063,10.324A1.466,1.466,0,0,0,.075,12.2L20.531,73.57V86.534A1.467,1.467,0,0,0,22,88H86.532A1.467,1.467,0,0,0,88,86.534V13.2a3.181,3.181,0,0,0-.094-.471Zm-4.913-1H76.265V5.007Zm-79.65.99,17.19-4.911V64.3ZM23.465,85.067V2.933H73.332V13.2A1.467,1.467,0,0,0,74.8,14.667H85.065v70.4Zm0,0" fill="url(#linear-gradient)"/>
    </g>
  </g>
</svg>
