<svg id="tick" xmlns="http://www.w3.org/2000/svg" width="455.112" height="455.112" viewBox="0 0 455.112 455.112">
  <circle id="Ellipse_56" data-name="Ellipse 56" cx="227.556" cy="227.556" r="227.556" transform="translate(0 0)" fill="#00b153"/>
  <path id="Path_1789" data-name="Path 1789" d="M455.111,227.556c0,125.156-102.4,227.556-227.556,227.556-72.533,0-136.533-32.711-177.778-85.333,38.4,31.289,88.178,49.778,142.222,49.778,125.156,0,227.556-102.4,227.556-227.556,0-54.044-18.489-103.822-49.778-142.222C422.4,91.022,455.111,155.022,455.111,227.556Z" fill="#00a331"/>
  <path id="Path_1790" data-name="Path 1790" d="M351.289,162.133,203.378,324.267a24.3,24.3,0,0,1-36.978,0l-62.578-69.689a26.308,26.308,0,0,1,1.422-35.556,26.308,26.308,0,0,1,35.556,1.422l44.089,49.778,129.422-140.8c9.956-9.956,25.6-11.378,35.556-1.422C359.822,136.533,359.822,153.6,351.289,162.133Z" fill="#fff"/>
</svg>
