<svg xmlns="http://www.w3.org/2000/svg" xmlns:xlink="http://www.w3.org/1999/xlink" width="678.186" height="462.212" viewBox="0 0 678.186 462.212">
  <defs>
    <clipPath id="clip-path">
      <path id="Path_1502" data-name="Path 1502" d="M746.556,259.066l-34.75-60.189a40.98,40.98,0,0,1-5.607-20.537,40.36,40.36,0,1,1,80.719,0,40.922,40.922,0,0,1-5.613,20.537Z" transform="translate(-706.2 -137.98)" fill="none"/>
    </clipPath>
    <linearGradient id="linear-gradient" x1="0.5" y1="0.814" x2="0.5" y2="0.148" gradientUnits="objectBoundingBox">
      <stop offset="0" stop-color="#d50e00"/>
      <stop offset="1" stop-color="#e56359"/>
    </linearGradient>
    <clipPath id="clip-path-2">
      <path id="Path_1504" data-name="Path 1504" d="M773.468,184.53a20.722,20.722,0,1,1-20.718,20.721,20.723,20.723,0,0,1,20.718-20.721" transform="translate(-752.75 -184.53)" fill="none"/>
    </clipPath>
    <linearGradient id="linear-gradient-2" x1="0.5" y1="0.814" x2="0.5" y2="0.148" xlink:href="#linear-gradient"/>
  </defs>
  <g id="Group_818" data-name="Group 818" transform="translate(-584.738 -83.729)">
    <path id="Path_1544" data-name="Path 1544" d="M499.856,391.5c.286-1.73-2-5.212-4.49-5.154-1,0-1.959.275-2.955.229-2.634-.126-4.009-2.188-5.017-3.883s-3.047-3.642-5.612-3.207c-3.7.619-5.567,5.509-9.77,1.844-2.749-2.405-2.967-5.727-6.082-8.086a10.171,10.171,0,0,0-8.487-1.661c-3.745,1.145-5.143,4.868-9.163,5.509-4.421.71-7.594-2.646-9-5.074-1.707-2.944-2.291-6.116-3.814-9.163-1.352-2.772-4.089-6.483-8.968-6.4-4.135.069-5.956,2.68-8.018,4.765-2.634,2.7-8.121,12.4-14.272,11.236-2.394-.458-3.6-2.36-5.727-3.219-3.436-1.374-7.915.515-10.011,2.886s-2.921,5.234-5.292,7.479a5.475,5.475,0,0,1-2.291,1.386c-3.31.9-6.391-1.878-9.931-2.085a8.247,8.247,0,0,0-6.116,2.405,30.435,30.435,0,0,0-3.242,4.582,3.434,3.434,0,0,1-1.145,1.145c-1.558.836-3.734.126-5.647-.195-4.708-.813-10.045,1.352-11.374,4.582Z" transform="translate(241.308 -255.002)" fill="#04146a" opacity="0.8"/>
    <path id="Path_1545" data-name="Path 1545" d="M446.167,379.469c.188-1.136-1.316-3.423-2.949-3.385-.654,0-1.286.181-1.941.15-1.73-.083-2.633-1.437-3.295-2.55s-2-2.392-3.686-2.106c-2.43.406-3.656,3.618-6.417,1.211-1.805-1.58-1.948-3.761-3.994-5.311a6.68,6.68,0,0,0-5.574-1.091c-2.46.752-3.378,3.2-6.018,3.618-2.9.466-4.988-1.738-5.913-3.333-1.121-1.933-1.5-4.017-2.505-6.018-.888-1.82-2.686-4.258-5.89-4.205-2.716.045-3.912,1.76-5.266,3.129-1.73,1.775-5.334,8.147-9.373,7.38-1.572-.3-2.362-1.55-3.761-2.114-2.257-.9-5.2.339-6.575,1.9s-1.918,3.438-3.475,4.912a3.6,3.6,0,0,1-1.5.91c-2.174.594-4.2-1.234-6.522-1.369a5.416,5.416,0,0,0-4.017,1.58,19.991,19.991,0,0,0-2.129,3.009,2.255,2.255,0,0,1-.752.752c-1.023.549-2.452.083-3.709-.128-3.092-.534-6.6.888-7.47,3.009Z" transform="translate(638.155 -272.72)" fill="#010e5e"/>
    <path id="Path_1546" data-name="Path 1546" d="M507.328,393.173c.3-1.812-2.1-5.46-4.7-5.4-1.044,0-2.052.288-3.1.24-2.76-.132-4.2-2.292-5.256-4.068s-3.192-3.816-5.881-3.36c-3.876.648-5.832,5.773-10.237,1.932-2.88-2.52-3.108-6-6.372-8.473a10.657,10.657,0,0,0-8.893-1.74c-3.924,1.2-5.388,5.1-9.6,5.773-4.632.744-7.957-2.772-9.433-5.316-1.788-3.084-2.4-6.409-4-9.6-1.416-2.9-4.284-6.793-9.4-6.709-4.332.072-6.241,2.808-8.4,4.992-2.76,2.832-8.509,13-14.953,11.773-2.508-.48-3.768-2.472-6-3.372-3.6-1.44-8.293.54-10.489,3.024s-3.06,5.484-5.545,7.837a5.736,5.736,0,0,1-2.4,1.452c-3.468.948-6.7-1.968-10.4-2.184a8.641,8.641,0,0,0-6.408,2.52,31.893,31.893,0,0,0-3.4,4.8,3.6,3.6,0,0,1-1.2,1.2c-1.632.876-3.912.132-5.917-.2-4.932-.852-10.525,1.416-11.917,4.8Z" transform="translate(755.57 -186.572)" fill="#010e5e"/>
    <g id="icons" transform="translate(585.15 130)">
      <g id="Group_798" data-name="Group 798" transform="translate(0.05 0)">
        <path id="Path_1452" data-name="Path 1452" d="M1298.113,813.541l144.7-.051a4.307,4.307,0,0,1,4.29,4.295l.046,95.482a5.025,5.025,0,0,1-5.008,5.008l-147.364.046-.03-101.439a3.375,3.375,0,0,1,3.375-3.375" transform="translate(-800.758 -513.534)" fill="#6d2d14" fill-rule="evenodd"/>
        <path id="Path_1453" data-name="Path 1453" d="M1307.17,823.536l.034,96.364,142.057-.046a.844.844,0,0,0,.844-.789l-.034-95.5a.089.089,0,0,0-.08-.076Z" transform="translate(-807.939 -519.315)" fill="#471c0b" fill-rule="evenodd"/>
        <rect id="Rectangle_750" data-name="Rectangle 750" width="48.794" height="95.179" transform="matrix(0.688, -0.726, 0.726, 0.688, 526.567, 275.162)" fill="#8ac80c"/>
        <path id="Path_1454" data-name="Path 1454" d="M1467.336,749.686a9.808,9.808,0,0,1-.046-10.889l-46.018-43.592a9.821,9.821,0,0,1-10.88.544l-13.5,14.263a9.821,9.821,0,0,1,.051,10.893l46.018,43.588a9.813,9.813,0,0,1,10.876-.54Zm8.6-2.818L1451.469,772.7a4.218,4.218,0,0,1-5.965.16L1388.442,718.8a4.219,4.219,0,0,1-.165-5.965L1412.746,687a4.219,4.219,0,0,1,5.965-.16l57.071,54.059A4.219,4.219,0,0,1,1475.938,746.868Z" transform="translate(-854.161 -439.648)" fill="#3c9b14" fill-rule="evenodd"/>
        <path id="Path_1455" data-name="Path 1455" d="M1482.791,759.462a13.42,13.42,0,1,1-18.984.51,13.42,13.42,0,0,1,18.984-.51" transform="translate(-896.371 -480.17)" fill="#8bb7d0" fill-rule="evenodd"/>
        <rect id="Rectangle_751" data-name="Rectangle 751" width="48.794" height="95.179" transform="translate(512.036 287.896) rotate(-56.39)" fill="#8ac80c"/>
        <path id="Path_1456" data-name="Path 1456" d="M1437.634,756.915a9.813,9.813,0,0,1-1.911-10.724L1382.917,711.1a9.817,9.817,0,0,1-10.627,2.392l-10.876,16.364a9.821,9.821,0,0,1,1.911,10.724l52.793,35.083a9.826,9.826,0,0,1,10.627-2.392Zm7.99-4.248-19.689,29.624a4.219,4.219,0,0,1-5.847,1.181L1354.6,739.956a4.219,4.219,0,0,1-1.177-5.847l19.689-29.628a4.219,4.219,0,0,1,5.847-1.177l65.47,43.512a4.219,4.219,0,0,1,1.177,5.851Z" transform="translate(-834.271 -449.424)" fill="#3c9b14" fill-rule="evenodd"/>
        <path id="Path_1457" data-name="Path 1457" d="M1450.427,767.3a13.42,13.42,0,1,1-18.6,3.746,13.42,13.42,0,0,1,18.6-3.746" transform="translate(-878.705 -485.53)" fill="#3c9b14" fill-rule="evenodd"/>
        <rect id="Rectangle_752" data-name="Rectangle 752" width="98.132" height="50.308" transform="translate(504.864 283.469)" fill="#8ac80c"/>
        <path id="Path_1458" data-name="Path 1458" d="M1415.971,792.789a10.125,10.125,0,0,1-7.758-8.117h-65.357a10.125,10.125,0,0,1-7.754,8.121v20.25a10.125,10.125,0,0,1,7.762,8.117l65.352-.021a10.125,10.125,0,0,1,7.762-8.1Zm4.438-8.21v36.673a4.358,4.358,0,0,1-4.35,4.354l-81.05.025a4.354,4.354,0,0,1-4.35-4.35V784.6a4.349,4.349,0,0,1,4.362-4.35l81.05-.025A4.345,4.345,0,0,1,1420.409,784.579Z" transform="translate(-821.518 -494.306)" fill="#3c9b14" fill-rule="evenodd"/>
        <path id="Path_1459" data-name="Path 1459" d="M1414.773,800.44a13.837,13.837,0,1,1-13.833,13.842,13.837,13.837,0,0,1,13.833-13.842" transform="translate(-862.149 -505.99)" fill="#3c9b14" fill-rule="evenodd"/>
        <path id="Path_1460" data-name="Path 1460" d="M1294.93,832.5l139.64-.042a4.425,4.425,0,0,1,4.421,4.417l.034,98.364a5.172,5.172,0,0,1-5.155,5.155l-138.885.047Z" transform="translate(-800.862 -524.501)" fill="#824317" fill-rule="evenodd"/>
        <path id="Path_1461" data-name="Path 1461" d="M1302.328,943.619v1.08h-1.687v-1.08Zm3,0v1.08h-1.688v-1.08Zm3,0v1.08h-1.688v-1.08Zm3,0v1.08h-1.688v-1.08Zm3,0v1.08h-1.687v-1.08Zm3,0v1.08h-1.687v-1.08Zm3,0v1.08h-1.688v-1.08Zm3,0V944.7h-1.688v-1.08Zm3,0V944.7h-1.687v-1.084Zm3,0v1.08h-1.688v-1.084Zm3,0v1.08h-1.687v-1.08Zm3,0v1.08h-1.688v-1.08Zm3,0V944.7h-1.688v-1.08Zm3,0v1.08h-1.687v-1.084Zm3,0v1.08h-1.687v-1.08Zm3,0v1.08h-1.688v-1.08Zm3,0v1.08h-1.688v-1.08Zm3,0v1.08h-1.688v-1.08Zm3,0v1.08h-1.687v-1.08Zm3,0v1.08h-1.687v-1.08Zm3,0v1.08h-1.688v-1.08Zm3,0V944.7h-1.688v-1.084Zm3,0v1.08h-1.688v-1.08Zm3,0v1.08h-1.687v-1.08Zm3,0v1.08h-1.687v-1.08Zm3,0V944.7h-1.688v-1.08Zm3,0v1.08h-1.688v-1.08Zm3,0v1.08h-1.688v-1.08Zm3,0v1.08h-1.688v-1.08Zm3,0v1.08h-1.688v-1.08Zm3,0v1.08h-1.687v-1.084Zm3,0v1.08h-1.688v-1.08Zm3,0v1.08h-1.688v-1.08Zm3,0v1.08h-1.687v-1.08Zm3,0v1.08h-1.688v-1.08Zm3,0v1.08h-1.688v-1.08Zm3,0v1.08H1408.7v-1.08Zm3,0v1.08H1411.7v-1.08Zm3,0V944.7H1414.7v-1.08Zm3,0v1.08H1417.7v-1.084Zm3,0v1.08H1420.7v-1.08Zm3,0v1.08H1423.7v-1.08Zm3,0v1.08h-1.687v-1.08Zm3,0V944.7h-1.687v-1.084Zm1.687,0h.131v-.025h0v-.03h0l.038-.245,1.063.186-.042.278-.026.11-.03.093-.038.084-.046.1-.072.114-.063.084-.072.076-.068.068-.122.1-.072.047-.093.055-.072.034-.118.046-.139.038h-.6v-1.08H1433Zm.22-3.375h1.08v1.687h-1.08Zm0-3h1.08v1.688h-1.08Zm0-3h1.084v1.688H1433.3Zm0-3h1.08v1.688H1433.3Zm0-3h1.08v1.688h-1.08Zm0-3h1.08v1.688h-1.08Zm0-3h1.084v1.688h-1.08Zm0-3h1.08v1.688h-1.08Zm0-3h1.08v1.688h-1.08Zm0-3h1.08v1.688h-1.08Zm0-3h1.08v1.688h-1.08Zm0-3h1.08v1.688h-1.08Zm0-3h1.08v1.688h-1.122Zm0-3h1.08v1.688h-1.122Zm0-3h1.084v1.688h-1.126Zm0-3h1.084v1.687h-1.126Zm0-3h1.08v1.688h-1.122Zm0-3h1.08v1.688h-1.122Zm0-3h1.08V887.9h-1.122Zm0-3h1.084V884.9h-1.126Zm0-3h1.084V881.9h-1.126Zm0-3h1.08V878.9h-1.122Zm0-3h1.08V875.9h-1.122Zm0-3h1.08V872.9h-1.122Zm0-3h1.08v1.688h-1.122Zm0-3h1.08v1.688h-1.122Zm0-3h1.08v1.688h-1.122Zm0-3h1.08v1.688h-1.122Zm0-3h1.08v1.688h-1.122Zm0-3h1.08v1.688h-1.122Zm0-3h1.08v1.688h-1.122Zm-3.093-1.86v-1.084h1.688v1.08Zm-3,0v-1.08h1.687v1.084Zm-3,0v-1.08h1.687v1.08Zm-3,0v-1.08h1.687v1.08Zm-3,0v-1.08h1.687v1.08Zm-3,0v-1.08h1.688v1.08Zm-3,0v-1.08h1.687v1.08Zm-3,0v-1.08h1.687v1.08Zm-3,0v-1.08h1.687v1.08Zm-3,0v-1.08h1.687v1.084Zm-3,0v-1.08h1.687v1.08Zm-3,0v-1.08h1.688v1.08Zm-3,0v-1.08h1.687v1.08Zm-3,0v-1.084h1.687v1.084Zm-3,0v-1.08h1.688v1.08Zm-3,0v-1.08h1.687v1.08Zm-3,0v-1.08h1.688v1.08Zm-3,0v-1.08h1.688v1.08Zm-3,0v-1.08h1.688v1.084Zm-3,0v-1.08h1.688v1.08Zm-3,0v-1.08h1.688v1.08Zm-3,0v-1.08h1.687v1.08Zm-3,0v-1.08h1.687v1.08Zm-3,0v-1.08h1.688v1.08Zm-3,0v-1.08h1.688v1.08Zm-3,0v-1.08h1.688v1.08Zm-3,0v-1.093h1.687v1.08Zm-3,0v-1.093h1.687v1.08Zm-3,0v-1.093h1.688v1.08Zm-3,0v-1.093h1.688v1.08Zm-3,0v-1.093h1.688v1.08Zm-3,0v-1.08h1.687v1.084Zm-3,0v-1.08h1.687v1.08Zm-3,0v-1.08h1.687v1.08Zm-3,0v-1.08h1.688v1.08Zm-3,0v-1.084h1.687v1.08Zm-3,0v-1.08h1.688v1.08Zm-3,0v-1.08h1.687v1.08Zm-3,0v-1.08h1.688v1.08Zm-3,0v-1.084h1.688v1.084Zm-3,0v-1.08h1.688v1.08Zm-3,0v-1.08h1.687v1.08Zm-3,0v-1.08h1.688v1.08Zm-3,0v-1.08h1.688v1.08Zm133.24.5h-1.122v-.544h-.093v-1.08c1.055,0,1.173-.266,1.173,1.624Z" transform="translate(-804.163 -533.023)" fill="#e4f5fb" fill-rule="evenodd"/>
        <path id="Path_1462" data-name="Path 1462" d="M1564.534,939.031c.135,1.8-1.729,4.122-4.809,4.569v-3.375l-52.312.038c-.177,0-11.18-7.788-16.031-11.391-1.4-1.038-1.612-1.573-1.624-3.316l-.287-9.454a4.965,4.965,0,0,1,1.645-3.708c3.953-3.514,14.276-12.875,14.377-12.875h54.236c2.953-.063,4.792,2.375,4.852,5.092.266,11.863-.291,22.537-.03,34.4" transform="translate(-913.331 -563.269)" fill="#63260c" fill-rule="evenodd"/>
        <path id="Path_1463" data-name="Path 1463" d="M1501.925,945.64a8.328,8.328,0,0,1,4.9-15.909,8.326,8.326,0,0,1-4.9,15.909" transform="translate(-917.29 -580.568)" fill="#d49b45" fill-rule="evenodd"/>
        <path id="Path_1464" data-name="Path 1464" d="M1506.025,941.144a3.734,3.734,0,1,1,4.569-2.5,3.679,3.679,0,0,1-4.569,2.5" transform="translate(-921.322 -583.096)" fill="#e1ba5c" fill-rule="evenodd"/>
        <path id="Path_1465" data-name="Path 1465" d="M1473.952,785.974a23.135,23.135,0,0,1,44.136,11.711h-46.052a23.045,23.045,0,0,1,1.915-11.724" transform="translate(-903.187 -489.723)" fill="#e58927"/>
        <path id="Path_1466" data-name="Path 1466" d="M1472.573,781.111a23.136,23.136,0,0,1,43.841,13.766h-45.457a23.044,23.044,0,0,1,1.615-13.778" transform="translate(-902.391 -486.914)" fill="#ffef95"/>
        <path id="Path_1467" data-name="Path 1467" d="M1473.413,783.483a23.136,23.136,0,0,1,44.01,12.762h-45.794a23.014,23.014,0,0,1,1.784-12.774" transform="translate(-902.876 -488.282)" fill="#fbca0d"/>
        <path id="Path_1468" data-name="Path 1468" d="M1473.413,801.971c.025-.059.055-.118.084-.181l28.894,12.947h-30.763a23.013,23.013,0,0,1,1.784-12.774" transform="translate(-902.876 -506.77)" fill="#ffd915"/>
        <path id="Path_1469" data-name="Path 1469" d="M1481.4,789.711a19.634,19.634,0,0,1,37.272,11.327H1479.97A19.506,19.506,0,0,1,1481.4,789.711Z" transform="translate(-907.674 -493.075)" fill="#fca700"/>
        <path id="Path_1470" data-name="Path 1470" d="M1481.4,789.711a19.634,19.634,0,0,1,37.272,11.327H1479.97A19.506,19.506,0,0,1,1481.4,789.711Z" transform="translate(-907.674 -493.075)" fill="none" stroke="#fca700" stroke-miterlimit="10" stroke-width="0.22"/>
        <path id="Path_1471" data-name="Path 1471" d="M1480.572,812.757c-.105-.148-.211-.3-.312-.451a2.686,2.686,0,0,0,.072.451Zm35.319-14.407c1.751,5.607,1.291,10.846-.27,14.4h3.409a19.65,19.65,0,0,0-3.156-14.4Z" transform="translate(-908.007 -504.781)" fill="#ec830e"/>
        <path id="Path_1472" data-name="Path 1472" d="M1486.852,795.676a17.326,17.326,0,0,1,32.67,3.059,17.33,17.33,0,1,0-34.218,5.235h.072a17.233,17.233,0,0,1,1.477-8.294" transform="translate(-910.717 -495.995)" fill="#ffd915"/>
        <path id="Path_1473" data-name="Path 1473" d="M1540.159,796.306a17.989,17.989,0,0,1,34.319,9.1H1538.67a17.88,17.88,0,0,1,1.489-9.112" transform="translate(-941.724 -497.451)" fill="#e58927"/>
        <path id="Path_1474" data-name="Path 1474" d="M1539.1,792.517a17.989,17.989,0,0,1,34.087,10.707h-35.34a17.887,17.887,0,0,1,1.266-10.716" transform="translate(-941.114 -495.265)" fill="#ffef95"/>
        <path id="Path_1475" data-name="Path 1475" d="M1502.609,814.187a7.75,7.75,0,0,1,.127-3.059l4.35,1.224a2.765,2.765,0,0,0,.169,1.835Zm10.9-11.513,1.067-2.084,2.169,1.105-1.038,2.038a5.915,5.915,0,0,1,2.852,6.155l-4.138-.616A2.4,2.4,0,0,0,1513,806.61q-1.4-.717-1.894.253a.959.959,0,0,0-.067.721,3.582,3.582,0,0,0,1.055,1.169,26.627,26.627,0,0,1,2.991,2.81,4.459,4.459,0,0,1,.975,2.443c0,.059,0,.118,0,.177h-5.429a5.391,5.391,0,0,0-.924-.92q-3.312-2.709-3.666-4.48a5.09,5.09,0,0,1,.485-3.4,5.677,5.677,0,0,1,2.729-2.649A5.776,5.776,0,0,1,1513.506,802.674Z" transform="translate(-920.871 -506.076)" fill="#fceb3c" fill-rule="evenodd"/>
        <path id="Path_1476" data-name="Path 1476" d="M1539.735,794.4a17.989,17.989,0,0,1,34.214,9.922h-35.606a17.908,17.908,0,0,1,1.388-9.931" transform="translate(-941.477 -496.359)" fill="#fbca0d"/>
        <path id="Path_1477" data-name="Path 1477" d="M1539.741,808.743l.068-.143,22.465,10.07h-23.92a17.907,17.907,0,0,1,1.388-9.931" transform="translate(-941.483 -510.707)" fill="#ffd915"/>
        <path id="Path_1478" data-name="Path 1478" d="M1545.957,799.2A15.263,15.263,0,0,1,1574.935,808h-30.1A15.187,15.187,0,0,1,1545.957,799.2Z" transform="translate(-945.214 -500.045)" fill="#fca700"/>
        <path id="Path_1479" data-name="Path 1479" d="M1545.957,799.2A15.263,15.263,0,0,1,1574.935,808h-30.1A15.187,15.187,0,0,1,1545.957,799.2Z" transform="translate(-945.214 -500.045)" fill="none" stroke="#fca700" stroke-miterlimit="10" stroke-width="0.22"/>
        <path id="Path_1480" data-name="Path 1480" d="M1545.275,817.131l-.245-.35a1.96,1.96,0,0,0,.059.35Zm27.464-11.2a16.4,16.4,0,0,1-.211,11.192h2.649A15.31,15.31,0,0,0,1572.739,805.93Z" transform="translate(-945.452 -509.163)" fill="#ec830e"/>
        <path id="Path_1481" data-name="Path 1481" d="M1550.19,803.828a13.475,13.475,0,0,1,25.4,2.379,13.475,13.475,0,1,0-26.6,4.071h.055a13.4,13.4,0,0,1,1.147-6.45" transform="translate(-947.578 -502.311)" fill="#ffd915"/>
        <path id="Path_1482" data-name="Path 1482" d="M1566.9,818.5a5.8,5.8,0,0,1,.093-2.3l3.265.92a2.071,2.071,0,0,0,.127,1.375Zm8.193-8.64.8-1.565,1.628.844-.781,1.527a4.457,4.457,0,0,1,2.143,4.641l-3.1-.46a1.81,1.81,0,0,0-1.067-2c-.7-.359-1.173-.291-1.417.194a.709.709,0,0,0-.055.54,2.69,2.69,0,0,0,.793.878,19.727,19.727,0,0,1,2.244,2.109,3.375,3.375,0,0,1,.734,1.835v.135h-4.075a4.064,4.064,0,0,0-.692-.688q-2.48-2.033-2.751-3.375a3.827,3.827,0,0,1,.363-2.557,4.1,4.1,0,0,1,5.231-2.033Z" transform="translate(-958.053 -510.528)" fill="#fceb3c" fill-rule="evenodd"/>
        <path id="Path_1483" data-name="Path 1483" d="M125.066,1082.32H788.334a1.291,1.291,0,0,1,1.266,1.266h0a1.291,1.291,0,0,1-1.266,1.287H125.066a1.291,1.291,0,0,1-1.266-1.287h0a1.291,1.291,0,0,1,1.266-1.266" transform="translate(-123.8 -668.952)" fill="#471c0b" fill-rule="evenodd"/>
        <path id="Path_1484" data-name="Path 1484" d="M409.552,953.645s13.728-6.244,11.69-15.917-13.2-8.657-11.69-16.288,8.838-19.529,1.688-28.185-18.984-3.464-20.465-16.875c-1.177-10.825-6.155-18.487-15.858-16.238-8.961,2.08-15.643,9.016-15.812,25.523-.177,17.575-12.555,12.656-12.707,25.583-.156,13.04,10.23,13.04,14.289,21.79,1.915,4.13-3.084,18.651,11.686,20.608Z" transform="translate(-252.489 -540.277)" fill="#21ac58"/>
        <path id="Path_1485" data-name="Path 1485" d="M414.738,876.142s-.034.3-.084.869c-.156,1.73-.473,5.948-.473,11.813,0,17.191,2.708,48.587,19.828,73.646a.835.835,0,0,1,.072.135h-1.793c-16.942-25.363-19.6-56.594-19.6-73.773a124.7,124.7,0,0,1,.553-12.863.751.751,0,1,1,1.489.173" transform="translate(-290.809 -549.245)" fill="#008c3f"/>
        <path id="Path_1486" data-name="Path 1486" d="M370.809,998.9s2.16-11.935-5.94-16.795-16.373-8.64-15.474-16.453S348.082,948.575,335.1,948.4c-8.016-.105-5.012-8.568-13.162-10.251-4.957-1.025-8.227,4.147-8.859,9.226-.726,5.784,2.531,11.471-1.207,16.183-4.873,6.1-6.851,17.487,3.624,20.726s1.139,13.158,15.407,14.626h39.9Z" transform="translate(-230.241 -585.528)" fill="#a9ca5b" fill-rule="evenodd"/>
        <path id="Path_1487" data-name="Path 1487" d="M340.378,950.806c.274,7.594,3.649,18.423,9.42,28.751s13.922,20.182,23.667,25.987a.738.738,0,0,1,.308.354H371.2c-9.391-6.075-17.141-15.639-22.709-25.608-5.864-10.509-9.307-21.461-9.61-29.43a.751.751,0,0,1,1.5-.055" transform="translate(-248.144 -592.53)" fill="#009844"/>
        <rect id="Rectangle_753" data-name="Rectangle 753" width="34.18" height="49.612" transform="translate(171.044 160.649)" fill="#024bc8"/>
        <path id="Path_1488" data-name="Path 1488" d="M767.36,457.19H934.747l99.347,88.133H776.827c0,31.784-9.467-73.381-9.467-88.133" transform="translate(-495.859 -307.547)" fill="#024bc8" fill-rule="evenodd"/>
        <rect id="Rectangle_754" data-name="Rectangle 754" width="153.389" height="176.001" transform="translate(367.396 237.776)" fill="#df9400"/>
        <path id="Path_1489" data-name="Path 1489" d="M322.73,412.781,446.811,302.71,570.893,412.781H554v-5.953H339.626v5.953Z" transform="translate(-186.6 -175.005)" fill="#024bc8" fill-rule="evenodd"/>
        <path id="Path_1490" data-name="Path 1490" d="M577.151,419.212V601.17H362.78V419.212L469.965,324.13Z" transform="translate(-209.754 -187.388)" fill="#ffbc4a" fill-rule="evenodd"/>
        <path id="Path_1491" data-name="Path 1491" d="M607.93,598.25h38.854l3.371,3.27V750.534H611.3l-3.367-3.27Z" transform="translate(-351.482 -345.865)" fill="#de7405" fill-rule="evenodd"/>
        <rect id="Rectangle_755" data-name="Rectangle 755" width="70.183" height="152.283" transform="translate(225.12 252.381)" fill="#fff"/>
        <rect id="Rectangle_756" data-name="Rectangle 756" width="60.475" height="147.706" transform="translate(229.976 256.963)" fill="#024bc8"/>
        <path id="Path_1492" data-name="Path 1492" d="M737.96,599.05h38.854l3.371,3.27v86.058H741.331l-3.371-3.269Z" transform="translate(-426.656 -346.327)" fill="#de7405" fill-rule="evenodd"/>
        <rect id="Rectangle_757" data-name="Rectangle 757" width="38.854" height="86.058" transform="translate(311.304 252.723)" fill="#fff"/>
        <rect id="Rectangle_758" data-name="Rectangle 758" width="29.151" height="76.351" transform="translate(316.156 257.575)" fill="#024bc8"/>
        <path id="Path_1493" data-name="Path 1493" d="M401.78,599.05h38.854l3.371,3.27v86.058H405.151l-3.371-3.269Z" transform="translate(-232.301 -346.327)" fill="#de7405" fill-rule="evenodd"/>
        <rect id="Rectangle_759" data-name="Rectangle 759" width="38.854" height="86.058" transform="translate(169.479 252.723)" fill="#fff"/>
        <rect id="Rectangle_760" data-name="Rectangle 760" width="29.151" height="76.351" transform="translate(174.331 257.575)" fill="#024bc8"/>
        <rect id="Rectangle_761" data-name="Rectangle 761" width="49.676" height="44.141" transform="translate(235.291 260.574)" fill="#b9e4ff"/>
        <rect id="Rectangle_762" data-name="Rectangle 762" width="49.676" height="44.145" transform="translate(235.291 356.934)" fill="#b9e4ff"/>
        <rect id="Rectangle_763" data-name="Rectangle 763" width="49.676" height="44.145" transform="translate(235.291 308.604)" fill="#b9e4ff"/>
        <path id="Path_1494" data-name="Path 1494" d="M749.46,658.89l29.151-30.24v6.564L749.46,665.45Z" transform="translate(-433.304 -363.44)" fill="#c8edfd" fill-rule="evenodd"/>
        <path id="Path_1495" data-name="Path 1495" d="M749.46,687.69l29.151-30.24v12.057l-29.151,30.24Z" transform="translate(-433.304 -380.09)" fill="#c8edfd" fill-rule="evenodd"/>
        <path id="Path_1496" data-name="Path 1496" d="M413.28,658.89l29.151-30.24v6.564L413.28,665.45Z" transform="translate(-238.95 -363.44)" fill="#c8edfd" fill-rule="evenodd"/>
        <path id="Path_1497" data-name="Path 1497" d="M413.28,687.69l29.151-30.24v12.057l-29.151,30.24Z" transform="translate(-238.95 -380.09)" fill="#c8edfd" fill-rule="evenodd"/>
        <path id="Path_1498" data-name="Path 1498" d="M533.67,461.65h70.183l3.371,3.27v42.9H537.041l-3.371-3.269Z" transform="translate(-308.55 -266.892)" fill="#de7405" fill-rule="evenodd"/>
        <rect id="Rectangle_764" data-name="Rectangle 764" width="70.183" height="42.896" transform="translate(225.12 194.758)" fill="#fff"/>
        <rect id="Rectangle_765" data-name="Rectangle 765" width="60.294" height="33.007" transform="translate(230.064 199.702)" fill="#024bc8"/>
        <rect id="Rectangle_766" data-name="Rectangle 766" width="94.829" height="9.387" transform="translate(213.35 404.669)" fill="#024bc8"/>
        <path id="Path_1499" data-name="Path 1499" d="M925.86,599.05h38.854l3.371,3.27v86.058H929.227l-3.367-3.269Z" transform="translate(-535.286 -346.327)" fill="#cd6615" fill-rule="evenodd"/>
        <rect id="Rectangle_767" data-name="Rectangle 767" width="38.854" height="86.058" transform="translate(390.57 252.723)" fill="#fff"/>
        <rect id="Rectangle_768" data-name="Rectangle 768" width="29.151" height="76.351" transform="translate(395.426 257.575)" fill="#024bc8"/>
        <path id="Path_1500" data-name="Path 1500" d="M937.36,658.89l29.151-30.24v6.564L937.36,665.45Z" transform="translate(-541.934 -363.44)" fill="#c8edfd" fill-rule="evenodd"/>
        <path id="Path_1501" data-name="Path 1501" d="M937.36,687.69l29.151-30.24v12.057l-29.151,30.24Z" transform="translate(-541.934 -380.09)" fill="#c8edfd" fill-rule="evenodd"/>
        <rect id="Rectangle_769" data-name="Rectangle 769" width="159.945" height="9.387" transform="translate(367.396 404.669)" fill="#024bc8"/>
        <rect id="Rectangle_770" data-name="Rectangle 770" width="38.787" height="13.626" transform="translate(168.741 149.647)" fill="#024bc8"/>
        <g id="Group_796" data-name="Group 796" transform="translate(245.699 14.977)" clip-path="url(#clip-path)">
          <rect id="Rectangle_771" data-name="Rectangle 771" width="80.721" height="121.082" transform="translate(0 0.004)" fill="url(#linear-gradient)"/>
        </g>
        <path id="Path_1503" data-name="Path 1503" d="M762.75,223.079a28.54,28.54,0,1,0-28.54-28.54,28.54,28.54,0,0,0,28.54,28.54" transform="translate(-476.695 -139.202)" fill="#fff" fill-rule="evenodd"/>
        <g id="Group_797" data-name="Group 797" transform="translate(265.337 34.615)" clip-path="url(#clip-path-2)">
          <rect id="Rectangle_772" data-name="Rectangle 772" width="41.441" height="41.441" transform="translate(0 0.004)" fill="url(#linear-gradient-2)"/>
        </g>
        <path id="Path_1505" data-name="Path 1505" d="M801.3,196.16a9.134,9.134,0,1,1-9.134,9.134,9.134,9.134,0,0,1,9.134-9.134" transform="translate(-510.203 -156.639)" fill="#f4b1b1" fill-rule="evenodd"/>
        <path id="Path_1506" data-name="Path 1506" d="M545.39,506.377l31.48-33.007h6.256l-31.476,33.007Z" transform="translate(-315.326 -273.668)" fill="#c8edfd" fill-rule="evenodd"/>
        <path id="Path_1507" data-name="Path 1507" d="M572.85,506.377l31.48-33.007h11.5l-31.476,33.007Z" transform="translate(-331.201 -273.668)" fill="#c8edfd" fill-rule="evenodd"/>
        <path id="Path_1508" data-name="Path 1508" d="M1075.25,599.05H1114.1l3.371,3.27v86.058h-38.854l-3.371-3.269Z" transform="translate(-621.652 -346.327)" fill="#cd6615" fill-rule="evenodd"/>
        <rect id="Rectangle_773" data-name="Rectangle 773" width="38.854" height="86.058" transform="translate(453.598 252.723)" fill="#fff"/>
        <rect id="Rectangle_774" data-name="Rectangle 774" width="29.151" height="76.351" transform="translate(458.449 257.575)" fill="#024bc8"/>
        <path id="Path_1509" data-name="Path 1509" d="M1086.75,658.89l29.151-30.24v6.564L1086.75,665.45Z" transform="translate(-628.301 -363.44)" fill="#c8edfd" fill-rule="evenodd"/>
        <path id="Path_1510" data-name="Path 1510" d="M1086.75,687.69l29.151-30.24v12.057l-29.151,30.24Z" transform="translate(-628.301 -380.09)" fill="#c8edfd" fill-rule="evenodd"/>
        <rect id="Rectangle_775" data-name="Rectangle 775" width="100.414" height="26.059" transform="translate(338.072 158.489)" fill="#ffbc4a"/>
        <rect id="Rectangle_776" data-name="Rectangle 776" width="100.414" height="5.501" transform="translate(338.072 179.047)" fill="#df9400"/>
        <rect id="Rectangle_777" data-name="Rectangle 777" width="84.788" height="8.201" transform="translate(345.885 164.109)" fill="#621415"/>
        <path id="Path_1511" data-name="Path 1511" d="M1031.039,433.828a34.505,34.505,0,1,0-66.656,12.61H1028.7a34.369,34.369,0,0,0,2.345-12.61" transform="translate(-608.402 -274.141)" fill="#e58927"/>
        <path id="Path_1512" data-name="Path 1512" d="M1035.869,428a34.5,34.5,0,1,0-65.576,15.061h62.184A34.294,34.294,0,0,0,1035.89,428" transform="translate(-611.195 -270.753)" fill="#ffef95"/>
        <path id="Path_1513" data-name="Path 1513" d="M1033.277,430.856a34.509,34.509,0,1,0-66.133,13.922h63.239a34.465,34.465,0,0,0,2.881-13.922" transform="translate(-609.692 -272.434)" fill="#fbca0d"/>
        <path id="Path_1514" data-name="Path 1514" d="M1033.3,477.59v-.3l-69,.173v.3a34.4,34.4,0,0,0,2.881,13.728h63.226a34.471,34.471,0,0,0,2.881-13.922" transform="translate(-609.716 -319.168)" fill="#ffd915"/>
        <path id="Path_1515" data-name="Path 1515" d="M1035.212,437.964A29.286,29.286,0,1,0,980.1,451.852h51.65a29.131,29.131,0,0,0,3.459-13.888" transform="translate(-616.85 -279.542)" fill="#fca700"/>
        <path id="Path_1516" data-name="Path 1516" d="M990.545,419c-5.835,6.632-8.374,14.116-8.362,19.921.021,8.087,2.261,14.344,5.957,18.849h-8.016A29.291,29.291,0,0,1,990.545,419" transform="translate(-616.85 -285.469)" fill="#ec830e"/>
        <path id="Path_1517" data-name="Path 1517" d="M1039.775,445.144A25.852,25.852,0,0,0,993.39,429.5a25.852,25.852,0,1,1,44.174,26.84h-.3a25.767,25.767,0,0,0,2.531-11.2" transform="translate(-626.534 -284.035)" fill="#ffd915"/>
        <path id="Path_1518" data-name="Path 1518" d="M1029.177,442.466l-.637-5.016h5.388l-.869,4.974q6.505.785,8.438,6.286l-6.328,1.915a3.812,3.812,0,0,0-3.919-2.6c-1.687,0-2.5.51-2.531,1.586a1.333,1.333,0,0,0,.422,1,5.665,5.665,0,0,0,2.333.844,43.747,43.747,0,0,1,6.26,1.755,6.943,6.943,0,0,1,3.135,2.6,7.255,7.255,0,0,1,1.219,4.278,7.671,7.671,0,0,1-2.506,5.759,10.707,10.707,0,0,1-5.6,2.586h-5.872a9.779,9.779,0,0,1-8.286-7.649l7.071-1.266q.882,3.109,4.543,3.143c1.907,0,2.869-.5,2.877-1.544a1.465,1.465,0,0,0-.654-1.291,6.8,6.8,0,0,0-2.354-.844q-6.645-1.413-8.412-3.523a7.223,7.223,0,0,1-1.738-4.835,8.082,8.082,0,0,1,2.008-5.316,9.328,9.328,0,0,1,6-2.877" transform="translate(-641.814 -296.135)" fill="#ffd915" fill-rule="evenodd"/>
        <path id="Path_1519" data-name="Path 1519" d="M1400.677,501.072a11,11,0,1,1-11-11,11,11,0,0,1,11,11m7.336,0c0,19.6-17.862,35.5-35.492,35.5s-28.949-13.04-33.666-27.114h-55.434v16.331h-12.867V516.8h-12.1v12.336H1244.28V494.588h92.909c2.894-16.782,16.318-29.008,35.315-29.008S1408,481.472,1408,501.072Z" transform="translate(-771.58 -312.398)" fill="#cd6615" fill-rule="evenodd"/>
        <path id="Path_1520" data-name="Path 1520" d="M1385.78,501.072a11.006,11.006,0,1,1-11-11,11.006,11.006,0,0,1,11,11m7.337,0c0,19.6-17.862,35.5-35.492,35.5s-28.949-13.04-33.666-27.114h-55.417v16.331h-12.863V516.8h-12.1v12.336H1229.4V494.588h92.909c2.894-16.782,16.318-29.008,35.315-29.008S1393.116,481.472,1393.116,501.072Z" transform="translate(-762.978 -312.398)" fill="#ffbc4a" fill-rule="evenodd"/>
        <path id="Path_1521" data-name="Path 1521" d="M985.125,124.634c18.254-13.951,38.289-18.984,49.207-8.134.7.692,3.5,4.518,4.1,5.32,10.02,13.293,4.219,36.585-15.187,51.435-21.591,17.183-45.693,15.972-55.687,2.683a34.925,34.925,0,0,1-3.493-5.636c-5.725-13.5,3.7-32.37,21.094-45.668" transform="translate(-608.612 -107.19)" fill="#e58927"/>
        <path id="Path_1522" data-name="Path 1522" d="M979.235,114.166c19.107-14.6,42.719-15.664,52.734-2.375s2.649,35.9-16.453,50.5-42.723,15.664-52.734,2.375-2.65-35.9,16.453-50.5" transform="translate(-606.253 -102.48)" fill="#ffef95"/>
        <path id="Path_1523" data-name="Path 1523" d="M977.845,118.069c19.111-14.6,42.723-15.66,52.734-2.371s2.649,35.9-16.453,50.5-42.723,15.664-52.734,2.371-2.649-35.9,16.453-50.5" transform="translate(-605.449 -104.737)" fill="#fbca0d"/>
        <path id="Path_1524" data-name="Path 1524" d="M977.857,133.774l.3-.224,36.281,48.123-.3.232c-19.111,14.6-42.723,15.664-52.734,2.371s-2.649-35.9,16.453-50.5" transform="translate(-605.461 -120.442)" fill="#ffd915"/>
        <path id="Path_1525" data-name="Path 1525" d="M988.656,129.121c16.217-12.39,36.281-13.293,44.761-2.012s2.249,30.468-13.968,42.862-36.256,13.293-44.761,2.012S972.452,141.515,988.656,129.121Z" transform="translate(-613.526 -112.148)" fill="#fca700"/>
        <path id="Path_1526" data-name="Path 1526" d="M988.656,129.121c16.217-12.39,36.281-13.293,44.761-2.012s2.249,30.468-13.968,42.862-36.256,13.293-44.761,2.012S972.452,141.515,988.656,129.121Z" transform="translate(-613.526 -112.148)" fill="none" stroke="#fca700" stroke-miterlimit="10" stroke-width="0.22"/>
        <path id="Path_1527" data-name="Path 1527" d="M1037.218,171.06a50.252,50.252,0,0,1-15.538,21.115c-28.055,21.44-48.321,7.674-46.339-17.8-5.408,9.855-6.02,20.33-.574,27.561,8.505,11.277,28.544,10.378,44.761-2.017,10.585-8.087,16.926-19.069,17.689-28.86" transform="translate(-613.573 -142.128)" fill="#ec830e"/>
        <path id="Path_1528" data-name="Path 1528" d="M997.826,139.206c14.314-10.939,32-11.737,39.508-1.776,4.387,5.818,4.324,14.023.654,22.022,5.425-9.049,6.256-18.883,1.219-25.566-7.509-9.96-25.2-9.163-39.513,1.776a42.724,42.724,0,0,0-12.985,15.812,44.191,44.191,0,0,1,11.116-12.268" transform="translate(-622.672 -116.602)" fill="#ffd915"/>
        <path id="Path_1529" data-name="Path 1529" d="M1036.785,161.381l3.489-2.641,2.012,2.725-3.409,2.578q2.658,5.13-1.827,10.7l-5.265-2.953q2.067-2.633.531-4.721-1.3-1.759-2.919-.532a2.16,2.16,0,0,0-.781,1.059,4.408,4.408,0,0,0,.375,2.282,29.914,29.914,0,0,1,1.548,5.7,7.313,7.313,0,0,1-.945,4.177,12.322,12.322,0,0,1-3.641,4.134,12,12,0,0,1-7.091,2.679,8.632,8.632,0,0,1-6.328-2.607l-3.493,2.641-2.012-2.73,3.493-2.641q-2.911-5.784,2.983-12.3l4.982,3.961q-2.645,3-.747,5.573,1.485,2,3.067.818a2.215,2.215,0,0,0,.949-1.451,5.006,5.006,0,0,0-.422-2.278q-2.109-5.7-.915-8.556a11.908,11.908,0,0,1,3.924-4.923,13.077,13.077,0,0,1,6.383-2.683,7.531,7.531,0,0,1,6.054,1.966" transform="translate(-634.419 -135.005)" fill="#ffd915" fill-rule="evenodd"/>
        <rect id="Rectangle_778" data-name="Rectangle 778" width="10.842" height="84.552" transform="translate(350.419 92.302) rotate(-67.09)" fill="#fda600"/>
        <rect id="Rectangle_779" data-name="Rectangle 779" width="10.842" height="10.716" transform="matrix(0.389, -0.921, 0.921, 0.389, 418.484, 121.098)" fill="#fda600"/>
        <rect id="Rectangle_780" data-name="Rectangle 780" width="10.842" height="10.842" transform="translate(408.444 116.829) rotate(-67.09)" fill="#ffd115"/>
        <rect id="Rectangle_781" data-name="Rectangle 781" width="10.842" height="38.985" transform="matrix(0.389, -0.921, 0.921, 0.389, 372.587, 101.695)" fill="#fca700"/>
        <rect id="Rectangle_782" data-name="Rectangle 782" width="10.842" height="16.394" transform="translate(357.436 95.271) rotate(-67.09)" fill="#ec830e"/>
        <rect id="Rectangle_783" data-name="Rectangle 783" width="1.034" height="76.418" transform="translate(353.702 94.807) rotate(-67.09)" fill="#df641e"/>
        <path id="Path_1530" data-name="Path 1530" d="M1345.79,1004.256c1.451-18.187,11.247-56.054,26.949-56.906,13.677,9.969-1.574,44.655-6.054,56.906Z" transform="translate(-830.266 -590.922)" fill="#009844" fill-rule="evenodd"/>
        <rect id="Rectangle_784" data-name="Rectangle 784" width="49.443" height="0.683" transform="translate(525.648 413.259) rotate(-75.05)" fill="#d4e9d7"/>
        <path id="Path_1531" data-name="Path 1531" d="M1235.5,943.313l5.868,3.708,2.519-9.446,6.775-3.7.329.6-6.518,3.552-2.688,10.062-6.649-4.2Z" transform="translate(-714.089 -539.901)" fill="#d4e9d7"/>
        <path id="Path_1532" data-name="Path 1532" d="M1245.463,906.143l5.868,3.7,2.518-9.446,6.78-3.691.325.595-6.518,3.556-2.688,10.057-6.649-4.2Z" transform="translate(-719.847 -518.412)" fill="#d4e9d7"/>
        <path id="Path_1533" data-name="Path 1533" d="M1251.653,883.023l5.868,3.708,2.523-9.446,6.775-3.7.325.6-6.518,3.556-2.683,10.057-6.653-4.2Z" transform="translate(-723.426 -505.046)" fill="#d4e9d7"/>
        <path id="Path_1534" data-name="Path 1534" d="M1341.063,1031.551c-.941-11.766-7.375-36.543-17.533-37.091-8.859,6.446,1.143,29.164,4.042,37.091Z" transform="translate(-815.326 -618.158)" fill="#009844" fill-rule="evenodd"/>
        <rect id="Rectangle_785" data-name="Rectangle 785" width="0.445" height="32.118" transform="translate(513.447 382.74) rotate(-15.005)" fill="#d4e9d7"/>
        <path id="Path_1535" data-name="Path 1535" d="M1223.214,955.66l-3.8,2.4-1.633-6.109-4.383-2.388-.211.384,4.219,2.3,1.738,6.51,4.3-2.721Z" transform="translate(-701.399 -548.966)" fill="#d4e9d7"/>
        <path id="Path_1536" data-name="Path 1536" d="M1216.774,931.61l-3.8,2.4-1.633-6.109-4.383-2.388-.211.388,4.214,2.295,1.738,6.51,4.3-2.717Z" transform="translate(-697.676 -535.062)" fill="#d4e9d7"/>
        <path id="Path_1537" data-name="Path 1537" d="M1212.764,916.66l-3.8,2.4-1.628-6.113-4.387-2.388-.211.384,4.219,2.3,1.738,6.51,4.3-2.721Z" transform="translate(-695.358 -526.419)" fill="#d4e9d7"/>
        <path id="Path_1538" data-name="Path 1538" d="M1392.06,1033.485c2.979-11.42,14.728-36.762,24.827-35.534,7.594,7.893-6.079,28.295-10.314,35.593Z" transform="translate(-857.016 -620.151)" fill="#009844" fill-rule="evenodd"/>
        <path id="Path_1539" data-name="Path 1539" d="M1300.463,908.3l-13.513,28.991-.4-.19,13.513-28.987Z" transform="translate(-743.811 -525.003)" fill="#d4e9d7"/>
        <path id="Path_1540" data-name="Path 1540" d="M1282.385,954.955l3.32,3.025,2.671-5.733,4.734-1.586.143.418L1288.7,952.6l-2.848,6.1-3.763-3.426Z" transform="translate(-741.232 -549.602)" fill="#d4e9d7"/>
        <path id="Path_1541" data-name="Path 1541" d="M1292.925,932.4l3.32,3.021,2.67-5.733,4.734-1.586.143.418-4.552,1.527-2.848,6.1-3.763-3.426Z" transform="translate(-747.326 -536.56)" fill="#d4e9d7"/>
        <path id="Path_1542" data-name="Path 1542" d="M1299.475,918.375l3.32,3.025,2.675-5.733,4.734-1.586.139.418-4.552,1.527-2.848,6.1-3.763-3.426Z" transform="translate(-751.112 -528.454)" fill="#d4e9d7"/>
      </g>
    </g>
  </g>
</svg>
