<svg data-name="Layer 2" xmlns="http://www.w3.org/2000/svg" width="690.51" height="767.38">
  <g data-name="Layer 1">
    <path data-name="Path 1711" d="M77.033 130.177H46.467V99.611h30.566zm-25.672-4.916h20.778v-20.756H51.361z" fill="#292965"/>
    <path data-name="Path 1712" d="M121.899 130.177H91.242V99.611h30.657zm-25.672-4.916h20.687v-20.756H96.136z" fill="#292965"/>
    <path data-name="Path 1713" d="M54.582 181.739H24.089v-30.566h30.493zm-25.653-4.913h20.813v-20.759H28.983z" fill="#292965"/>
    <path data-name="Path 1714" d="M99.414 181.739h-30.55v-30.566h30.55zm-25.653-4.912h20.85v-20.76H73.758z" fill="#292965"/>
    <path data-name="Path 1715" d="M143.896 181.739H113.33v-30.566h30.566zm-25.635-4.912h20.74v-20.76h-20.74z" fill="#292965"/>
    <path data-name="Path 1716" d="M77.178 230.352H46.631v-30.547h30.547zm-25.653-4.894h20.759v-20.759H51.525z" fill="#292965"/>
    <path data-name="Path 1717" d="M121.899 230.352H91.388v-30.547h30.511zm-25.653-4.894h20.812v-20.759H96.3z" fill="#292965"/>
    <path data-name="Path 1718" d="M54.8 282.006H24.234v-30.64H54.8zm-25.686-4.987h20.773V256.26H29.114z" fill="#292965"/>
    <path data-name="Path 1719" d="M99.579 282.006h-30.57v-30.64h30.57zm-25.676-4.9h20.7v-20.85h-20.7z" fill="#292965"/>
    <path data-name="Path 1720" d="M144.041 282.006h-30.566v-30.64h30.566zm-25.654-4.9h20.759v-20.85h-20.759z" fill="#292965"/>
    <path data-name="Path 1721" d="M77.323 333.475H46.776v-30.547h30.547zm-25.657-4.894h20.763v-20.759H51.666z" fill="#292965"/>
    <path data-name="Path 1722" d="M122.098 333.475H91.551v-30.547h30.547zm-25.667-4.894h20.773v-20.759H96.431z" fill="#292965"/>
    <path data-name="Path 1723" d="M54.946 385.036H24.38v-30.547h30.566zm-25.653-4.894h20.759v-20.759h-20.76z" fill="#292965"/>
    <path data-name="Path 1724" d="M99.721 385.036H69.137v-30.547h30.566zm-25.672-4.894h20.778v-20.759H74.049z" fill="#292965"/>
    <path data-name="Path 1725" d="M144.186 385.036h-30.547v-30.547h30.547zm-25.653-4.894h20.759v-20.759h-20.759z" fill="#292965"/>
    <path data-name="Path 1726" d="M77.488 436.652H46.922v-30.6h30.566zm-25.672-4.894h20.759v-20.814H51.816z" fill="#292965"/>
    <path data-name="Path 1727" d="M122.244 436.652H91.697v-30.6h30.547zm-25.653-4.894h20.759v-20.814H96.591z" fill="#292965"/>
    <path data-name="Path 1728" d="M55.091 488.16H24.544v-30.548h30.547zm-25.653-4.894h20.759v-20.76H29.438z" fill="#292965"/>
    <path data-name="Path 1729" d="M99.866 488.16H69.319v-30.548h30.547zm-25.653-4.894h20.759v-20.76H74.213z" fill="#292965"/>
    <path data-name="Path 1730" d="M144.331 488.16h-30.547v-30.548h30.547zm-25.653-4.894h20.759v-20.76h-20.759z" fill="#292965"/>
    <path data-name="Path 1731" d="M77.178 539.72H46.631v-30.547h30.547zm-25.653-4.821h20.759v-20.832H51.525z" fill="#292965"/>
    <path data-name="Path 1732" d="M121.899 539.72H91.388v-30.547h30.511zm-25.6-4.821h20.759v-20.832H96.3z" fill="#292965"/>
    <path data-name="Path 1733" d="M54.8 591.301H24.234v-30.566H54.8zm-25.686-4.913h20.773v-20.759H29.114z" fill="#292965"/>
    <path data-name="Path 1734" d="M99.579 591.301h-30.57v-30.566h30.57zm-25.672-4.912h20.7v-20.76h-20.7z" fill="#292965"/>
    <path data-name="Path 1735" d="M144.041 591.301h-30.566v-30.566h30.566zm-25.653-4.894h20.758v-20.778h-20.759z" fill="#292965"/>
    <path data-name="Path 1736" d="M217.417 265.885h-26.618v-26.6h26.618zm-21.723-4.894h16.811V244.18h-16.812z" fill="#292965"/>
    <path data-name="Path 1737" d="M256.879 265.885h-26.6v-26.6h26.6zm-21.705-4.894h16.811V244.18h-16.811z" fill="#292965"/>
    <path data-name="Path 1738" d="M198.477 309.514h-26.618v-26.6h26.618zm-21.724-4.894h16.811v-16.812h-16.811z" fill="#292965"/>
    <path data-name="Path 1739" d="M236.359 309.514h-26.62v-26.6h26.62zm-21.669-4.894h16.829v-16.812h-16.831z" fill="#292965"/>
    <path data-name="Path 1740" d="M275.564 309.514h-26.6v-26.6h26.6zm-21.705-4.894h16.811v-16.812h-16.811z" fill="#292965"/>
    <path data-name="Path 1741" d="M219.126 353.834h-26.6v-26.6h26.6zm-21.705-4.894h16.811v-16.811h-16.811z" fill="#292965"/>
    <path data-name="Path 1742" d="M257.006 353.834h-26.6v-26.6h26.6zm-21.705-4.894h16.811v-16.811h-16.811z" fill="#292965"/>
    <path data-name="Path 1743" d="M318.247 49.56h-26.6V22.961h26.6zm-21.687-4.894h16.811V27.855h-16.812z" fill="#292965"/>
    <path data-name="Path 1744" d="M356.126 49.56h-26.6V22.961h26.6zm-21.705-4.894h16.811V27.855h-16.811z" fill="#292965"/>
    <path data-name="Path 1745" d="M299.309 93.189h-26.62V66.571h26.62zm-21.705-4.894h16.805V71.481h-16.808z" fill="#292965"/>
    <path data-name="Path 1746" d="M337.186 93.189h-26.6V66.571h26.6zm-21.709-4.895h16.811V71.481h-16.811z" fill="#292965"/>
    <path data-name="Path 1747" d="M374.793 93.189h-26.581V66.571h26.581zm-21.705-4.894h16.811V71.481h-16.811z" fill="#292965"/>
    <path data-name="Path 1748" d="M318.393 137.51h-26.618v-26.527h26.618zm-21.705-4.894h16.811v-16.812h-16.812z" fill="#292965"/>
    <path data-name="Path 1749" d="M356.253 137.51h-26.6v-26.527h26.6zm-21.705-4.894h16.816v-16.812h-16.816z" fill="#292965"/>
    <path data-name="Path 1750" d="M319.829 185.45h-26.6v-26.599h26.6zm-21.705-4.894h16.811v-16.815h-16.811z" fill="#292965"/>
    <path data-name="Path 1751" d="M357.709 185.45h-26.581v-26.599h26.6zm-21.705-4.894h16.811v-16.815h-16.811z" fill="#292965"/>
    <path data-name="Path 1752" d="M337.314 229.97h-26.6v-26.6h26.6zm-21.705-4.894h16.811v-16.811h-16.811z" fill="#292965"/>
    <path data-name="Path 1753" d="M375.194 229.97h-26.6v-26.6h26.6zm-21.705-4.894H370.3v-16.811h-16.812z" fill="#292965"/>
    <path data-name="Path 1754" d="M319.829 274.49h-26.6v-26.6h26.6zm-21.705-4.894h16.811v-16.811h-16.811z" fill="#292965"/>
    <path data-name="Path 1755" d="M357.709 274.49h-26.581v-26.6h26.6zm-21.705-4.894h16.811v-16.811h-16.811z" fill="#292965"/>
    <path data-name="Path 1756" d="M337.186 315.499h-26.6v-26.6h26.6zm-21.709-4.889h16.811v-16.816h-16.811z" fill="#292965"/>
    <path data-name="Path 1757" d="M375.066 315.499h-26.6v-26.6h26.6zm-21.705-4.889h16.811v-16.816h-16.811z" fill="#292965"/>
    <path data-name="Path 1758" d="M321.559 359.383h-26.618v-26.6h26.618zm-21.728-4.894h16.738v-16.815h-16.738z" fill="#292965"/>
    <path data-name="Path 1759" d="M361.02 359.383h-26.6v-26.6h26.6zm-21.709-4.894h16.811v-16.815h-16.811z" fill="#292965"/>
    <path data-name="Path 1760" d="M441.365 387.528H414.82v-26.617h26.6zm-21.705-4.894h16.811v-16.811H419.66z" fill="#292965"/>
    <path data-name="Path 1761" d="M479.244 387.528h-26.6v-26.617h26.6zm-21.705-4.894h16.816v-16.811h-16.816z" fill="#292965"/>
    <path data-name="Path 1762" d="M4.894 682.706A4.894 4.894 0 010 677.812V76.578a4.876 4.876 0 014.894-4.894h156.467a4.876 4.876 0 014.894 4.894V363.35a4.894 4.894 0 01-9.788 0V81.472H9.788v596.34a4.894 4.894 0 01-4.894 4.894z" fill="#80c782"/>
    <path data-name="Path 1763" d="M288.9 376.118a4.894 4.894 0 01-4.894-4.967V228.096H161.288a4.894 4.894 0 010-9.788H288.9a4.894 4.894 0 014.912 4.894v147.952a4.894 4.894 0 01-4.912 4.967z" fill="#80c782"/>
    <path data-name="Path 1764" d="M387.201 433.905a4.876 4.876 0 01-4.894-4.894V9.788H267.158V223.2a4.894 4.894 0 01-9.788 0V4.894A4.876 4.876 0 01262.264 0h124.937a4.876 4.876 0 014.894 4.894v424.117a4.876 4.876 0 01-4.894 4.894z" fill="#80c782"/>
    <path data-name="Path 1765" d="M514.886 368.244a4.894 4.894 0 01-4.894-4.894v-9.807H387.201a4.894 4.894 0 110-9.788h127.685a4.876 4.876 0 014.894 4.894v14.7a4.876 4.876 0 01-4.894 4.894z" fill="#80c782"/>
    <path data-name="Path 1766" d="M252.021 644.572l-14.027-36.9H118.66l-14.008 37.646q-8.224 22.033-14.009 29.729t-19.031 7.769a27.838 27.838 0 01-19.813-8.205 25.108 25.108 0 01-8.606-18.63 41.155 41.155 0 012-12.408q2-6.422 6.6-17.812l75.086-190.617 7.7-19.722a100.813 100.813 0 019.625-19.122 38.825 38.825 0 0113.409-12.317 41.155 41.155 0 0120.523-4.712 41.664 41.664 0 0120.723 4.712 39.718 39.718 0 0113.408 12.115 85.4 85.4 0 018.624 15.92q3.493 8.515 8.9 22.724l76.684 189.416q9.1 21.614 9.1 31.421c0 6.8-2.838 13.063-8.5 18.721a27.964 27.964 0 01-20.523 8.515 26.62 26.62 0 01-12.026-2.511 24.489 24.489 0 01-8.406-6.8 62.948 62.948 0 01-7.277-13.209c-2.71-5.935-4.966-11.175-6.822-15.723zm-117.732-81.49h87.676l-44.229-121.135z" fill="#292965"/>
    <path data-name="Path 1767" d="M374.357 415.31v213.65h120.516q14.446 0 22.142 7a22.833 22.833 0 017.7 17.611 22.215 22.215 0 01-7.605 17.521q-7.678 6.714-22.233 6.714H351.323q-19.431 0-27.927-8.606t-8.515-27.833V415.31q0-18.012 8.115-27.018a27.29 27.29 0 0121.323-9.1 28.382 28.382 0 0121.724 8.915q8.295 9.01 8.314 27.203z" fill="#292965"/>
    <path data-name="Path 1768" d="M660.055 433.341h-64.862v213.232q0 18.43-8.224 27.291a27.491 27.491 0 01-21.141 8.951 27.928 27.928 0 01-21.523-9.006q-8.333-9.1-8.315-27.291V433.341h-64.951q-15.192 0-22.615-6.714a24.907 24.907 0 01.291-35.733q7.733-6.6 22.324-6.623h189.016q15.41 0 22.924 6.823a22.923 22.923 0 017.514 17.812 22.451 22.451 0 01-7.605 17.721q-7.605 6.714-22.833 6.714z" fill="#292965"/>
    <path data-name="Path 1769" d="M34.241 750.514l-2-5.258H15.21l-2 5.367a18.484 18.484 0 01-2 4.257 3.183 3.183 0 01-2.711 1.092 3.929 3.929 0 01-2.82-1.164 3.639 3.639 0 01-1.24-2.659 5.713 5.713 0 01.291-1.819c.182-.6.509-1.456.946-2.547l10.7-27.164c.291-.782.673-1.71 1.092-2.82a14.562 14.562 0 011.383-2.729 5.459 5.459 0 011.91-1.819 5.764 5.764 0 012.893-.6 5.786 5.786 0 012.947.673 5.457 5.457 0 011.929 1.729 12.369 12.369 0 011.219 2.274c.327.8.764 1.82 1.274 3.239l10.916 27.036a13.482 13.482 0 011.274 4.494 3.639 3.639 0 01-1.219 2.656 3.949 3.949 0 01-2.929 1.219 3.824 3.824 0 01-1.71-.364 3.438 3.438 0 01-1.2-.964 8.913 8.913 0 01-1.037-1.819 14.37 14.37 0 00-.877-2.31zm-16.793-11.626h12.517l-6.313-17.284z" fill="#292965"/>
    <path data-name="Path 1770" d="M90.605 719.908h-16.72v10.716h13.973a4.221 4.221 0 012.911.874 3.293 3.293 0 010 4.639 4.331 4.331 0 01-2.893.855H73.885v13.816a5.566 5.566 0 01-1.183 3.893 4.275 4.275 0 01-6.113 0 5.457 5.457 0 01-1.183-3.875v-32.169a7 7 0 01.546-2.984 3.33 3.33 0 011.692-1.692 7.275 7.275 0 012.947-.527h20.014a4.364 4.364 0 013.02.91 3.329 3.329 0 010 4.73 4.366 4.366 0 01-3.02.819z" fill="#292965"/>
    <path data-name="Path 1771" d="M106.597 744.71v6.513a5.131 5.131 0 01-1.114 3.639 3.765 3.765 0 01-2.838 1.183 3.638 3.638 0 01-2.765-1.2 5.113 5.113 0 01-1.092-3.639v-21.633c0-3.511 1.274-5.258 3.8-5.258a3.165 3.165 0 012.8 1.219 6.858 6.858 0 01.946 3.639 13.551 13.551 0 012.875-3.639 5.929 5.929 0 013.93-1.219 10.039 10.039 0 014.767 1.219 3.639 3.639 0 012.311 3.257 3.093 3.093 0 01-.982 2.365 3.058 3.058 0 01-2.129.928 10.114 10.114 0 01-2.074-.528 9.226 9.226 0 00-2.893-.528 4.2 4.2 0 00-2.8.892 5.75 5.75 0 00-1.686 2.679 19.228 19.228 0 00-.837 4.221q-.219 2.379-.219 5.89z" fill="#292965"/>
    <path data-name="Path 1772" d="M143.441 751.57a24.06 24.06 0 01-5.458 3.311 15.439 15.439 0 01-5.931 1.092 11.334 11.334 0 01-5.276-1.182 8.571 8.571 0 01-3.493-3.22 8.189 8.189 0 01-1.237-4.4 7.913 7.913 0 012.02-5.458 10.264 10.264 0 015.586-3.039l3.639-.782c1.965-.4 3.639-.764 5.058-1.092s2.911-.746 4.548-1.219a8.169 8.169 0 00-1.237-4.53 5.586 5.586 0 00-4.567-1.437 9.6 9.6 0 00-4.476.819 7.42 7.42 0 00-2.565 2.492 24.42 24.42 0 01-1.51 2.183 2.336 2.336 0 01-1.819.528 3.276 3.276 0 01-2.256-.837 2.693 2.693 0 01-.964-2.165 6.6 6.6 0 011.456-3.984 10.28 10.28 0 014.548-3.2 20.446 20.446 0 017.678-1.274 21.96 21.96 0 018.1 1.219 7.5 7.5 0 014.148 3.839 16.775 16.775 0 011.219 6.987v8.912a15.611 15.611 0 00.728 4.585 14.04 14.04 0 01.728 3.075 2.892 2.892 0 01-1.128 2.183 3.781 3.781 0 01-2.565.983 3.456 3.456 0 01-2.365-1.128 16.857 16.857 0 01-2.609-3.261zm-.51-11.281a40.5 40.5 0 01-4.985 1.328c-2.183.455-3.639.8-4.53 1.019a6.224 6.224 0 00-2.4 1.292 3.293 3.293 0 00-1.152 2.675 4 4 0 001.346 3.02 5.023 5.023 0 003.511 1.238 9.209 9.209 0 004.276-1.019 6.638 6.638 0 002.911-2.62 11.806 11.806 0 001.056-5.822z" fill="#292965"/>
    <path data-name="Path 1773" d="M187.178 746.315a6.584 6.584 0 01-.855 3.111 10.81 10.81 0 01-2.656 3.166 13.975 13.975 0 01-4.512 2.456 19.266 19.266 0 01-6.113.91 14.865 14.865 0 01-11.28-4.221 15.556 15.556 0 01-4.057-11.244 18.577 18.577 0 011.819-8.478 13.248 13.248 0 015.458-5.713 16.611 16.611 0 018.351-2.187 16.821 16.821 0 015.458.892 15.012 15.012 0 014.294 2.292 10.918 10.918 0 012.674 2.984 5.932 5.932 0 01.946 2.965 3.148 3.148 0 01-1.055 2.365 3.513 3.513 0 01-2.529.964 2.639 2.639 0 01-1.619-.491 7.86 7.86 0 01-1.437-1.619 11.932 11.932 0 00-2.984-3.257 7.278 7.278 0 00-9.534 1.619 11.735 11.735 0 00-1.983 7.459 14.174 14.174 0 00.546 4.039 9.1 9.1 0 001.565 3.147 6.694 6.694 0 002.493 1.965 7.42 7.42 0 003.2.673 7.114 7.114 0 004-1.092 9.1 9.1 0 002.966-3.311 7.272 7.272 0 011.546-2.056 2.91 2.91 0 012.02-.746 3.019 3.019 0 012.383 1.092 3.511 3.511 0 01.895 2.316z" fill="#292965"/>
    <path data-name="Path 1774" d="M195.107 724.934h.873v-7.641a4.366 4.366 0 01.564-1.819 3.636 3.636 0 011.31-1.31 3.729 3.729 0 011.819-.491 3.838 3.838 0 012.693 1.11 3.382 3.382 0 011.019 1.819 18.2 18.2 0 01.2 3.038v5.313h2.856a3.639 3.639 0 012.529.8 2.547 2.547 0 01.873 2 2.238 2.238 0 01-1.237 2.2 8.114 8.114 0 01-3.639.637h-1.2v14.336a26.506 26.506 0 00.127 2.82 3 3 0 00.691 1.6 2.419 2.419 0 001.819.619 9.753 9.753 0 001.819-.255 9.323 9.323 0 011.819-.236 2.346 2.346 0 011.692.764 2.511 2.511 0 01.764 1.819 3.13 3.13 0 01-2.074 2.875 13.742 13.742 0 01-5.913 1 10.174 10.174 0 01-5.458-1.219 5.715 5.715 0 01-2.565-3.311 22.7 22.7 0 01-.582-5.8v-14.973h-1.037a3.638 3.638 0 01-2.565-.8 2.62 2.62 0 01-.891-2.038 2.474 2.474 0 01.928-2 4.058 4.058 0 012.766-.857z" fill="#292965"/>
    <path data-name="Path 1775" d="M220.146 720.622a4.057 4.057 0 01-2.784-1 3.475 3.475 0 01-1.164-2.82 3.53 3.53 0 011.183-2.729 3.949 3.949 0 012.765-1.073 4.185 4.185 0 012.693.964 3.493 3.493 0 011.164 2.838 3.529 3.529 0 01-1.146 2.8 3.875 3.875 0 01-2.711 1.02zm3.857 8.06v22.542a5.021 5.021 0 01-1.11 3.639 3.639 3.639 0 01-2.838 1.2 3.494 3.494 0 01-2.784-1.219 5.24 5.24 0 01-1.073-3.53v-22.4a5.04 5.04 0 011.073-3.493 3.639 3.639 0 012.784-1.164 3.748 3.748 0 012.838 1.164 4.531 4.531 0 011.019 3.257z" fill="#292965"/>
    <path data-name="Path 1776" d="M261.882 740.108a18.417 18.417 0 01-1.092 6.441 14.156 14.156 0 01-3.148 5.058 13.776 13.776 0 01-4.912 3.238 17.485 17.485 0 01-6.422 1.128 16.756 16.756 0 01-6.365-1.146 14.1 14.1 0 01-8.06-8.3 19.758 19.758 0 010-12.9 14.356 14.356 0 013.111-5.04 13.843 13.843 0 014.931-3.2 17.035 17.035 0 016.368-1.128 17.628 17.628 0 016.422 1.128 13.918 13.918 0 018.078 8.3 18.653 18.653 0 011.092 6.422zm-7.842 0a11.662 11.662 0 00-2.092-7.423 6.823 6.823 0 00-5.64-2.656 7.077 7.077 0 00-4.039 1.182 7.479 7.479 0 00-2.675 3.511 13.955 13.955 0 00-.946 5.458 14.19 14.19 0 00.928 5.349 7.75 7.75 0 002.656 3.512 6.951 6.951 0 004.075 1.2 6.787 6.787 0 005.64-2.675 11.662 11.662 0 002.096-7.458z" fill="#292965"/>
    <path data-name="Path 1777" d="M275.819 728.573v1a13.432 13.432 0 014.494-3.984 11.92 11.92 0 015.622-1.274 11.232 11.232 0 015.458 1.328 8.608 8.608 0 013.639 3.8 8.7 8.7 0 011 3.093 29.93 29.93 0 01.236 4.221v14.555a5.2 5.2 0 01-1.073 3.639 3.87 3.87 0 01-5.622-.018 5.238 5.238 0 01-1.073-3.53v-12.99a13.08 13.08 0 00-1.073-5.913 4.385 4.385 0 00-4.276-2.038 6.388 6.388 0 00-3.8 1.237 7.1 7.1 0 00-2.511 3.42 24.255 24.255 0 00-.582 6.513v9.77a5.131 5.131 0 01-1.092 3.639 3.731 3.731 0 01-2.838 1.182 3.64 3.64 0 01-2.784-1.219 5.15 5.15 0 01-1.073-3.53v-22.795a4.858 4.858 0 01.964-3.329 3.384 3.384 0 012.656-1.092 3.384 3.384 0 013.148 1.928 5.242 5.242 0 01.58 2.387z" fill="#292965"/>
    <path data-name="Path 1778" d="M319.484 724.934h1.819v-2.329a14.975 14.975 0 01.928-5.822 5.914 5.914 0 013.148-3.148 15.266 15.266 0 016.077-.982c4.548 0 6.823 1.11 6.823 3.348a2.619 2.619 0 01-.709 1.82 2.238 2.238 0 01-1.692.764 12.509 12.509 0 01-1.565-.164 11.488 11.488 0 00-1.819-.182c-1.419 0-2.311.418-2.711 1.255a8.316 8.316 0 00-.6 3.548v1.819h1.947c2.966 0 4.458.91 4.458 2.693 0 1.273-.4 2.092-1.183 2.42a8.424 8.424 0 01-3.275.528h-1.91v20.723a5 5 0 01-1.11 3.53 3.83 3.83 0 01-5.6 0 5.1 5.1 0 01-1.092-3.53v-20.65h-2.147a4.114 4.114 0 01-2.675-.782 2.547 2.547 0 01-.946-2.056c-.078-1.802 1.214-2.803 3.834-2.803z" fill="#292965"/>
    <path data-name="Path 1779" d="M368.735 740.108a18.415 18.415 0 01-1.092 6.441 13.7 13.7 0 01-8.06 8.3 17.408 17.408 0 01-6.422 1.128 16.824 16.824 0 01-6.368-1.146 14.194 14.194 0 01-4.912-3.275 14.031 14.031 0 01-3.129-5.022 18.09 18.09 0 01-1.074-6.422 18.983 18.983 0 011.073-6.477 14.138 14.138 0 013.129-5.04 13.6 13.6 0 014.912-3.2 17.1 17.1 0 016.368-1.128 17.554 17.554 0 016.422 1.128 13.918 13.918 0 018.078 8.3 18.651 18.651 0 011.075 6.413zm-7.823 0a11.662 11.662 0 00-2.11-7.423 6.823 6.823 0 00-5.64-2.656 6.986 6.986 0 00-4.021 1.182 7.625 7.625 0 00-2.693 3.511 13.956 13.956 0 00-.946 5.458 14.19 14.19 0 00.928 5.349 7.75 7.75 0 002.656 3.511 6.986 6.986 0 004.075 1.2 6.787 6.787 0 005.64-2.675 11.663 11.663 0 002.111-7.457z" fill="#292965"/>
    <path data-name="Path 1780" d="M383.326 744.71v6.513a5.039 5.039 0 01-1.11 3.639 3.765 3.765 0 01-2.838 1.183 3.638 3.638 0 01-2.766-1.2 5.113 5.113 0 01-1.092-3.639v-21.633c0-3.511 1.274-5.258 3.8-5.258a3.165 3.165 0 012.8 1.219 6.7 6.7 0 01.946 3.639 13.554 13.554 0 012.875-3.639 5.929 5.929 0 013.93-1.219 10.039 10.039 0 014.767 1.219 3.639 3.639 0 012.311 3.257 3.093 3.093 0 01-.982 2.365 3.058 3.058 0 01-2.129.928 10.117 10.117 0 01-2.074-.528 9.224 9.224 0 00-2.893-.528 4.238 4.238 0 00-2.8.892 5.751 5.751 0 00-1.692 2.675 18.194 18.194 0 00-.819 4.221 58.2 58.2 0 00-.234 5.894z" fill="#292965"/>
    <path data-name="Path 1781" d="M445.403 719.908h-19.121v10.28h17.645a4.185 4.185 0 012.911.873 2.984 2.984 0 01.964 2.311 3.13 3.13 0 01-.946 2.329 4.13 4.13 0 01-2.929.891h-17.645v11.917h19.777a4.384 4.384 0 013.02.928 3.185 3.185 0 011 2.474 3.148 3.148 0 01-1 2.42 4.387 4.387 0 01-3.02.928h-23.07a4.439 4.439 0 01-5.185-5.2v-31.4a7.021 7.021 0 01.528-2.984 3.366 3.366 0 011.71-1.692 7.275 7.275 0 012.947-.528h22.415a4.33 4.33 0 013 .91 3.293 3.293 0 010 4.73 4.329 4.329 0 01-3 .819z" fill="#292965"/>
    <path data-name="Path 1782" d="M462.507 729.118l6.313 17.7 6.8-18.485a11.057 11.057 0 011.565-3.147 2.91 2.91 0 012.347-.928 3.474 3.474 0 012.529 1 3.11 3.11 0 011.037 2.311 4.474 4.474 0 01-.182 1.2 11.6 11.6 0 01-.418 1.273c-.164.4-.346.873-.564 1.383l-7.478 18.576-.819 2.02a10.923 10.923 0 01-1.128 2.111 4.114 4.114 0 01-1.51 1.346 4.5 4.5 0 01-2.183.491 4.166 4.166 0 01-2.638-.764 4.93 4.93 0 01-1.455-1.656q-.491-.892-1.583-3.548l-7.441-18.376c-.164-.455-.346-.91-.527-1.383a12.226 12.226 0 01-.455-1.383 4.941 4.941 0 01-.182-1.237 3.131 3.131 0 01.473-1.583 3.823 3.823 0 011.346-1.292 3.636 3.636 0 011.819-.491 2.911 2.911 0 012.674 1.11 17.758 17.758 0 011.66 3.752z" fill="#292965"/>
    <path data-name="Path 1783" d="M510.41 742.036h-15.246a10.355 10.355 0 001.055 4.676 7.278 7.278 0 006.6 4.094 9.289 9.289 0 002.547-.328 7.809 7.809 0 002.238-1.037 15.473 15.473 0 002-1.492c.618-.546 1.4-1.256 2.383-2.183a2.53 2.53 0 011.71-.51 2.836 2.836 0 011.947.655 2.365 2.365 0 01.753 1.818 5.166 5.166 0 01-.837 2.474 9.528 9.528 0 01-2.492 2.711 14.254 14.254 0 01-4.2 2.165 18.412 18.412 0 01-5.822.855 15.5 15.5 0 01-11.68-4.294 15.958 15.958 0 01-4.185-11.626 19.218 19.218 0 011.037-6.4 14.131 14.131 0 013-5.076 12.73 12.73 0 014.858-3.238 17.228 17.228 0 016.4-1.146 15.152 15.152 0 017.842 1.947 12.5 12.5 0 014.894 4.985 13.047 13.047 0 011.637 6.222q0 2.948-1.692 3.821a10.533 10.533 0 01-4.747.907zm-15.246-4.439h14.133a9.513 9.513 0 00-2.147-5.986 6.459 6.459 0 00-5-2.038 6.206 6.206 0 00-4.785 2.02 9.862 9.862 0 00-2.2 6z" fill="#292965"/>
    <path data-name="Path 1784" d="M531.861 744.711v6.513a5.04 5.04 0 01-1.11 3.639 3.747 3.747 0 01-2.82 1.183 3.639 3.639 0 01-2.784-1.2 5.111 5.111 0 01-1.092-3.639v-21.633c0-3.511 1.273-5.258 3.8-5.258a3.147 3.147 0 012.8 1.219 6.693 6.693 0 01.946 3.639 13.558 13.558 0 012.875-3.639 5.932 5.932 0 013.93-1.219 10.045 10.045 0 014.767 1.219 3.639 3.639 0 012.329 3.257 3.111 3.111 0 01-1 2.365 3.057 3.057 0 01-2.129.928 10.718 10.718 0 01-2.074-.528 9.219 9.219 0 00-2.893-.528 4.239 4.239 0 00-2.8.892 5.752 5.752 0 00-1.692 2.675 18.188 18.188 0 00-.819 4.221 58.2 58.2 0 00-.234 5.894z" fill="#292965"/>
    <path data-name="Path 1785" d="M557.659 756.864l.71-1.819-9.588-24.18a8.91 8.91 0 01-.892-3.038 3.64 3.64 0 01.51-1.819 3.926 3.926 0 011.419-1.365 3.636 3.636 0 011.819-.51 3.055 3.055 0 012.547 1.073 9.921 9.921 0 011.51 3.056l6.6 19.213 6.259-17.866a31.2 31.2 0 011.328-3.4 4.127 4.127 0 011.274-1.656 3.637 3.637 0 011.91-.418 3.439 3.439 0 013.4 3.42c-.091.364-.2.873-.382 1.547s-.382 1.346-.619 2.02l-10.188 26.635a30.718 30.718 0 01-2.566 5.458 8.335 8.335 0 01-3.329 3.075 12.06 12.06 0 01-5.585 1.073 13.317 13.317 0 01-5.149-.746 2.693 2.693 0 01-1.71-2.711 2.638 2.638 0 01.819-2.074 3.637 3.637 0 012.42-.728 3.969 3.969 0 011.219.182 6.109 6.109 0 001.292.164 4.553 4.553 0 002.11-.4 3.638 3.638 0 001.383-1.383 18.938 18.938 0 001.479-2.803z" fill="#292965"/>
    <path data-name="Path 1786" d="M611.313 740.108a18.412 18.412 0 01-1.092 6.441 14.372 14.372 0 01-3.129 5.058 14.007 14.007 0 01-4.93 3.238 17.408 17.408 0 01-6.423 1.128 16.756 16.756 0 01-6.368-1.146 14.2 14.2 0 01-4.912-3.275 14.029 14.029 0 01-3.134-5.022 18.092 18.092 0 01-1.073-6.422 18.981 18.981 0 011.073-6.477 14.141 14.141 0 013.129-5.04 13.607 13.607 0 014.913-3.2 17.035 17.035 0 016.368-1.128 17.554 17.554 0 016.423 1.128 13.918 13.918 0 018.078 8.3 18.645 18.645 0 011.073 6.422zm-7.823 0a11.659 11.659 0 00-2.111-7.423 6.823 6.823 0 00-5.64-2.656 7.077 7.077 0 00-4.039 1.182 7.6 7.6 0 00-2.675 3.511 13.955 13.955 0 00-.946 5.458 14.2 14.2 0 00.928 5.349 7.75 7.75 0 002.656 3.512 6.952 6.952 0 004.075 1.2 6.787 6.787 0 005.64-2.675 11.663 11.663 0 002.112-7.458z" fill="#292965"/>
    <path data-name="Path 1787" d="M625.25 728.573v1a13.431 13.431 0 014.494-3.984 11.975 11.975 0 015.622-1.274 11.231 11.231 0 015.458 1.328 8.607 8.607 0 013.639 3.8 8.7 8.7 0 011 3.093 29.894 29.894 0 01.237 4.221v14.555a5.2 5.2 0 01-1.073 3.639 3.87 3.87 0 01-5.622-.018 5.241 5.241 0 01-1.073-3.53v-12.99a13.078 13.078 0 00-1.073-5.913 4.367 4.367 0 00-4.276-2.038 6.421 6.421 0 00-3.8 1.237 7.094 7.094 0 00-2.511 3.42 24.25 24.25 0 00-.582 6.513v9.77a5.132 5.132 0 01-1.092 3.639 3.89 3.89 0 01-5.622-.037 5.24 5.24 0 01-1.074-3.53v-22.795a4.949 4.949 0 01.965-3.329 3.383 3.383 0 012.656-1.092 3.64 3.64 0 011.819.473 3.44 3.44 0 011.328 1.456 5.022 5.022 0 01.582 2.384z" fill="#292965"/>
    <path data-name="Path 1788" d="M675.993 742.036h-15.265a10.352 10.352 0 001.073 4.676 7.182 7.182 0 006.586 4.094 9.289 9.289 0 002.547-.327 8.14 8.14 0 002.256-1.037 16.865 16.865 0 002-1.492c.6-.546 1.4-1.256 2.365-2.183a2.531 2.531 0 011.71-.51 2.839 2.839 0 011.947.655 2.364 2.364 0 01.746 1.819 4.984 4.984 0 01-.837 2.474 9.531 9.531 0 01-2.492 2.711 13.812 13.812 0 01-4.2 2.165 18.315 18.315 0 01-5.822.855 15.5 15.5 0 01-11.68-4.294 15.937 15.937 0 01-4.166-11.626 19.675 19.675 0 011.019-6.4 14.134 14.134 0 013-5.076 12.736 12.736 0 014.858-3.238 17.228 17.228 0 016.4-1.146 15.1 15.1 0 017.841 1.947 12.734 12.734 0 014.913 4.985 13.229 13.229 0 011.619 6.222q0 2.948-1.692 3.821a10.39 10.39 0 01-4.726.905zm-15.265-4.439h14.141a9.517 9.517 0 00-2.147-5.986 6.461 6.461 0 00-5-2.038 6.205 6.205 0 00-4.785 2.02 9.97 9.97 0 00-2.209 6.004z" fill="#292965"/>
  </g>
</svg>
